<svg xmlns="http://www.w3.org/2000/svg" width="102" height="102" viewBox="0 0 102 102"><defs><style>.a{fill:#1d45ef;}.b{fill:#fff;}</style></defs><g transform="translate(-444 -657)"><circle class="a" cx="51" cy="51" r="51" transform="translate(444 657)"/><g transform="translate(468.583 678.054)"><path class="b" d="M115.076,9.152h0a2.076,2.076,0,0,0,0-4.152h0a2.076,2.076,0,0,0,0,4.152Zm0-2.491a.415.415,0,1,1,0,.83h0a.415.415,0,1,1,0-.83Z" transform="translate(-66.077 -2.924)"/><circle class="b" cx="0.819" cy="0.819" r="0.819" transform="translate(51.624)"/><path class="b" d="M7.076,9.152h0A2.076,2.076,0,0,0,7.076,5h0a2.076,2.076,0,1,0,0,4.152ZM6.781,6.781a.415.415,0,0,1,.295-.12h0a.415.415,0,0,1,0,.83h0a.415.415,0,0,1-.295-.71Z" transform="translate(-2.924 -2.924)"/><circle class="b" cx="0.819" cy="0.819" r="0.819"/><path class="b" d="M90.983,38H87.661A1.661,1.661,0,0,0,86,39.661v34.88a.83.83,0,0,0,.83.83h4.983a.83.83,0,0,0,.83-.83V39.661A1.661,1.661,0,0,0,90.983,38Zm0,35.711H87.661V39.661h3.322Z" transform="translate(-50.289 -22.221)"/><path class="b" d="M70.983,58H67.661A1.661,1.661,0,0,0,66,59.661V86.237a.83.83,0,0,0,.83.83h4.983a.83.83,0,0,0,.83-.83V59.661A1.661,1.661,0,0,0,70.983,58Zm0,27.406H67.661V59.661h3.322Z" transform="translate(-38.594 -33.916)"/><path class="b" d="M50.983,78H47.661A1.661,1.661,0,0,0,46,79.661V97.932a.83.83,0,0,0,.83.83h4.983a.83.83,0,0,0,.83-.83V79.661A1.661,1.661,0,0,0,50.983,78Zm0,19.1H47.661V79.661h3.322Z" transform="translate(-26.899 -45.611)"/><path class="b" d="M30.983,98H27.661A1.661,1.661,0,0,0,26,99.661v9.966a.83.83,0,0,0,.83.83h4.983a.83.83,0,0,0,.83-.83V99.661A1.661,1.661,0,0,0,30.983,98Zm0,10.8H27.661V99.661h3.322Z" transform="translate(-15.204 -57.306)"/><path class="b" d="M36,47.726a11.627,11.627,0,0,0,.511,3.417q.71-.5,1.433-1.063a9.966,9.966,0,0,1,8.492-12.25,2.491,2.491,0,0,1-.083-1.661A11.627,11.627,0,0,0,36,47.726Z" transform="translate(-21.051 -21.151)"/><path class="b" d="M19.059,54.416a.83.83,0,0,0,1.084.448c4.912-2.039,16.506-8.052,21.177-20.762l.1.415a.839.839,0,1,0,1.64-.357l-.81-3.5a.83.83,0,0,0-1.37-.415l-2.653,2.446A.83.83,0,1,0,39.344,33.9l.453-.415C35.341,45.608,24.213,51.376,19.5,53.332a.83.83,0,0,0-.44,1.084Z" transform="translate(-11.107 -17.554)"/><path class="b" d="M78.76,43.083a10.069,10.069,0,0,1,1.345,1.271V42.028c-.154-.129-.307-.253-.469-.378a2.491,2.491,0,0,1-.876,1.433Z" transform="translate(-46.055 -24.355)"/><path class="b" d="M106,90.91v2.346l1.453,1.449a1.19,1.19,0,0,1-.228,1.6L106,97.533v2.309a3.355,3.355,0,0,0,.311-.27l2.076-2.076a2.823,2.823,0,0,0,.233-3.949Z" transform="translate(-61.984 -53.16)"/><path class="b" d="M16.885,93.111a2.491,2.491,0,0,1-.752-.116l-1.466,1.462a2.812,2.812,0,0,0,.233,3.949l2.076,2.076a3.352,3.352,0,0,0,.311.27V98.443l-1.221-1.221a1.188,1.188,0,0,1-.233-1.6L18.5,92.962a1.661,1.661,0,0,0,.336-.482c-.357.158-.693.3-1,.415A2.491,2.491,0,0,1,16.885,93.111Z" transform="translate(-8.165 -54.078)"/><path class="b" d="M50.527,22.145H46.765a20.555,20.555,0,0,0-2.782-6.71l2.662-2.662a2.81,2.81,0,0,0-.233-3.945L44.336,6.752a3.127,3.127,0,0,0-2.2-.938,2.458,2.458,0,0,0-1.761.706L37.717,9.181A20.571,20.571,0,0,0,31.006,6.4V2.624A2.8,2.8,0,0,0,28.05,0H25.1a2.8,2.8,0,0,0-2.957,2.624V6.386a20.575,20.575,0,0,0-6.71,2.782L12.777,6.507a2.462,2.462,0,0,0-1.761-.693,3.127,3.127,0,0,0-2.188.938L6.752,8.828a2.814,2.814,0,0,0-.233,3.945l2.666,2.662A20.513,20.513,0,0,0,6.4,22.145H2.624A2.8,2.8,0,0,0,0,25.1v2.952a2.8,2.8,0,0,0,2.624,2.952H6.391a20.347,20.347,0,0,0,1.059,3.4,2.492,2.492,0,0,1,.316-.162c.361-.149.764-.324,1.2-.523a18.686,18.686,0,0,1-.951-3.064,1.661,1.661,0,0,0-1.624-1.308H2.624c-.523,0-.963-.594-.963-1.3V25.1c0-.7.44-1.291.963-1.291H6.391A1.661,1.661,0,0,0,8.014,22.5a18.811,18.811,0,0,1,2.558-6.166,1.661,1.661,0,0,0-.224-2.076L7.682,11.6A1.182,1.182,0,0,1,7.915,10L9.991,7.927a1.474,1.474,0,0,1,1.026-.453.83.83,0,0,1,.585.22l2.658,2.662a1.661,1.661,0,0,0,2.076.224,18.864,18.864,0,0,1,6.171-2.558A1.661,1.661,0,0,0,23.814,6.4V2.624c-.008-.523.585-.963,1.287-.963H28.05c.7,0,1.3.44,1.3.963V6.386A1.661,1.661,0,0,0,30.653,8.01a18.869,18.869,0,0,1,6.171,2.558,1.661,1.661,0,0,0,2.076-.224l2.662-2.662a.83.83,0,0,1,.585-.22,1.47,1.47,0,0,1,1.013.453l2.076,2.076a1.188,1.188,0,0,1,.233,1.6l-2.662,2.662a1.661,1.661,0,0,0-.291.415,3.322,3.322,0,0,1,1.5,2.774v1.582A18.79,18.79,0,0,1,45.141,22.5a1.661,1.661,0,0,0,1.624,1.308h3.762c.523,0,.963.594.963,1.291V28.05c0,.7-.44,1.291-.963,1.291H46.765a1.661,1.661,0,0,0-1.624,1.308,18.8,18.8,0,0,1-1.125,3.476v3.538a20.6,20.6,0,0,0,2.749-6.644h3.762a2.8,2.8,0,0,0,2.624-2.952V25.1A2.8,2.8,0,0,0,50.527,22.145Z"/></g></g></svg>