<?xml version="1.0" encoding="utf-8"?>
<!-- Generator: Adobe Illustrator 16.0.0, SVG Export Plug-In . SVG Version: 6.00 Build 0)  -->
<!DOCTYPE svg PUBLIC "-//W3C//DTD SVG 1.1//EN" "http://www.w3.org/Graphics/SVG/1.1/DTD/svg11.dtd">
<svg version="1.1" id="Layer_1" xmlns="http://www.w3.org/2000/svg" xmlns:xlink="http://www.w3.org/1999/xlink" x="0px" y="0px"
	 width="17.875px" height="18px" viewBox="7.875 8 17.875 18" enable-background="new 7.875 8 17.875 18" xml:space="preserve">
<g transform="translate(-15556.93 -4010.045)">
	<rect x="15556.951" y="4010.052" display="none" width="33" height="33"/>
	<path display="none" fill="#1445F5" d="M15563.709,4025.394l0.159-0.01l8.941,0.005l0.001-8.948
		c0.004-0.706,0.58-1.274,1.286-1.271c0.638,0.004,1.175,0.478,1.259,1.11l0.01,0.16l-0.002,8.941l8.943,0
		c0.706,0.004,1.275,0.58,1.271,1.286c-0.004,0.638-0.479,1.175-1.11,1.259l-0.16,0.01l-8.944,0.006l0.003,8.941
		c-0.004,0.705-0.579,1.273-1.285,1.27c-0.638-0.004-1.176-0.477-1.259-1.109l-0.011-0.16l-0.002-8.949l-8.941,0.006
		c-0.706-0.002-1.276-0.576-1.274-1.281C15562.595,4026.017,15563.072,4025.475,15563.709,4025.394z"/>
</g>
<g transform="translate(-8141.545 -13835.94) rotate(45)">
	<rect x="15547.279" y="4010.035" display="none" fill="#1445F5" width="33" height="32.999"/>
	<path fill="#1445F5" d="M15554.037,4025.375l0.159-0.01l8.94,0.005l0.002-8.948c0.005-0.706,0.58-1.274,1.285-1.27
		c0.639,0.003,1.176,0.477,1.261,1.109l0.009,0.161l-0.003,8.941h8.944c0.705,0.004,1.275,0.579,1.271,1.285
		c-0.005,0.639-0.479,1.176-1.11,1.26l-0.16,0.009l-8.945,0.007l0.005,8.94c-0.005,0.706-0.58,1.275-1.286,1.271
		c-0.638-0.004-1.176-0.478-1.259-1.11l-0.011-0.16l-0.001-8.948l-8.942,0.005c-0.706-0.002-1.276-0.575-1.274-1.281
		C15552.923,4025.998,15553.4,4025.457,15554.037,4025.375z"/>
</g>
</svg>
