<svg xmlns="http://www.w3.org/2000/svg" width="229" height="229" viewBox="0 0 229 229"><defs><style>.a{fill:#00f29f;}.b{fill:#fff;}</style></defs><g transform="translate(-698 -1262)"><circle class="a" cx="114.5" cy="114.5" r="114.5" transform="translate(698 1262)"/><g transform="translate(750.759 1314.887)"><path class="b" d="M125.351,61.106a61.012,61.012,0,0,0-17.989-41.117l-.771-.771h0A62.211,62.211,0,0,0,63.675,2,60.461,60.461,0,0,0,22.045,18.19h0l-2.056,1.8-.257.257L18.19,21.788h0A64.033,64.033,0,0,0,2,61.106H2v2.57H2v2.57H2a61.246,61.246,0,0,0,17.218,40.346l.771.771a61.629,61.629,0,0,0,43.687,17.989A60.7,60.7,0,0,0,105.306,108.9h0l2.056-1.542h0l1.8-1.8h0a58.733,58.733,0,0,0,11.564-17.732A66.221,66.221,0,0,0,125.608,66.5h0v-2.57l-.257-2.827Zm-18.246,7.709a9.13,9.13,0,0,1-.514,2.57c0,.514-.257,1.028-.257,1.542-.257,1.028-.514,1.8-.771,2.57,0,.514-.257.771-.257,1.285-.514,1.285-.771,2.57-1.285,3.855s-1.285,2.57-1.8,3.855c-.257.514-.514.771-.771,1.285s-.771,1.028-1.028,1.542H99.91c-.257,0-.514-.257-.771-.257-.514,0-.771-.257-1.285-.257H97.6a12,12,0,0,0-4.369.771c-.257,0-.514.257-.771.257s-.257.257-.514.257l-4.626-4.626h0a.252.252,0,0,1,.257-.257l.514-.514c.514-.514.771-1.028,1.285-1.542.257-.257.257-.514.514-.771a11.175,11.175,0,0,0,1.028-1.8c.257-.257.257-.514.514-.771a30.628,30.628,0,0,0,2.056-5.14c0-.257.257-.514.257-.771.257-.514.257-1.285.514-1.8a1.943,1.943,0,0,1,.257-1.028c0-.771.257-1.285.257-2.056V65.988h12.849v1.028A2.771,2.771,0,0,0,107.105,68.815ZM86.8,100.681c-.514.257-.771.514-1.285.771l-1.542.771c-.514.257-.771.514-1.285.771a12.529,12.529,0,0,1-1.8.771c-.514.257-.771.257-1.285.514a4.764,4.764,0,0,1-1.8.514c-.514.257-.771.257-1.285.514s-1.285.257-1.8.514c-.514,0-.771.257-1.285.257a5.658,5.658,0,0,1-2.056.257c-.514,0-.771.257-1.285.257-.771,0-1.542.257-2.313.257h-1.8V94h1.285c.514,0,1.285-.257,1.8-.257.257,0,.771-.257,1.028-.257a16.381,16.381,0,0,1,1.8-.514c.257,0,.771-.257,1.028-.257.514-.257,1.028-.257,1.542-.514.257-.257.771-.257,1.028-.514l1.542-.771c.257-.257.771-.257,1.028-.514a5.376,5.376,0,0,0,1.542-1.028,1.335,1.335,0,0,1,1.028-.514c.514-.257,1.028-.771,1.542-1.028.257-.257.514-.514.771-.514a.252.252,0,0,0,.257-.257l4.626,4.626c-.257.514-.514.771-.514,1.285h0c-.257.514-.257,1.028-.514,1.542v.514c0,.514-.257,1.285-.257,1.8h0v2.056c0,.257.257.771.257,1.028v.257C87.061,100.424,87.061,100.681,86.8,100.681ZM29.24,90.144A14.255,14.255,0,0,0,27.7,88.089l-.771-1.542c-.514-.771-.771-1.285-1.285-2.056l-.771-1.542c-.257-.771-.771-1.285-1.028-2.056a12.529,12.529,0,0,1-.771-1.8,17.707,17.707,0,0,0-.771-2.056c-.257-.514-.257-1.285-.514-1.8a7.5,7.5,0,0,1-.514-2.313,4.373,4.373,0,0,1-.257-1.8,7.115,7.115,0,0,1-.257-2.313c0-.514-.257-1.285-.257-1.8V65.988H33.352V66.5a1.545,1.545,0,0,0,.257,1.028c0,.771.257,1.285.257,2.056,0,.257.257.771.257,1.028l.771,2.313c0,.257.257.514.257.771a13.773,13.773,0,0,0,1.285,2.827v.257c.257.257.257.771.514,1.028.257.514.514.771.771,1.285a.252.252,0,0,0,.257.257,1.335,1.335,0,0,1,.514,1.028c.257.514.514.771.771,1.285a5.605,5.605,0,0,0,1.028,1.285h0a.252.252,0,0,0,.257.257L31.553,92.2c-.257-.514-.771-.771-1.028-1.285C29.754,91.172,29.5,90.658,29.24,90.144Zm6.682-60.134c.514-.514,1.028-.771,1.542-1.285a3.548,3.548,0,0,1,1.028-.771,10.88,10.88,0,0,1,1.8-1.285c.257-.257.514-.257.771-.514a10.417,10.417,0,0,1,2.313-1.285.252.252,0,0,0,.257-.257c1.028-.514,1.8-.771,2.827-1.285.257-.257.514-.257,1.028-.257.771-.257,1.285-.514,2.056-.771.257,0,.771-.257,1.028-.257a4.841,4.841,0,0,1,2.056-.514c.257,0,.771-.257,1.028-.257h.514c0,.257.257.257.257.514a.9.9,0,0,0,.257.514c.257.257.514.771.771,1.028,0,.257.257.257.257.514.257.514.771.771,1.028,1.285.257.257.257.257.514.257a3.547,3.547,0,0,0,1.028.771c.257,0,.257.257.514.257.257.257.514.257,1.028.514a.9.9,0,0,1,.514.257c.257,0,.514.257.771.257v5.4H59.821c-.771,0-1.285.257-1.8.257-.257,0-.771.257-1.028.257a16.379,16.379,0,0,1-1.8.514c-.257,0-.771.257-1.028.257-.514.257-1.028.257-1.542.514-.257.257-.771.257-1.028.514l-1.542.771c-.257.257-.771.257-1.028.514a5.376,5.376,0,0,0-1.542,1.028,1.335,1.335,0,0,1-1.028.514c-.514.257-1.028.771-1.542,1.028-.257.257-.514.514-.771.514a.252.252,0,0,0-.257.257l-8.994-8.994.257-.257C35.408,30.525,35.665,30.268,35.921,30.011Zm62.7,7.452,1.542,2.313c.257.514.514.771.771,1.285.514.771.771,1.285,1.285,2.056l.771,1.542a15.259,15.259,0,0,0,1.028,2.056,3.652,3.652,0,0,1,.514,1.542,17.707,17.707,0,0,0,.771,2.056,16.377,16.377,0,0,1,.514,1.8c.257.771.257,1.542.514,2.313,0,.514.257,1.285.257,1.8,0,.771.257,1.542.257,2.313,0,.514.257,1.285.257,1.8v.771H94.256V59.821c0-.771-.257-1.285-.257-2.056,0-.257-.257-.514-.257-.771-.257-.771-.257-1.285-.514-2.056,0-.257-.257-.771-.257-1.028a3.714,3.714,0,0,1-.514-1.8c-.257-.514-.257-.771-.514-1.285,0-.257-.257-.514-.257-.771-.257-.257-.257-.771-.514-1.028h0a5.617,5.617,0,0,0-.771-1.285,1.335,1.335,0,0,1-.514-1.028,19.615,19.615,0,0,0-2.056-2.827h0l-.257-.257,8.994-8.994a11.176,11.176,0,0,1,1.542,1.8A1.948,1.948,0,0,0,98.625,37.463ZM88.6,69.586c0,.257-.257.514-.257.771a31.44,31.44,0,0,1-2.57,6.168c-.257.257-.257.514-.514.771a19.615,19.615,0,0,1-2.056,2.827h0L72.413,68.815a10.739,10.739,0,0,0,1.028-2.57H89.117A15.04,15.04,0,0,1,88.6,69.586ZM77.3,85.262a5.618,5.618,0,0,0-1.285.771c-.257.257-.514.257-.771.514-.514.257-.771.514-1.285.514-.257,0-.514.257-.771.257-.514.257-.771.257-1.285.514-.257,0-.514.257-1.028.257a2.794,2.794,0,0,1-1.285.257c-.257,0-.514.257-1.028.257s-1.028.257-1.542.257H66.5V73.184c.257,0,.514,0,.514-.257.257,0,.257,0,.514-.257.257,0,.514-.257.771-.257s.514-.257.771-.257l11.05,11.05c-.514.514-1.285,1.028-1.8,1.542C77.809,85,77.552,85.262,77.3,85.262ZM39.776,73.184a3.714,3.714,0,0,1-.514-1.8.9.9,0,0,0-.257-.514c-.257-.514-.257-1.285-.514-1.8v-.514a7.115,7.115,0,0,1-.257-2.313H53.91a.252.252,0,0,0,.257.257c0,.514.257.771.514,1.285,0,.257.257.514.257.771s.257.257.257.514l-11.05,11.05-.257-.257c-.257-.514-.771-.771-1.028-1.285-.257-.257-.257-.514-.514-.771-.257-.514-.514-.771-.771-1.285-.257-.257-.257-.514-.514-.771l-.771-1.542C40.033,73.7,40.033,73.441,39.776,73.184Zm9.508-30.838c.257-.257.514-.257.514-.514a5.618,5.618,0,0,0,1.285-.771c.257-.257.514-.257.771-.514.514-.257.771-.514,1.285-.514.257,0,.514-.257.771-.257.514-.257.771-.257,1.285-.514.257,0,.514-.257,1.028-.257a3.259,3.259,0,0,1,1.542-.257c.257,0,.514-.257.771-.257.514,0,1.028-.257,1.542-.257h.514V53.91a7.7,7.7,0,0,0-2.57,1.028l-11.05-11.05A8.968,8.968,0,0,0,49.284,42.346Zm25.7-20.815c.514.257,1.285.257,1.8.514s.771.257,1.285.514,1.285.514,1.8.771.771.257,1.285.514a12.529,12.529,0,0,0,1.8.771c.514.257.771.514,1.285.514a5.376,5.376,0,0,1,1.542,1.028c.257.257.771.514,1.028.771.514.257,1.028.771,1.542,1.028.257.257.771.514,1.028.771a10.88,10.88,0,0,0,1.8,1.285l.771.771.514.514L83.463,40.29l-.257-.257h0a.252.252,0,0,1-.257-.257,7.81,7.81,0,0,0-1.8-1.285c-.257-.257-.514-.257-.771-.514s-.514-.257-.771-.514-.514-.257-.771-.514a1.948,1.948,0,0,0-1.028-.514c-.257,0-.514-.257-.771-.257s-.514-.257-.771-.257a12.528,12.528,0,0,0-1.8-.771c-.514-.257-.771-.257-1.285-.514a6.048,6.048,0,0,0-2.056-.514c-.514,0-.771-.257-1.285-.257a6.386,6.386,0,0,0-2.056-.257,1.545,1.545,0,0,1-1.028-.257h-.771V27.7c.257,0,.514-.257.771-.257a.9.9,0,0,0,.514-.257c.257-.257.771-.257,1.028-.514.257,0,.257-.257.514-.257.257-.257.771-.514,1.028-.771.257,0,.257-.257.514-.257A4.512,4.512,0,0,0,71.385,24.1a.252.252,0,0,1,.257-.257c.257-.514.514-.771.771-1.285,0-.257.257-.257.257-.514s.257-.514.257-.771h.514A9.088,9.088,0,0,1,74.983,21.531ZM87.832,54.938c0,.257.257.514.257.771.257.514.257,1.028.514,1.542,0,.257.257.771.257,1.028,0,.514.257,1.028.257,1.8v1.028H73.441a1.963,1.963,0,0,0-.514-1.285v-.257c-.257-.514-.257-.771-.514-1.285l11.05-11.05c0,.257.257.257.257.514a5.606,5.606,0,0,0,1.028,1.285c.257.514.514.771.771,1.285l.771,1.542c0,.257.257.257.257.514A7.933,7.933,0,0,1,87.832,54.938ZM59.821,89.117c-.514,0-1.028-.257-1.542-.257-.257,0-.771-.257-1.028-.257-.514-.257-1.028-.257-1.542-.514a1.948,1.948,0,0,1-1.028-.514,3.653,3.653,0,0,0-1.542-.514c-.257-.257-.771-.257-1.028-.514-.514-.257-.771-.514-1.285-.771a1.948,1.948,0,0,0-1.028-.514c-.257,0-.257-.257-.514-.257a11.178,11.178,0,0,1-1.8-1.542l11.05-11.05c.257,0,.257.257.514.257a.252.252,0,0,1,.257.257c.514.257,1.285.514,1.8.771V89.374h-.257C60.592,89.117,60.335,89.117,59.821,89.117Zm7.452-50.882c.514,0,1.285.257,1.8.257.257,0,.771.257,1.028.257.514.257,1.028.257,1.542.514.514,0,.771.257,1.285.514s.771.257,1.285.514A4.342,4.342,0,0,0,75.5,40.8c.257.257.514.257.771.514.514.257.771.514,1.285.771.257.257.514.257.771.514.514.257,1.028.771,1.542,1.028l.257.257L68.815,54.938a.252.252,0,0,1-.257-.257c-.257,0-.257-.257-.514-.257-.257-.257-.771-.257-1.285-.514-.257,0-.257,0-.514-.257h-.257V37.977h.257A1.943,1.943,0,0,0,67.273,38.234ZM43.888,87.318l.257.257,2.313,1.542c.257.257.514.257.771.514s.514.257.771.514a.9.9,0,0,1,.514.257l1.542.771c.257,0,.257.257.514.257a.9.9,0,0,1,.514.257c.771.257,1.285.514,2.056.771.257.257.771.257,1.028.514a6.048,6.048,0,0,0,2.056.514c.514,0,.771.257,1.285.257A5.658,5.658,0,0,0,59.564,94a1.545,1.545,0,0,1,1.028.257h.771v12.849a42.894,42.894,0,0,1-26.469-11.05ZM96.312,27.441a6.814,6.814,0,0,0-1.542-1.285L94,25.385c-.514-.514-1.285-1.028-1.8-1.542-.257-.257-.771-.514-1.028-.771-.514-.514-1.285-.771-1.8-1.285-.514-.257-.771-.514-1.285-.771s-1.285-.771-1.8-1.028-.771-.514-1.285-.514c-.514-.257-1.285-.514-1.8-.771s-1.028-.257-1.285-.514c-.514-.257-1.285-.514-1.8-.771-1.028,0-1.542-.257-2.056-.257-.514-.257-1.285-.257-1.8-.514a3.259,3.259,0,0,0-1.542-.257c-.257,0-.514-.257-.771-.257v-.257a.944.944,0,0,0-.257-.771c0-.257-.257-.771-.257-1.028s-.257-.514-.257-.771c-.257-.257-.257-.514-.514-.771s-.257-.514-.514-.771-.514-.514-.514-.771l-.771-.771c-.257-.257-.514-.514-.771-.514-.257-.257-.514-.257-.771-.514s-.514-.257-1.028-.514c-.257,0-.514-.257-.771-.257a1.926,1.926,0,0,0-1.285-.257h0V7.14a55.556,55.556,0,0,1,35.463,14.648ZM31.039,99.91A50.182,50.182,0,0,0,61.106,112.5v7.709a55,55,0,0,1-35.463-14.648Zm81.463-38.8V59.821a5.658,5.658,0,0,0-.257-2.056c0-.771-.257-1.8-.257-2.57a6.048,6.048,0,0,0-.514-2.056,7.6,7.6,0,0,1-.514-2.57c-.257-.771-.257-1.285-.514-2.056l-.771-2.313c-.257-.514-.514-1.285-.771-1.8-.257-.771-.771-1.542-1.028-2.313-.257-.514-.514-1.285-.771-1.8a10.416,10.416,0,0,1-1.285-2.313c-.257-.514-.771-1.028-1.028-1.542-.514-.771-1.285-1.542-1.8-2.313a4.511,4.511,0,0,0-1.028-1.285L100.424,31.3l5.4-5.4a57.706,57.706,0,0,1,14.391,35.206ZM61.106,7.14h0V7.4c-.514,0-.771.257-1.285.257-.257,0-.514.257-.771.257-.257.257-.514.257-1.028.514-.257.257-.514.257-.771.514s-.514.514-.771.514c-.257.257-.514.514-.514.771-.257.257-.514.514-.514.771-.257.257-.257.514-.514.771s-.257.514-.514.771c0,.257-.257.514-.257.771a1.545,1.545,0,0,0-.257,1.028c0,.257-.257.514-.257.771v.257c-.257,0-.771.257-1.028.257-.514,0-.771.257-1.285.257a7.5,7.5,0,0,1-2.313.514,1.311,1.311,0,0,1-1.285,1.028l-2.313.771c-.257,0-.514.257-.771.257l-3.084,1.542c-.257,0-.514.257-.771.257-.771.514-1.542.771-2.313,1.285a4.512,4.512,0,0,1-1.285,1.028c-.514.514-1.285.771-1.8,1.285-.257.257-.771.514-1.028.771a7.809,7.809,0,0,1-1.8,1.285c-.257.257-.771.514-1.028.771l-.514.514-5.4-5.4A57.807,57.807,0,0,1,61.106,7.14ZM7.14,66.245h7.709v1.028a5.658,5.658,0,0,0,.257,2.056c0,.771.257,1.542.257,2.57,0,.771.257,1.285.257,2.056.257.771.257,1.542.514,2.313.257.514.257,1.285.514,1.8a7.932,7.932,0,0,1,1.285,2.57c.257.514.514,1.285.771,1.8.257.771.771,1.542,1.028,2.313L20.5,86.29A10.416,10.416,0,0,1,21.788,88.6l.771,1.542c.514.771,1.285,1.8,1.8,2.57.257.514.514.771.771,1.285a16.626,16.626,0,0,0,2.056,2.313l-5.4,5.4A58.428,58.428,0,0,1,7.14,66.245Zm59.106,53.966V112.5h2.313c.771,0,1.542-.257,2.57-.257a11.131,11.131,0,0,0,1.285-.257c.771-.257,1.542-.257,2.313-.514.514,0,1.028-.257,1.542-.257.771-.257,1.285-.257,2.056-.514.514-.257,1.028-.257,1.542-.514.771-.257,1.285-.514,2.056-.771a3.653,3.653,0,0,1,1.542-.514,12.531,12.531,0,0,0,1.8-.771,5.617,5.617,0,0,0,1.285-.771c.514-.257,1.285-.771,1.8-1.028s.771-.514,1.285-.771c.257-.257.514-.257.771-.514a.252.252,0,0,1,.257.257c.257.257.514.514.771.514h0a9.484,9.484,0,0,0,5.911,1.8H97.6a3.259,3.259,0,0,0,1.542-.257h.514a.944.944,0,0,0,.771-.257A59.9,59.9,0,0,1,66.245,120.211Zm49.6-34.692a63.335,63.335,0,0,1-8.737,14.391.944.944,0,0,1,.257-.771v-.514c0-.514.257-1.285.257-1.8h0a5.017,5.017,0,0,0-.257-1.8v-.514a3.652,3.652,0,0,0-.514-1.542h0l-.771-1.542-.257-.257a4.511,4.511,0,0,0-1.028-1.285h0a13.846,13.846,0,0,0,1.8-3.341c.257-.257.257-.514.514-.771.514-1.028,1.028-2.313,1.542-3.341.514-1.285,1.028-2.827,1.542-4.369.257-.514.257-1.028.514-1.542l.771-3.084c0-.514.257-1.028.257-1.8.257-1.028.257-1.8.514-2.827a4.373,4.373,0,0,1,.257-1.8V65.731h7.709A54.419,54.419,0,0,1,115.843,85.519Z" transform="translate(-2 -2)"/></g></g></svg>