<svg xmlns="http://www.w3.org/2000/svg" width="17" height="17" viewBox="0 0 17 17"><defs><style>.a{fill:#2588f2;}</style></defs><g transform="translate(-0.01 -0.01)"><g transform="translate(0.009 0.01)"><path class="a" d="M14.509,2.489a8.5,8.5,0,1,0,2.5,6.021,8.5,8.5,0,0,0-2.5-6.021ZM3.495,3.495a7.083,7.083,0,0,1,9.492-.475L3.02,12.987a7.083,7.083,0,0,1,.475-9.492ZM13.511,13.511a7.083,7.083,0,0,1-9.492.475l9.966-9.966A7.083,7.083,0,0,1,13.511,13.511Z" transform="translate(-0.009 -0.01)"/></g></g></svg>