<?xml version="1.0" encoding="utf-8"?>
<!-- Generator: Adobe Illustrator 16.0.0, SVG Export Plug-In . SVG Version: 6.00 Build 0)  -->
<!DOCTYPE svg PUBLIC "-//W3C//DTD SVG 1.1//EN" "http://www.w3.org/Graphics/SVG/1.1/DTD/svg11.dtd">
<svg version="1.1" id="Layer_1" xmlns="http://www.w3.org/2000/svg" xmlns:xlink="http://www.w3.org/1999/xlink" x="0px" y="0px"
	 width="23.333px" height="23.209px" viewBox="5.458 5.041 23.333 23.209" enable-background="new 5.458 5.041 23.333 23.209"
	 xml:space="preserve">
<g transform="translate(-15556.93 -4010.045)">
	<rect x="15556.93" y="4010.185" display="none" width="33" height="33"/>
	<path fill="#1445F5" d="M15563.688,4025.526l0.159-0.01l8.941,0.005l0.001-8.948c0.004-0.706,0.58-1.274,1.286-1.271
		c0.638,0.004,1.175,0.478,1.259,1.11l0.01,0.16l-0.002,8.941l8.943,0c0.706,0.004,1.275,0.58,1.271,1.286
		c-0.004,0.638-0.479,1.175-1.11,1.259l-0.16,0.01l-8.944,0.006l0.003,8.941c-0.004,0.705-0.579,1.273-1.285,1.27
		c-0.638-0.004-1.176-0.477-1.259-1.109l-0.011-0.16l-0.002-8.949l-8.941,0.006c-0.706-0.002-1.276-0.576-1.274-1.281
		C15562.573,4026.149,15563.051,4025.608,15563.688,4025.526z"/>
</g>
</svg>
