<svg xmlns="http://www.w3.org/2000/svg" width="27.252" height="27.252" viewBox="0 0 27.252 27.252"><defs><style>.a{fill:#1fb904;}</style></defs><g transform="translate(-4.2 -4.1)"><g transform="translate(4.2 4.1)"><path class="a" d="M17.811,31.352h0a13.626,13.626,0,1,1,0-27.252h0a13.118,13.118,0,0,1,5.528,1.189,1.237,1.237,0,0,1-1.01,2.259A10.818,10.818,0,0,0,17.811,6.6h0a11.145,11.145,0,0,0,0,22.289h0A11.149,11.149,0,0,0,28.956,17.741V16.612a1.248,1.248,0,1,1,2.5,0v1.129A13.654,13.654,0,0,1,17.811,31.352Z" transform="translate(-4.2 -4.1)"/></g><g transform="translate(12.878 6.596)"><path class="a" d="M38.333,27.359A1.143,1.143,0,0,1,37.471,27l-3.715-3.715a1.24,1.24,0,0,1,1.753-1.753l2.853,2.853,11.5-11.531a1.24,1.24,0,1,1,1.753,1.753L39.2,27a1.143,1.143,0,0,1-.862.357Z" transform="translate(-33.4 -12.5)"/></g></g></svg>