<svg xmlns="http://www.w3.org/2000/svg" width="623.742" height="582.316" viewBox="0 0 623.742 582.316"><defs><style>.a{fill:#ff8548;}.b{fill:#66192d;}.c{fill:#553e93;}.d{fill:#ffba41;}.e{fill:#f18c7e;}.f{fill:#ff443c;}.g{fill:#fdad9b;}.h{fill:#786ab5;}.i{fill:#f22525;}</style></defs><g transform="translate(-1659.259 -524.155)"><g transform="translate(1659.259 524.155)"><g transform="translate(125.614 29.712)"><g transform="translate(5.471)"><path class="a" d="M2035.995,715.005s-5.967-16.484.989-27.808,31.964-27.4,24.908-41.3-25.26-13.384-31.546-5.391-1.3,15.094-6.042,16.666-32.825,6.52-32.819-9.958,15.2-41.379,39.213-45.212,56.118-7.608,67.088,22.906.657,44.369-15.361,54.649-5.738,27.682-11.6,31S2037.429,720.392,2035.995,715.005Z" transform="translate(-1991.485 -599.459)"/><g transform="translate(42.445 123.865)"><path class="a" d="M2099.061,937.438c.194-13.228,6.753-22.3,18.406-23.791s22.122,3.267,26.969,17.887c3.7,11.15-9.931,22.823-21.583,24.31S2098.888,949.184,2099.061,937.438Z" transform="translate(-2099.059 -913.387)"/></g></g><g transform="translate(0 1.879)"><path class="b" d="M2084.227,629.776c-4.908-13.656-14.319-21.65-28.771-24.435-12.35-2.383-26.345-.513-38.49,1.424a41.5,41.5,0,0,0-4.316.931c-21.808,5.97-35.026,29.1-35.03,44.44a10.063,10.063,0,0,0,4.218,8.645c4.316,3.117,11.127,3.551,16.082,3.366a54.96,54.96,0,0,0,12.725-1.9,3.091,3.091,0,0,0,1.768-1.341,9.15,9.15,0,0,0,.761-4.2c.13-3.109.288-6.98,3.591-11.178a15.067,15.067,0,0,1,8.392-4.991,21.089,21.089,0,0,1,6.96-.462,19.687,19.687,0,0,1,15.924,10.819c4.822,9.5-5.568,20.1-14.733,29.45-4.119,4.2-8.01,8.175-10.168,11.691-6.861,11.17-1.152,27.525-1.006,27.939a2.4,2.4,0,0,0,1.543,1.507,12.848,12.848,0,0,0,4.711.671c8.972,0,24.767-4.246,28.807-6.534a3.122,3.122,0,0,0,.268-.17c2.016-1.393,1.937-4.589,1.835-8.586-.169-6.7-.4-15.889,9.505-22.25,9.505-6.1,15.013-12.212,17.866-19.815C2090.154,655.494,2089.357,644.04,2084.227,629.776Zm2.143,34.911c-2.825,7.536-8.294,13.6-17.74,19.657-10.057,6.459-9.825,15.747-9.651,22.526.1,4.06.186,7.268-1.941,8.471-.378.213-.832.438-1.353.667-5.706,2.521-19.35,5.82-27.3,5.816a12.657,12.657,0,0,1-4.589-.639,2.109,2.109,0,0,1-1.357-1.3l0-.012c-.059-.166-5.859-16.544.974-27.671,2.139-3.484,6.017-7.441,10.125-11.632,9.24-9.43,19.716-20.119,14.788-29.821a19.992,19.992,0,0,0-16.177-10.989c-.722-.071-1.436-.107-2.146-.107a21.157,21.157,0,0,0-3.969.371,15.769,15.769,0,0,0-9.521,5.307c-3.366,4.281-3.536,8.373-3.658,11.363-.075,1.839-.134,3.326-.884,4.293a2.864,2.864,0,0,1-1.424.959,55.084,55.084,0,0,1-12.638,1.882c-4.9.181-11.644-.241-15.881-3.3a9.774,9.774,0,0,1-4.092-8.388c.008-14.717,12.267-36.667,32.638-43.473a39.931,39.931,0,0,1,6.443-1.582c26.866-4.289,56.407-6.416,66.91,22.8C2089.029,644.075,2089.826,655.458,2086.37,664.687Z" transform="translate(-1977.62 -604.22)"/><g transform="translate(42.442 123.864)"><path class="b" d="M2130.874,936.4c-4.4-13.277-14.039-19.669-27.138-18-.651.083-1.286.189-1.909.324a19.359,19.359,0,0,0-11.7,7.228c-3.133,4.127-4.841,9.8-4.94,16.394a17.052,17.052,0,0,0,5.982,13.04,22.925,22.925,0,0,0,15.163,5.705,22.641,22.641,0,0,0,2.829-.177,27.354,27.354,0,0,0,9.252-3.07,28.314,28.314,0,0,0,10.519-9.438C2131.47,944.383,2132.145,940.228,2130.874,936.4Zm-2.209,11.841a28.421,28.421,0,0,1-11.817,10.042,26.152,26.152,0,0,1-7.729,2.316,22.633,22.633,0,0,1-17.74-5.445,16.757,16.757,0,0,1-5.871-12.8c.1-6.53,1.783-12.133,4.876-16.2a18.9,18.9,0,0,1,10.44-6.861,23.384,23.384,0,0,1,2.951-.568,30.859,30.859,0,0,1,3.938-.256c10.925,0,18.967,6.289,22.857,18.036C2131.809,940.236,2131.15,944.3,2128.665,948.245Z" transform="translate(-2085.186 -918.147)"/></g></g></g><g transform="translate(340.443)"><g transform="translate(4.663)"><path class="c" d="M2556.549,613.7s-1.635-14.007,5.9-21.593,30.078-15.568,27.113-27.749-17.315-15.134-23.709-10.033-3.8,11.579-7.8,11.937-26.905-.942-23.864-13.844,19.529-29.6,39.036-28.179,45.345,4.382,48.313,30.3-7.66,34.865-22.1,39.963-9.593,20.62-14.8,22.138S2556.679,618.184,2556.549,613.7Z" transform="translate(-2533.908 -524.155)"/><g transform="translate(14.669 99.169)"><path class="c" d="M2571.479,790.837c2.589-10.322,9.4-16.22,18.8-15.238s16.721,6.634,17.822,18.975c.84,9.412-11.982,16.041-21.38,15.059S2569.179,800,2571.479,790.837Z" transform="translate(-2571.085 -775.493)"/></g></g><g transform="translate(0 0.489)"><path class="b" d="M2609.971,555.888c-1.33-11.6-7.225-19.59-18.031-24.435-9.229-4.139-20.533-5.256-30.4-5.974a32.753,32.753,0,0,0-3.567-.063c-18.17.659-32.777,16.331-35.6,28.342a8.1,8.1,0,0,0,1.712,7.548c5.169,5.958,18.868,6.759,22.289,6.451a2.456,2.456,0,0,0,1.629-.726,7.334,7.334,0,0,0,1.369-3.145c.675-2.411,1.511-5.413,4.869-8.093a12.107,12.107,0,0,1,7.5-2.363,16.947,16.947,0,0,1,5.528.923,15.825,15.825,0,0,1,10.476,11.4c2.028,8.325-8.061,14.713-16.962,20.348-4,2.533-7.777,4.924-10.117,7.28-3.914,3.946-5.323,9.635-5.808,13.719a37.954,37.954,0,0,0-.127,7.974,1.931,1.931,0,0,0,.932,1.464c2.517,1.835,9.686,2.505,16.173,2.505,4.833,0,9.288-.375,11.15-.919a2.278,2.278,0,0,0,.233-.083c1.847-.714,2.371-3.231,3.03-6.384,1.1-5.283,2.612-12.519,11.541-15.672,8.566-3.026,14.007-6.794,17.641-12.224C2609.873,577.12,2611.36,568,2609.971,555.888Zm-4.755,27.73c-3.6,5.382-9,9.122-17.514,12.129-9.067,3.2-10.594,10.515-11.707,15.857-.667,3.2-1.2,5.725-3.081,6.278a11.885,11.885,0,0,1-1.192.272c-6.131,1.144-22.072.975-25.911-1.819a1.693,1.693,0,0,1-.825-1.271v-.012a37.733,37.733,0,0,1,.122-7.923c.485-4.04,1.874-9.671,5.737-13.565,2.32-2.336,6.088-4.719,10.073-7.244,8.972-5.682,19.144-12.121,17.077-20.624a16.093,16.093,0,0,0-10.645-11.588,17.206,17.206,0,0,0-4.833-.919c-.237-.012-.469-.016-.7-.016a12.4,12.4,0,0,0-7.734,2.419,14.344,14.344,0,0,0-4.959,8.223c-.4,1.428-.722,2.584-1.488,3.2a2.291,2.291,0,0,1-1.286.485c-3.39.3-16.97-.477-22.072-6.364a7.868,7.868,0,0,1-1.657-7.323c2.711-11.513,16.339-26.432,33.53-28.022,0,0,0,0,0,0a32,32,0,0,1,5.366-.055c21.831,1.59,45.355,5.366,48.2,30.184C2611.1,567.97,2609.624,577.029,2605.217,583.618Z" transform="translate(-2522.09 -525.394)"/><g transform="translate(14.672 99.176)"><path class="b" d="M2596.539,795.941c-1-11.21-7.37-17.988-17.937-19.093-.532-.055-1.053-.087-1.57-.095,0,0,0,0,0,0-8.436-.189-14.863,5.477-17.361,15.431a13.717,13.717,0,0,0,2.281,11.312,18.341,18.341,0,0,0,15.013,7.741,23.9,23.9,0,0,0,15.845-6.25C2595.537,802.3,2596.827,799.168,2596.539,795.941Zm-3.914,8.866a22.892,22.892,0,0,1-11.1,5.682,21.074,21.074,0,0,1-6.482.395,18.211,18.211,0,0,1-12.886-7.532,13.48,13.48,0,0,1-2.241-11.107c1.278-5.094,3.63-9.17,6.8-11.79a15.151,15.151,0,0,1,9.418-3.441c.158-.008.324-.012.486-.012a18.191,18.191,0,0,1,1.953.1c10.432,1.089,16.722,7.789,17.708,18.856A10.955,10.955,0,0,1,2592.625,804.807Z" transform="translate(-2559.274 -776.748)"/></g></g></g><g transform="translate(441.264 118.759)"><g transform="translate(4.695)"><path class="d" d="M2807.78,913.481s-.6-14.09,7.469-21.1,31.141-13.314,29.079-25.681-16.155-16.366-22.908-11.749-4.641,11.269-8.658,11.332-26.763-2.917-22.782-15.561,21.652-28.085,41-25.233,44.9,7.7,45.956,33.766-10.2,34.207-24.975,38.231-11.083,19.858-16.383,20.99S2807.58,917.961,2807.78,913.481Z" transform="translate(-2789.515 -825.143)"/><g transform="translate(8.212 98.564)"><path class="d" d="M2810.986,1089.064c3.341-10.1,10.565-15.486,19.865-13.816s16.188,7.845,16.379,20.234c.146,9.449-13.128,15.118-22.429,13.447S2808.02,1098.036,2810.986,1089.064Z" transform="translate(-2810.327 -1074.948)"/></g></g><g transform="translate(0 0.148)"><path class="b" d="M2865.294,859.756c-.473-11.663-5.769-20.068-16.185-25.694-8.9-4.806-20.091-6.751-29.88-8.191a33.318,33.318,0,0,0-3.508-.327c-18.189-.7-33.929,13.873-37.634,25.647a8.1,8.1,0,0,0,1.152,7.654c4.715,6.325,18.327,8.132,21.752,8.073a2.474,2.474,0,0,0,1.681-.6,7.36,7.36,0,0,0,1.594-3.034c.852-2.355,1.906-5.287,5.453-7.714a12.132,12.132,0,0,1,7.655-1.807,16.971,16.971,0,0,1,5.445,1.326,15.833,15.833,0,0,1,9.607,12.145c1.413,8.452-9.118,14.082-18.41,19.046-4.174,2.233-8.12,4.34-10.626,6.518-4.194,3.646-6.013,9.217-6.8,13.253a38.257,38.257,0,0,0-.71,7.943,1.934,1.934,0,0,0,.821,1.531c3.18,2.691,14.823,3.926,22.087,3.926a27.847,27.847,0,0,0,5.047-.335,2.064,2.064,0,0,0,.237-.063c1.894-.58,2.6-3.054,3.492-6.147,1.488-5.189,3.523-12.295,12.662-14.784,8.767-2.387,14.469-5.745,18.489-10.894C2863.636,880.924,2865.787,871.94,2865.294,859.756Zm-6.783,27.308c-3.985,5.1-9.647,8.436-18.355,10.807-9.276,2.525-11.34,9.71-12.843,14.958-.9,3.141-1.61,5.619-3.531,6.029a12.341,12.341,0,0,1-1.227.189c-6.214.683-22.072-.659-25.69-3.725a1.683,1.683,0,0,1-.73-1.326v-.012a38.075,38.075,0,0,1,.706-7.9c.781-3.993,2.581-9.5,6.719-13.1,2.486-2.158,6.416-4.257,10.578-6.483,9.367-5.007,19.985-10.681,18.544-19.318a16.09,16.09,0,0,0-9.766-12.334,17.107,17.107,0,0,0-4.762-1.274h0a15.248,15.248,0,0,0-1.835-.111,11.964,11.964,0,0,0-6.743,1.886,14.36,14.36,0,0,0-5.547,7.84c-.5,1.393-.907,2.517-1.716,3.078a2.291,2.291,0,0,1-1.322.391c-3.413.059-16.887-1.724-21.543-7.97a7.851,7.851,0,0,1-1.113-7.422c3.555-11.292,18.264-25.185,35.547-25.485a32.328,32.328,0,0,1,5.311.339c21.654,3.192,44.838,8.688,45.848,33.645C2865.526,871.888,2863.392,880.817,2858.511,887.063Z" transform="translate(-2777.616 -825.519)"/><g transform="translate(8.214 98.574)"><path class="b" d="M2819.1,1075.646c-.521-.091-1.034-.162-1.543-.213-8.408-.813-15.238,4.364-18.466,14.118a13.722,13.722,0,0,0,1.44,11.45,18.492,18.492,0,0,0,12.472,8.582,20.04,20.04,0,0,0,3.469.3,23.859,23.859,0,0,0,4.368-.414,22.815,22.815,0,0,0,10.357-4.707c2.92-2.482,4.439-5.508,4.388-8.752C2835.414,1084.756,2829.563,1077.524,2819.1,1075.646Zm11.932,28.914a22.888,22.888,0,0,1-11.51,4.853,21,21,0,0,1-6.471-.083,18.214,18.214,0,0,1-12.3-8.463,14.1,14.1,0,0,1-2.063-7.221,12.728,12.728,0,0,1,.647-4.017c1.649-4.987,4.293-8.882,7.651-11.257a15.071,15.071,0,0,1,8.85-2.766c.272,0,.544.008.821.02a19.61,19.61,0,0,1,2.4.272c10.322,1.854,16.1,9,16.272,20.111C2835.383,1099.173,2833.9,1102.129,2831.035,1104.559Z" transform="translate(-2798.433 -1075.349)"/></g></g></g><g transform="translate(506.334 19.286)"><g transform="translate(2.839)"><path class="a" d="M2960.772,626.455s-.364-8.52,4.516-12.76,18.832-8.051,17.585-15.53-9.769-9.9-13.853-7.1-2.807,6.815-5.235,6.852-16.184-1.764-13.777-9.41,13.093-16.984,24.794-15.259,27.152,4.658,27.79,20.419-6.169,20.685-15.1,23.119-6.7,12.009-9.907,12.694S2960.652,629.164,2960.772,626.455Z" transform="translate(-2949.728 -573.035)"/><g transform="translate(4.965 59.604)"><path class="a" d="M2962.71,732.634c2.021-6.11,6.389-9.365,12.013-8.355s9.789,4.744,9.9,12.236c.088,5.714-7.939,9.142-13.564,8.132S2960.916,738.059,2962.71,732.634Z" transform="translate(-2962.312 -724.097)"/></g></g><g transform="translate(0 0.092)"><path class="b" d="M2995.553,593.971c-.288-7.055-3.488-12.137-9.789-15.538-5.382-2.908-12.149-4.084-18.067-4.956a20.306,20.306,0,0,0-2.162-.2h0c-10.981-.395-20.474,8.4-22.715,15.51a4.9,4.9,0,0,0,.7,4.628c2.853,3.823,11.087,4.916,13.155,4.881a1.464,1.464,0,0,0,1.014-.367,4.433,4.433,0,0,0,.967-1.835,8.439,8.439,0,0,1,3.295-4.664,7.336,7.336,0,0,1,4.628-1.089,10.215,10.215,0,0,1,3.295.8,9.577,9.577,0,0,1,5.812,7.343c.853,5.11-5.515,8.515-11.134,11.517a37.565,37.565,0,0,0-6.424,3.942c-2.537,2.2-3.638,5.575-4.115,8.014a23.115,23.115,0,0,0-.43,4.806,1.171,1.171,0,0,0,.5.923c1.922,1.63,8.965,2.375,13.356,2.375a16.779,16.779,0,0,0,3.054-.205,1.369,1.369,0,0,0,.138-.039c1.144-.343,1.574-1.843,2.115-3.717.9-3.137,2.131-7.434,7.658-8.937,5.3-1.444,8.747-3.476,11.178-6.589C2994.551,606.771,2995.848,601.338,2995.553,593.971Zm-4.1,16.513c-2.407,3.086-5.832,5.1-11.1,6.534-5.611,1.527-6.857,5.871-7.765,9.043-.545,1.9-.975,3.4-2.139,3.65a7.079,7.079,0,0,1-.73.11c-3.748.418-13.352-.395-15.546-2.249a1.031,1.031,0,0,1-.442-.8v0a23.008,23.008,0,0,1,.43-4.778c.469-2.411,1.559-5.745,4.06-7.923a38.018,38.018,0,0,1,6.4-3.918c5.666-3.03,12.085-6.459,11.218-11.683a9.725,9.725,0,0,0-5.907-7.457,10.4,10.4,0,0,0-2.88-.769,9.665,9.665,0,0,0-1.113-.067,7.221,7.221,0,0,0-4.076,1.14,8.67,8.67,0,0,0-3.354,4.739,3.8,3.8,0,0,1-1.034,1.862,1.409,1.409,0,0,1-.8.237h-.091c-2.2,0-10.16-1.1-12.938-4.822a4.748,4.748,0,0,1-.671-4.486c2.146-6.826,11.024-15.211,21.457-15.408a18.906,18.906,0,0,1,3.251.2c13.092,1.929,27.115,5.252,27.722,20.344C2995.695,601.306,2994.4,606.7,2991.449,610.484Z" transform="translate(-2942.532 -573.268)"/><g transform="translate(4.967 59.608)"><path class="b" d="M2967.62,724.522c-.312-.055-.624-.1-.927-.13-5.086-.493-9.225,2.636-11.174,8.534a8.311,8.311,0,0,0,.872,6.925,11.174,11.174,0,0,0,7.544,5.188,11.785,11.785,0,0,0,2.1.182,14.171,14.171,0,0,0,2.624-.253,13.744,13.744,0,0,0,6.281-2.845,6.78,6.78,0,0,0,2.656-5.291C2977.484,730.031,2973.945,725.655,2967.62,724.522Zm7.217,17.483a13.843,13.843,0,0,1-6.952,2.932,12.777,12.777,0,0,1-3.922-.047,11.022,11.022,0,0,1-7.438-5.117,8.148,8.148,0,0,1-.856-6.794,13.226,13.226,0,0,1,4.624-6.81,9.115,9.115,0,0,1,5.354-1.673c.166,0,.335,0,.5.012a11.391,11.391,0,0,1,1.444.166c6.242,1.121,9.738,5.441,9.84,12.16A6.622,6.622,0,0,1,2974.837,742.006Z" transform="translate(-2955.12 -724.342)"/></g></g></g><g transform="translate(120.999 242.456)"><g transform="translate(3.251)"><path class="d" d="M2016.1,1219.934s-6.822-9.816-4.224-18.5,16.257-23.659,9.17-31.578-18.991-4.389-21.731,1.979,1.788,10.174-1.059,12.041-20.486,10.051-23.371-.807,2.762-29.93,17.91-36.666,35.642-14.853,48.221,3.329,8.213,29.12-.539,38.7,1.073,19.245-2.208,22.461S2017.993,1223.232,2016.1,1219.934Z" transform="translate(-1974.163 -1138.645)"/><g transform="translate(45.523 82.605)"><path class="d" d="M2090.272,1368.376c-2.191-8.75.54-15.88,7.957-18.9s15.149-1.727,20.906,7.057c4.39,6.7-2.542,16.779-9.959,19.8S2092.218,1376.146,2090.272,1368.376Z" transform="translate(-2089.538 -1348.001)"/></g></g><g transform="translate(0 2.163)"><path class="b" d="M2032.978,1155.267c-5.63-8.136-13.23-11.75-23.244-11.056-8.554.6-17.448,4.281-25.11,7.69a27.555,27.555,0,0,0-2.7,1.385c-13.313,7.761-17.957,25.307-15.274,35.408a6.868,6.868,0,0,0,4.3,4.956c3.385,1.3,7.95.391,11.182-.6a37.673,37.673,0,0,0,8.053-3.488,2.111,2.111,0,0,0,.927-1.192,6.255,6.255,0,0,0-.233-2.9,11.8,11.8,0,0,1,.406-7.994,10.242,10.242,0,0,1,4.656-4.758,14.418,14.418,0,0,1,4.5-1.527,13.4,13.4,0,0,1,12.389,4.336c4.845,5.41-.142,14.216-4.542,21.989-1.977,3.492-3.843,6.787-4.652,9.485-2.561,8.562,4.068,18.339,4.237,18.584a1.641,1.641,0,0,0,1.282.722,4.3,4.3,0,0,0,.568.036c2.943,0,8.274-2.482,10.539-3.6,4.285-2.127,8.471-4.723,9.947-6.171a1.787,1.787,0,0,0,.142-.158c1.089-1.275.477-3.366-.292-5.982-1.286-4.387-3.05-10.4,2.363-16.327,5.193-5.686,7.753-10.677,8.3-16.189C2041.39,1171.176,2038.857,1163.766,2032.978,1155.267Zm7.532,22.628c-.54,5.461-3.082,10.413-8.243,16.063-5.5,6.017-3.713,12.1-2.411,16.536.781,2.655,1.4,4.755.209,5.918a9.793,9.793,0,0,1-.817.706,59.371,59.371,0,0,1-9.075,5.425c-5.078,2.521-9.083,3.816-10.984,3.547a1.437,1.437,0,0,1-1.125-.615l0-.012c-.067-.095-6.763-9.872-4.21-18.4.8-2.671,2.663-5.958,4.632-9.438,4.435-7.836,9.462-16.714,4.514-22.241a13.55,13.55,0,0,0-10.215-4.6,14.714,14.714,0,0,0-2.371.2,14.55,14.55,0,0,0-3.985,1.247,10.734,10.734,0,0,0-5.339,5.165,12.159,12.159,0,0,0-.418,8.128,5.261,5.261,0,0,1,.17,2.983,1.943,1.943,0,0,1-.769.88,37.243,37.243,0,0,1-8,3.46c-3.2.978-7.714,1.882-11.044.608a6.663,6.663,0,0,1-4.163-4.81c-2.58-9.7,1.653-26.329,13.9-34.382a27.483,27.483,0,0,1,3.946-2.158c16.951-7.536,36.044-14.118,48.09,3.295C2038.648,1163.849,2041.169,1171.208,2040.51,1177.9Z" transform="translate(-1965.923 -1144.128)"/><g transform="translate(45.528 82.613)"><path class="b" d="M2111.1,1362.077c-5.228-7.974-12.7-10.5-21.038-7.1-.41.17-.813.351-1.2.544-4.912,2.482-7.556,7.079-7.556,12.906a23.06,23.06,0,0,0,.73,5.579,11.635,11.635,0,0,0,6.226,7.544,15.389,15.389,0,0,0,6.937,1.63,15.609,15.609,0,0,0,5.891-1.144,18.528,18.528,0,0,0,5.54-3.626,0,0,0,0,0,0,0,19.287,19.287,0,0,0,5.291-8.077A9.482,9.482,0,0,0,2111.1,1362.077Zm.62,8.191a19.349,19.349,0,0,1-6.033,8.692,17.779,17.779,0,0,1-4.676,2.876,15.443,15.443,0,0,1-12.646-.478,11.425,11.425,0,0,1-6.112-7.4,18.568,18.568,0,0,1,.371-11.533,12.877,12.877,0,0,1,5.67-6.349,16.034,16.034,0,0,1,1.851-.9c8.23-3.354,15.609-.864,20.774,7.015A9.272,9.272,0,0,1,2111.719,1370.268Z" transform="translate(-2081.31 -1353.505)"/></g></g></g><g transform="translate(534.533 294.928)"><g transform="translate(2.633 1.153)"><g transform="translate(13.766)"><path class="a" d="M3055.662,1319.739s3.429-7.808,9.678-9.464,20.453,1.072,22.629-6.191-4.408-13.19-9.3-12.483-5.523,4.88-7.719,3.844-13.751-8.716-8.22-14.518,19.238-9.475,28.981-2.77,22.32,16.148,15.948,30.576-14.654,15.85-23.746,14.1-11.308,7.826-14.487,7.028S3054.36,1322.118,3055.662,1319.739Z" transform="translate(-3055.563 -1274.556)"/></g><g transform="translate(0 51.678)"><path class="a" d="M3022.952,1409.747c4.506-4.594,9.862-5.591,14.466-2.205s6.7,8.573,3.5,15.349c-2.438,5.167-11.155,4.707-15.759,1.322S3018.951,1413.826,3022.952,1409.747Z" transform="translate(-3020.674 -1405.532)"/></g></g><g transform="translate(13.767)"><path class="b" d="M3099.194,1287.671c-3.552-4.984-9.107-9.021-14.038-12.411a19.5,19.5,0,0,0-1.84-1.121c-9.681-5.211-22.1-1.5-27.239,3.9a4.888,4.888,0,0,0-1.412,4.46c.872,4.692,7.777,9.3,9.655,10.182a1.484,1.484,0,0,0,1.075.118,4.407,4.407,0,0,0,1.673-1.221,8.4,8.4,0,0,1,5.014-2.733,7.327,7.327,0,0,1,4.632,1.06,10.13,10.13,0,0,1,2.6,2.169,9.563,9.563,0,0,1,1.981,9.152c-1.488,4.964-8.7,5.214-15.071,5.432a37.637,37.637,0,0,0-7.5.706c-3.252.862-5.723,3.4-7.226,5.381a23.059,23.059,0,0,0-2.5,4.123,1.172,1.172,0,0,0,.036,1.049c1.317,3.009,11.105,8.512,13.772,9.18.054.013.109.022.16.031a.715.715,0,0,0,.09.012c1.139.108,2.162-1.02,3.431-2.422,2.19-2.417,5.187-5.732,10.812-4.65,5.395,1.041,9.386.736,12.942-.985,4.348-2.105,7.91-6.41,10.889-13.155C3103.984,1299.474,3103.351,1293.5,3099.194,1287.671Zm1.8,18.2c-2.964,6.707-6.5,10.986-10.814,13.075-3.526,1.708-7.486,2.007-12.846.974-5.706-1.1-8.742,2.253-10.959,4.7-1.323,1.464-2.367,2.618-3.525,2.33a6.936,6.936,0,0,1-.7-.221c-3.55-1.274-11.812-6.24-12.962-8.87a1.031,1.031,0,0,1-.044-.916l0,0a22.654,22.654,0,0,1,2.488-4.1c1.485-1.96,3.93-4.476,7.137-5.326a37.9,37.9,0,0,1,7.47-.7c6.421-.221,13.693-.47,15.215-5.542a9.73,9.73,0,0,0-2.01-9.3,10.464,10.464,0,0,0-2.26-1.965,8.337,8.337,0,0,0-3.693-1.348,5.982,5.982,0,0,0-1.425.028,8.685,8.685,0,0,0-5.1,2.776,3.73,3.73,0,0,1-1.751,1.214,1.368,1.368,0,0,1-.823-.137c-1.859-.877-8.705-5.435-9.572-10.067a4.764,4.764,0,0,1,1.376-4.329c4.936-5.181,16.609-8.8,26.063-4.37a19.36,19.36,0,0,1,2.816,1.609C3095.971,1282.888,3107.091,1292.051,3100.989,1305.869Z" transform="translate(-3048.891 -1271.633)"/></g><g transform="translate(0 51.706)"><path class="b" d="M3030.87,1404.688c-.26-.191-.524-.37-.79-.531a9.618,9.618,0,0,0-4.18-1.437c-3.229-.305-6.589,1.113-9.6,4.182a8.3,8.3,0,0,0-2.272,6.6,11.167,11.167,0,0,0,4.485,7.982,13.18,13.18,0,0,0,4.28,2.021,15.09,15.09,0,0,0,2.629.486,12.64,12.64,0,0,0,4.255-.279,6.773,6.773,0,0,0,4.714-3.578C3037.3,1413.979,3036.043,1408.495,3030.87,1404.688Zm3.382,15.376a6.626,6.626,0,0,1-4.614,3.5,13.834,13.834,0,0,1-7.526-.426,12.685,12.685,0,0,1-3.506-1.777,11.009,11.009,0,0,1-4.421-7.869,8.156,8.156,0,0,1,2.225-6.48,13.265,13.265,0,0,1,7.154-4.072,9.192,9.192,0,0,1,5.974,1.083,11.72,11.72,0,0,1,1.237.795C3035.885,1408.571,3037.121,1413.986,3034.252,1420.064Z" transform="translate(-3013.999 -1402.68)"/></g></g><g transform="translate(548.657 172.061)"><g transform="translate(2.432 1.545)"><g transform="translate(16.264)"><path class="c" d="M3097.354,1005.278s4.63-7.162,11.063-7.8,20.02,4.32,23.327-2.5-2.248-13.724-7.194-13.807-6.23,3.937-8.234,2.563-12.184-10.8-5.8-15.644,20.5-6.286,29.052,1.887,19.459,19.5,10.867,32.728-16.994,13.31-25.69,10.13-12.412,5.922-15.422,4.628S3095.689,1007.418,3097.354,1005.278Z" transform="translate(-3097.178 -964.149)"/></g><g transform="translate(0 46.959)"><path class="c" d="M3059.252,1086.059c5.182-3.817,10.627-3.947,14.632.13s5.244,9.531,1.006,15.71c-3.232,4.713-11.763,2.868-15.768-1.208S3054.652,1089.448,3059.252,1086.059Z" transform="translate(-3055.959 -1083.163)"/></g></g><g transform="translate(16.265)"><path class="b" d="M3145.417,980.582c-2.711-5.485-7.552-10.357-11.876-14.493a19.358,19.358,0,0,0-1.634-1.4c-8.728-6.692-21.575-5-27.517-.493a4.9,4.9,0,0,0-2.111,4.178c.118,4.77,6.2,10.416,7.911,11.588a1.492,1.492,0,0,0,1.042.292,4.416,4.416,0,0,0,1.846-.943,8.467,8.467,0,0,1,5.39-1.9,7.3,7.3,0,0,1,4.407,1.787,10.274,10.274,0,0,1,2.221,2.557,9.562,9.562,0,0,1,.493,9.351c-2.257,4.664-9.422,3.756-15.743,2.959a37.754,37.754,0,0,0-7.521-.5c-6.348.631-11,7.655-11.119,7.832a1.175,1.175,0,0,0-.13,1.042c.821,3.184,9.6,10.172,12.133,11.261.051.02.1.039.15.056a1.561,1.561,0,0,0,.5.079c.99,0,2.064-.86,3.362-1.9,2.545-2.04,6.037-4.83,11.415-2.865,5.161,1.886,9.15,2.225,12.934,1.089,4.628-1.385,8.83-5.067,12.847-11.249C3148.266,993,3148.593,987,3145.417,980.582Zm-1.129,18.252c-4,6.152-8.171,9.809-12.764,11.186-3.748,1.121-7.706.786-12.835-1.089-5.46-2-8.988.828-11.564,2.888-1.543,1.235-2.762,2.209-3.851,1.74a7.136,7.136,0,0,1-.671-.335c-3.3-1.831-10.661-8.041-11.375-10.819a1.013,1.013,0,0,1,.107-.908l0-.007c.047-.072,4.683-7.138,11-7.766.4-.04.836-.055,1.29-.055a53.211,53.211,0,0,1,6.2.556c6.372.8,13.6,1.716,15.9-3.046a9.729,9.729,0,0,0-.5-9.5,10.311,10.311,0,0,0-1.906-2.288,7.645,7.645,0,0,0-4.853-2.127c-.051,0-.1,0-.15,0a8.716,8.716,0,0,0-5.327,1.929,3.713,3.713,0,0,1-1.925.919,1.412,1.412,0,0,1-.789-.268c-1.7-1.164-7.725-6.754-7.84-11.466a4.749,4.749,0,0,1,2.044-4.052c5.7-4.325,17.8-6.037,26.436-.154h0a19.9,19.9,0,0,1,2.513,2.036C3143,975.35,3152.515,986.166,3144.288,998.835Z" transform="translate(-3091.018 -960.234)"/></g><g transform="translate(0 46.985)"><path class="b" d="M3067.856,1082.345c-.221-.225-.446-.438-.678-.639a9.408,9.408,0,0,0-6.262-2.391,13.3,13.3,0,0,0-7.793,2.893,8.292,8.292,0,0,0-3.294,6.155,11.179,11.179,0,0,0,3.152,8.594,13.26,13.26,0,0,0,3.918,2.687,14.255,14.255,0,0,0,5.812,1.334c.316,0,.627-.012.935-.04a6.784,6.784,0,0,0,5.224-2.782C3072.717,1092.541,3072.358,1086.93,3067.856,1082.345Zm.888,15.719a6.635,6.635,0,0,1-5.114,2.719,13.814,13.814,0,0,1-7.366-1.626,12.871,12.871,0,0,1-3.173-2.312,11.018,11.018,0,0,1-3.109-8.471,8.146,8.146,0,0,1,3.231-6.04,13.233,13.233,0,0,1,7.71-2.881,9.174,9.174,0,0,1,5.733,2.028,11.389,11.389,0,0,1,1.089.974C3072.188,1086.978,3072.543,1092.522,3068.744,1098.065Z" transform="translate(-3049.796 -1079.315)"/></g></g><g transform="translate(41.142 147.402)"><g transform="translate(2.318)"><path class="c" d="M1799.33,955.733s-4.867-7-3.014-13.2,11.6-16.88,6.542-22.53-13.549-3.132-15.5,1.412,1.276,7.259-.755,8.59-14.616,7.171-16.674-.576,1.97-21.354,12.778-26.16,25.429-10.6,34.4,2.375,5.859,20.776-.385,27.612.766,13.731-1.576,16.024S1800.677,958.086,1799.33,955.733Z" transform="translate(-1769.406 -897.736)"/><g transform="translate(32.479 58.935)"><path class="c" d="M1852.246,1061.641c-1.564-6.243.385-11.33,5.676-13.487s10.808-1.231,14.916,5.035c3.132,4.779-1.814,11.972-7.105,14.128S1853.634,1067.184,1852.246,1061.641Z" transform="translate(-1851.722 -1047.104)"/></g></g><g transform="translate(0 1.543)"><path class="b" d="M1811.371,909.6c-4.017-5.8-9.442-8.384-16.583-7.887-6.1.426-12.448,3.054-17.917,5.484a19.058,19.058,0,0,0-1.9.971c-9.517,5.532-12.839,18.071-10.922,25.28a4.894,4.894,0,0,0,3.066,3.539c2.415.923,5.674.276,7.978-.43a26.8,26.8,0,0,0,5.745-2.486,1.488,1.488,0,0,0,.663-.856,4.435,4.435,0,0,0-.166-2.064,8.448,8.448,0,0,1,.288-5.705,7.322,7.322,0,0,1,3.314-3.389,10.181,10.181,0,0,1,3.22-1.093,9.575,9.575,0,0,1,8.842,3.089c3.456,3.863-.1,10.148-3.243,15.688a37.9,37.9,0,0,0-3.318,6.771c-1.827,6.108,2.9,13.084,3.022,13.257a1.173,1.173,0,0,0,.915.517,3.311,3.311,0,0,0,.414.028c3.6,0,12.721-5.125,14.611-6.976a.878.878,0,0,0,.1-.11c.781-.908.339-2.4-.205-4.269-.919-3.129-2.178-7.418,1.685-11.648,3.705-4.056,5.528-7.619,5.919-11.549C1817.372,920.947,1815.565,915.659,1811.371,909.6Zm5.374,16.146c-.387,3.894-2.2,7.43-5.879,11.458-3.922,4.3-2.651,8.633-1.72,11.8.556,1.9.994,3.393.146,4.226a6.954,6.954,0,0,1-.552.481s-.008,0-.012.008a42.111,42.111,0,0,1-6.494,3.882c-3.618,1.8-6.475,2.719-7.836,2.533a1.028,1.028,0,0,1-.8-.442l0,0c-.047-.071-4.822-7.047-3-13.131a37.579,37.579,0,0,1,3.307-6.735c3.164-5.591,6.751-11.924,3.22-15.869a9.666,9.666,0,0,0-7.292-3.279,10.521,10.521,0,0,0-4.537,1.034,7.65,7.65,0,0,0-3.8,3.677,8.687,8.687,0,0,0-.3,5.8,3.716,3.716,0,0,1,.118,2.131,1.4,1.4,0,0,1-.545.627,26.715,26.715,0,0,1-5.705,2.466c-2.285.7-5.5,1.342-7.88.434a4.742,4.742,0,0,1-2.971-3.433c-1.839-6.921,1.18-18.777,9.912-24.526a19.977,19.977,0,0,1,2.821-1.543c12.093-5.374,25.714-10.073,34.307,2.352C1815.416,915.715,1817.215,920.97,1816.745,925.741Z" transform="translate(-1763.53 -901.648)"/><g transform="translate(32.48 58.94)"><path class="b" d="M1867.105,1057.144c-3.729-5.69-9.059-7.489-15.009-5.066a9.317,9.317,0,0,0-.852.391,9.759,9.759,0,0,0-5.394,9.209,16.535,16.535,0,0,0,.521,3.981,8.308,8.308,0,0,0,4.443,5.382,11.007,11.007,0,0,0,4.951,1.16,11.133,11.133,0,0,0,4.2-.813,13.308,13.308,0,0,0,3.969-2.6,13.687,13.687,0,0,0,3.76-5.749A6.773,6.773,0,0,0,1867.105,1057.144Zm.442,5.843a13.817,13.817,0,0,1-4.3,6.2,12.74,12.74,0,0,1-3.342,2.056,11.009,11.009,0,0,1-9.02-.339,8.742,8.742,0,0,1-2.809-2.218,7.782,7.782,0,0,1-1.551-3.066,13.217,13.217,0,0,1,.265-8.227,9.141,9.141,0,0,1,4.04-4.522,10.857,10.857,0,0,1,1.326-.647,13.078,13.078,0,0,1,4.936-1.038c3.859,0,7.268,2.052,9.884,6.045A6.612,6.612,0,0,1,1867.547,1062.987Z" transform="translate(-1845.85 -1051.027)"/></g></g></g><g transform="translate(0 16.741)"><g transform="translate(230.246 100.687)"><path class="b" d="M2277.449,821.873c-1.255-.067-2.545-.1-3.832-.1h-.067a.389.389,0,0,0,0,.777h.067c1.274,0,2.549.032,3.788.1h.023a.387.387,0,0,0,.02-.773Zm-7.793,0c-1.282.067-2.588.166-3.89.3a.388.388,0,0,0,.04.773h.039c1.286-.13,2.584-.229,3.851-.292a.389.389,0,0,0-.04-.777Zm15.542.88c-1.262-.225-2.561-.41-3.863-.56a.389.389,0,1,0-.087.773c1.287.142,2.569.328,3.812.548a.434.434,0,0,0,.067.008.389.389,0,0,0,.383-.324A.382.382,0,0,0,2285.2,822.752Zm-23.3-.111c-1.271.186-2.565.4-3.843.643a.387.387,0,0,0-.312.454.392.392,0,0,0,.383.316.429.429,0,0,0,.071-.008c1.271-.241,2.553-.454,3.811-.635a.389.389,0,0,0-.11-.769Zm30.871,1.989c-1.223-.4-2.486-.757-3.756-1.073a.388.388,0,1,0-.185.754c1.25.308,2.5.663,3.7,1.057a.437.437,0,0,0,.122.016.386.386,0,0,0,.118-.754Zm-38.063-.252a.389.389,0,0,0-.466-.292c-1.263.3-2.533.62-3.776.963a.387.387,0,0,0,.1.762.294.294,0,0,0,.1-.016c1.235-.339,2.494-.659,3.748-.951A.385.385,0,0,0,2254.706,824.378Zm-7.489,2.04a.384.384,0,0,0-.489-.249c-2.316.754-3.63,1.3-3.685,1.318a.39.39,0,0,0-.209.509.379.379,0,0,0,.5.209c.012,0,1.346-.556,3.63-1.3A.386.386,0,0,0,2247.217,826.418Zm52.777,1.18-.2-.1c-1.089-.545-2.221-1.057-3.362-1.527a.391.391,0,0,0-.5.213.383.383,0,0,0,.213.505c1.12.462,2.233.967,3.307,1.5l.189.095a.356.356,0,0,0,.177.043.383.383,0,0,0,.343-.209A.391.391,0,0,0,2299.994,827.6Zm5.753,5.366a12.2,12.2,0,0,0-2.482-3.121.387.387,0,1,0-.521.572,11.5,11.5,0,0,1,2.324,2.924.391.391,0,0,0,.339.2.356.356,0,0,0,.186-.051A.385.385,0,0,0,2305.747,832.964Zm1.337,3.752a.383.383,0,0,0-.454-.308.387.387,0,0,0-.308.454,14.943,14.943,0,0,1,.256,2.809c0,.312-.008.635-.027.955a.389.389,0,0,0,.367.41h.02a.392.392,0,0,0,.39-.367c.016-.335.028-.671.028-1A15.81,15.81,0,0,0,2307.084,836.716Zm-.619,7.386a.384.384,0,0,0-.466.288,29.7,29.7,0,0,1-1.112,3.662.39.39,0,0,0,.229.5.418.418,0,0,0,.135.024.4.4,0,0,0,.367-.252,31.49,31.49,0,0,0,1.136-3.756A.384.384,0,0,0,2306.465,844.1Zm-1.05,5.469h0c-1.279.012-2.593.059-3.9.15a.384.384,0,0,0-.363.414.391.391,0,0,0,.387.359h.028c1.294-.087,2.589-.138,3.855-.146a.391.391,0,0,0,.383-.395A.384.384,0,0,0,2305.416,849.571Zm7.789.442c-1.271-.158-2.581-.276-3.891-.351a.394.394,0,0,0-.41.367.388.388,0,0,0,.367.406c1.294.075,2.584.189,3.835.347a.221.221,0,0,0,.051,0,.388.388,0,0,0,.047-.773Zm-15.578.079c-1.271.158-2.568.351-3.858.58a.388.388,0,0,0,.067.769.349.349,0,0,0,.067-.008c1.278-.225,2.564-.414,3.819-.572a.388.388,0,1,0-.095-.769Zm23.229,1.48c-1.231-.355-2.51-.667-3.8-.927a.388.388,0,0,0-.154.761c1.267.257,2.521.56,3.737.911a.487.487,0,0,0,.106.012.386.386,0,0,0,.107-.758Zm-30.441.162a.389.389,0,0,0-.466-.292c-1.251.28-2.521.6-3.78.947a.388.388,0,0,0,.106.762.325.325,0,0,0,.1-.016c1.243-.339,2.5-.655,3.74-.939A.387.387,0,0,0,2290.414,851.733Zm37.736,2.624c-1.16-.564-2.367-1.085-3.586-1.551a.388.388,0,1,0-.276.726c1.2.454,2.383.967,3.523,1.523a.383.383,0,0,0,.17.039.387.387,0,0,0,.351-.217A.394.394,0,0,0,2328.15,854.357Zm-45.225-.6a.386.386,0,0,0-.49-.249c-1.227.395-2.466.825-3.681,1.278a.387.387,0,0,0,.134.75.4.4,0,0,0,.134-.024c1.207-.45,2.434-.876,3.65-1.266A.392.392,0,0,0,2282.926,853.753Zm20.967-2.348a.389.389,0,0,0-.521.178c-.537,1.113-1.152,2.257-1.819,3.393a.393.393,0,0,0,.142.533.373.373,0,0,0,.193.051.385.385,0,0,0,.335-.189c.679-1.156,1.3-2.316,1.847-3.448A.383.383,0,0,0,2303.893,851.406Zm-28.255,5.015a.389.389,0,0,0-.509-.205c-1.2.5-2.391,1.034-3.563,1.582a.387.387,0,0,0,.166.738.42.42,0,0,0,.166-.035c1.16-.544,2.347-1.073,3.531-1.57A.391.391,0,0,0,2275.638,856.421Zm59.2,1.985c-1.046-.773-2.138-1.507-3.251-2.178a.388.388,0,1,0-.4.663c1.093.663,2.166,1.381,3.192,2.139a.4.4,0,0,0,.232.075.387.387,0,0,0,.229-.7Zm-34.8-.272a.392.392,0,0,0-.54.107c-.706,1.042-1.464,2.1-2.257,3.129a.389.389,0,0,0,.071.544.392.392,0,0,0,.544-.071c.8-1.05,1.571-2.115,2.285-3.168A.388.388,0,0,0,2300.034,858.133ZM2268.6,859.7a.391.391,0,0,0-.525-.166c-1.16.608-2.308,1.243-3.413,1.886a.39.39,0,0,0,.2.726.379.379,0,0,0,.193-.055c1.1-.639,2.233-1.267,3.385-1.87A.385.385,0,0,0,2268.6,859.7Zm72.086,3.894c-.9-.951-1.842-1.866-2.809-2.722a.383.383,0,0,0-.544.032.388.388,0,0,0,.031.548c.947.84,1.875,1.74,2.758,2.675a.386.386,0,0,0,.28.118.4.4,0,0,0,.268-.1A.391.391,0,0,0,2340.686,863.59Zm-78.806-.012a.386.386,0,0,0-.537-.115c-1.113.722-2.194,1.472-3.216,2.217a.39.39,0,0,0,.233.7.416.416,0,0,0,.229-.075c1.006-.742,2.076-1.48,3.176-2.194A.392.392,0,0,0,2261.879,863.578Zm33.475.75a.384.384,0,0,0-.544.047c-.825.967-1.693,1.937-2.577,2.876a.389.389,0,0,0,.28.655.4.4,0,0,0,.284-.122c.892-.951,1.768-1.929,2.6-2.908A.389.389,0,0,0,2295.354,864.328Zm-39.752,3.812a.388.388,0,0,0-.548-.047c-1.046.88-2.016,1.768-2.888,2.64a.389.389,0,0,0,.272.663.4.4,0,0,0,.276-.114c.856-.856,1.811-1.728,2.841-2.592A.392.392,0,0,0,2255.6,868.139Zm34.466,1.87a.384.384,0,0,0-.549-.012c-.924.892-1.882,1.772-2.845,2.616a.388.388,0,0,0-.036.548.4.4,0,0,0,.292.134.381.381,0,0,0,.256-.1c.971-.852,1.938-1.74,2.872-2.64A.387.387,0,0,0,2290.067,870.009ZM2250.1,873.6a.389.389,0,0,0-.545.067,18.325,18.325,0,0,0-2.115,3.346.391.391,0,0,0,.186.517.416.416,0,0,0,.166.036.391.391,0,0,0,.351-.221,17.507,17.507,0,0,1,2.024-3.2A.389.389,0,0,0,2250.1,873.6Zm34.157,1.559a.39.39,0,0,0-.549-.063c-1.014.8-2.052,1.586-3.085,2.32a.386.386,0,0,0-.091.541.382.382,0,0,0,.315.162.39.39,0,0,0,.225-.071c1.042-.742,2.091-1.531,3.121-2.344A.393.393,0,0,0,2284.255,875.155Zm-6.305,4.526a.39.39,0,0,0-.537-.122c-1.1.694-2.225,1.353-3.326,1.949a.387.387,0,0,0-.158.525.389.389,0,0,0,.529.158c1.113-.608,2.249-1.271,3.37-1.977A.384.384,0,0,0,2277.95,879.68Zm-29.143,4.309a4.283,4.283,0,0,1-1.523-3.113.385.385,0,0,0-.4-.371.394.394,0,0,0-.371.406,5.017,5.017,0,0,0,1.783,3.658.374.374,0,0,0,.257.1.387.387,0,0,0,.256-.679Zm22.344-.572a.388.388,0,0,0-.513-.193c-1.2.541-2.4,1.022-3.571,1.428a.389.389,0,0,0-.24.493.384.384,0,0,0,.367.26.5.5,0,0,0,.13-.02c1.188-.414,2.411-.9,3.63-1.456A.389.389,0,0,0,2271.152,883.417Zm-7.3,2.6a.38.38,0,0,0-.462-.288,28.468,28.468,0,0,1-3.772.616.389.389,0,0,0-.351.422.383.383,0,0,0,.386.351h.035a28.769,28.769,0,0,0,3.875-.635A.384.384,0,0,0,2263.849,886.013Zm-8.042.355a17.724,17.724,0,0,1-3.725-.694.382.382,0,0,0-.481.256.388.388,0,0,0,.257.485,18.714,18.714,0,0,0,3.886.726.087.087,0,0,0,.031,0,.389.389,0,0,0,.031-.777Z" transform="translate(-2242.804 -821.77)"/></g><g transform="translate(73.145 37.143)"><path class="b" d="M1883.812,661a.388.388,0,0,0-.481-.264c-.276.083-.556.166-.828.253a.387.387,0,0,0,.114.758.4.4,0,0,0,.115-.016c.272-.087.544-.17.821-.249A.386.386,0,0,0,1883.812,661Zm-4.5,1.48a.385.385,0,0,0-.5-.225c-1.215.462-2.431.963-3.6,1.5a.387.387,0,0,0-.189.513.381.381,0,0,0,.351.229.386.386,0,0,0,.162-.036c1.156-.525,2.352-1.022,3.555-1.476A.39.39,0,0,0,1879.31,662.481Zm-7.075,3.161a.392.392,0,0,0-.525-.158c-1.144.619-2.281,1.282-3.37,1.973a.387.387,0,0,0,.205.714.4.4,0,0,0,.209-.059c1.077-.682,2.194-1.334,3.322-1.941A.39.39,0,0,0,1872.236,665.641Zm-6.577,4.1a.386.386,0,0,0-.541-.083c-1.049.773-2.075,1.59-3.054,2.431a.388.388,0,0,0-.043.548.379.379,0,0,0,.3.134.39.39,0,0,0,.252-.091c.963-.829,1.977-1.637,3.01-2.4A.385.385,0,0,0,1865.658,669.74Zm-5.915,5a.384.384,0,0,0-.549,0c-.919.915-1.815,1.878-2.659,2.861a.389.389,0,0,0,.043.549.38.38,0,0,0,.544-.044c.833-.967,1.712-1.914,2.62-2.817A.391.391,0,0,0,1859.744,674.744Zm-5.1,5.836a.386.386,0,0,0-.541.083c-.769,1.05-1.507,2.139-2.19,3.239a.39.39,0,0,0,.332.592.382.382,0,0,0,.327-.185c.675-1.081,1.4-2.154,2.154-3.184A.39.39,0,0,0,1854.646,680.579Zm-4.135,6.554a.386.386,0,0,0-.521.166c-.6,1.156-1.156,2.348-1.657,3.543a.386.386,0,0,0,.209.505.332.332,0,0,0,.15.031.4.4,0,0,0,.359-.237c.493-1.176,1.038-2.348,1.626-3.488A.386.386,0,0,0,1850.511,687.133Zm-3.054,7.122a.386.386,0,0,0-.489.249c-.406,1.235-.765,2.5-1.065,3.76a.383.383,0,0,0,.288.466.336.336,0,0,0,.091.012.386.386,0,0,0,.375-.3c.3-1.239.651-2.482,1.05-3.7A.386.386,0,0,0,1847.457,694.255Zm-1.866,7.52a.392.392,0,0,0-.442.324c-.2,1.29-.339,2.6-.422,3.89a.383.383,0,0,0,.359.41c.008,0,.02,0,.028,0a.391.391,0,0,0,.387-.363c.083-1.27.225-2.557.418-3.823A.39.39,0,0,0,1845.591,701.775Zm-.177,8.1a.387.387,0,0,0-.395-.379.393.393,0,0,0-.379.4c.028,1.306.118,2.62.264,3.9a.388.388,0,0,0,.386.343h.043a.392.392,0,0,0,.343-.43C1845.531,712.456,1845.445,711.166,1845.413,709.88Zm1.862,11.328c-.383-1.2-.714-2.45-.982-3.705a.387.387,0,1,0-.758.158c.272,1.282.612,2.557,1,3.784a.389.389,0,0,0,.371.268.408.408,0,0,0,.118-.016A.386.386,0,0,0,1847.275,721.208Zm60.195,1.18a8.852,8.852,0,0,0-3.847,1.16.388.388,0,1,0,.371.683,8.085,8.085,0,0,1,3.508-1.069.387.387,0,1,0-.031-.773Zm6.207,4.5a7.129,7.129,0,0,0-2.324-3.31.393.393,0,0,0-.544.075.389.389,0,0,0,.071.544,6.352,6.352,0,0,1,2.068,2.951.391.391,0,0,0,.367.256.377.377,0,0,0,.13-.024A.382.382,0,0,0,1913.677,726.889Zm-63.316,1.326a35.545,35.545,0,0,1-1.728-3.421.388.388,0,0,0-.71.312,36.3,36.3,0,0,0,1.768,3.5.385.385,0,0,0,.335.2.377.377,0,0,0,.193-.055A.384.384,0,0,0,1850.361,728.215Zm50.611-2.3a.387.387,0,0,0-.549-.024,24.029,24.029,0,0,0-2.659,2.9.389.389,0,0,0,.067.545.387.387,0,0,0,.545-.067,23.08,23.08,0,0,1,2.573-2.809A.388.388,0,0,0,1900.972,725.915Zm12.871,4.537a.388.388,0,0,0-.41.363,11.717,11.717,0,0,1-.836,3.642.39.39,0,0,0,.217.505.37.37,0,0,0,.146.028.382.382,0,0,0,.359-.245,12.451,12.451,0,0,0,.888-3.883A.386.386,0,0,0,1913.843,730.452Zm-58.94,3.922a33.866,33.866,0,0,1-2.446-2.951.388.388,0,1,0-.623.462,34.635,34.635,0,0,0,2.5,3.018.391.391,0,0,0,.549.02A.387.387,0,0,0,1854.9,734.374Zm41.185-2.47a.386.386,0,0,0-.529.134,38.79,38.79,0,0,0-1.819,3.472.385.385,0,0,0,.189.513.334.334,0,0,0,.162.036.394.394,0,0,0,.355-.225,36.611,36.611,0,0,1,1.78-3.4A.392.392,0,0,0,1896.087,731.9Zm-35.373,7.441a33.673,33.673,0,0,1-3.046-2.32.389.389,0,1,0-.505.592,35.257,35.257,0,0,0,3.117,2.371.371.371,0,0,0,.217.067.387.387,0,0,0,.217-.71Zm50.556-1.7a.386.386,0,0,0-.545.075,16.7,16.7,0,0,1-2.635,2.707.384.384,0,0,0-.052.544.388.388,0,0,0,.545.055,17.152,17.152,0,0,0,2.758-2.837A.389.389,0,0,0,1911.27,737.645Zm-18.513,1.255a.388.388,0,0,0-.5.233c-.43,1.2-.825,2.454-1.172,3.729a.382.382,0,0,0,.268.474.324.324,0,0,0,.1.016.388.388,0,0,0,.375-.284c.344-1.255.734-2.49,1.156-3.673A.382.382,0,0,0,1892.757,738.9Zm-25.272,4.028a36.365,36.365,0,0,1-3.48-1.614.391.391,0,0,0-.525.166.385.385,0,0,0,.162.521,36.842,36.842,0,0,0,3.551,1.645.392.392,0,0,0,.146.031.39.39,0,0,0,.146-.75Zm37.977-.233a.385.385,0,0,0-.525-.154,25.745,25.745,0,0,1-3.48,1.563.386.386,0,0,0,.134.75.305.305,0,0,0,.13-.024,25.49,25.49,0,0,0,3.587-1.61A.384.384,0,0,0,1905.462,742.7Zm-30.622,2.415c-1.271-.256-2.525-.568-3.729-.923a.389.389,0,1,0-.221.746c1.227.359,2.5.675,3.8.935a.24.24,0,0,0,.075.008.391.391,0,0,0,.383-.312A.387.387,0,0,0,1874.84,745.11Zm23.413.367a.393.393,0,0,0-.466-.292c-1.2.28-2.47.509-3.776.679a.388.388,0,0,0,.047.773.225.225,0,0,0,.051,0c1.334-.174,2.628-.406,3.851-.69A.393.393,0,0,0,1898.253,745.477Zm-15.775.616c-1.247-.095-2.541-.221-3.843-.379a.389.389,0,0,0-.43.339.381.381,0,0,0,.335.43c1.318.162,2.62.288,3.879.383h.031a.387.387,0,0,0,.028-.773Zm8.164.264a.327.327,0,0,0-.138,0,.382.382,0,0,0-.323-.146q-1.864.095-3.851.059a.393.393,0,0,0-.395.383.388.388,0,0,0,.383.395c1.306.02,2.577,0,3.8-.059-.225,1.156-.418,2.34-.576,3.523a.385.385,0,0,0,.332.438.223.223,0,0,0,.051,0,.384.384,0,0,0,.383-.335c.173-1.282.386-2.561.635-3.8A.381.381,0,0,0,1890.642,746.357Zm-1.085,7.674a.388.388,0,0,0-.414.359c-.095,1.282-.154,2.592-.174,3.9a.388.388,0,0,0,.383.395h0a.384.384,0,0,0,.386-.383c.024-1.29.079-2.584.174-3.855A.388.388,0,0,0,1889.557,754.031Zm.233,8.124a.387.387,0,0,0-.773.032c.051,1.286.138,2.6.26,3.89a.387.387,0,0,0,.387.351h.035a.389.389,0,0,0,.351-.422C1889.928,764.724,1889.841,763.43,1889.79,762.155Zm1.377,11.482c-.249-1.259-.474-2.541-.659-3.8a.387.387,0,0,0-.766.114c.186,1.274.41,2.569.667,3.843a.388.388,0,0,0,.379.312.488.488,0,0,0,.075-.008A.387.387,0,0,0,1891.167,773.637Zm1.89,7.481c-.375-1.227-.726-2.478-1.038-3.717a.387.387,0,1,0-.75.189c.315,1.251.667,2.513,1.045,3.756a.389.389,0,0,0,.371.272.379.379,0,0,0,.114-.016A.388.388,0,0,0,1893.057,781.118Zm2.616,7.26c-.493-1.188-.963-2.4-1.4-3.6a.388.388,0,0,0-.73.264c.438,1.211.911,2.435,1.408,3.634a.391.391,0,0,0,.359.237.4.4,0,0,0,.15-.028A.39.39,0,0,0,1895.673,788.378Zm3.291,6.984c-.6-1.136-1.184-2.3-1.728-3.452a.387.387,0,0,0-.7.327c.549,1.168,1.136,2.34,1.744,3.488a.383.383,0,0,0,.343.205.438.438,0,0,0,.182-.043A.39.39,0,0,0,1898.963,795.362Zm3.91,6.652c-.7-1.077-1.381-2.182-2.032-3.283a.382.382,0,0,0-.529-.138.388.388,0,0,0-.138.533c.655,1.109,1.342,2.225,2.048,3.31a.393.393,0,0,0,.327.178.372.372,0,0,0,.209-.063A.384.384,0,0,0,1902.874,802.014Zm4.478,6.293c-.789-1.018-1.566-2.06-2.308-3.1a.387.387,0,1,0-.631.45c.75,1.053,1.531,2.1,2.328,3.125a.382.382,0,0,0,.3.15.4.4,0,0,0,.237-.079A.39.39,0,0,0,1907.352,808.308Zm4.979,5.9-.095-.1c-.836-.919-1.661-1.858-2.454-2.8a.384.384,0,0,0-.545-.047.389.389,0,0,0-.047.548c.8.947,1.63,1.894,2.474,2.817l.095.107a.4.4,0,0,0,.288.126.389.389,0,0,0,.284-.651Zm134.227,1.728a.388.388,0,0,0-.49-.245c-.011,0-1.345.45-3.7,1.172a.389.389,0,0,0,.111.762.385.385,0,0,0,.114-.02c2.372-.722,3.713-1.172,3.725-1.176A.387.387,0,0,0,2046.559,815.935Zm-7.434,2.3a.39.39,0,0,0-.481-.264c-1.223.359-2.482.714-3.732,1.065a.388.388,0,0,0,.1.761.334.334,0,0,0,.106-.016c1.255-.347,2.513-.706,3.74-1.065A.388.388,0,0,0,2039.125,818.235Zm-121.049,1.042c-1.045-.754-2.06-1.559-3-2.387a.387.387,0,1,0-.513.58c.963.848,2,1.669,3.066,2.438a.391.391,0,0,0,.225.071.387.387,0,0,0,.225-.7Zm113.564,1.053a.388.388,0,0,0-.474-.276q-1.793.479-3.752.982a.387.387,0,1,0,.189.75c1.31-.331,2.565-.663,3.764-.982A.386.386,0,0,0,2031.64,820.33Zm-7.525,1.93a.385.385,0,0,0-.466-.284c-1.223.3-2.482.6-3.776.9a.388.388,0,0,0,.087.766.358.358,0,0,0,.091-.012c1.294-.3,2.557-.6,3.78-.9A.387.387,0,0,0,2024.115,822.26Zm-99.426.931c-1.172-.568-2.312-1.18-3.389-1.815a.387.387,0,1,0-.395.667c1.1.647,2.257,1.267,3.444,1.847a.425.425,0,0,0,.17.036.387.387,0,0,0,.17-.734Zm91.866.836a.4.4,0,0,0-.466-.3q-1.858.414-3.792.817a.389.389,0,0,0,.083.769.588.588,0,0,0,.079-.008q1.935-.409,3.8-.821A.389.389,0,0,0,2016.556,824.027Zm-84.721,2.028c-1.243-.406-2.462-.848-3.622-1.31a.387.387,0,1,0-.288.718c1.176.469,2.411.919,3.666,1.33a.345.345,0,0,0,.122.02.388.388,0,0,0,.122-.758Zm76.664-.734c-1.267.253-2.549.5-3.808.73a.388.388,0,0,0,.071.769.43.43,0,0,0,.071-.008c1.263-.233,2.545-.477,3.816-.73a.386.386,0,0,0,.308-.454A.392.392,0,0,0,2008.5,825.321Zm-7.623,1.413c-1.279.217-2.569.43-3.827.631a.389.389,0,0,0,.059.773.313.313,0,0,0,.063-.008c1.263-.2,2.553-.414,3.835-.635a.388.388,0,0,0,.316-.446A.382.382,0,0,0,2000.876,826.734Zm-61.592,1.318c-1.278-.272-2.541-.576-3.752-.9a.388.388,0,0,0-.2.75c1.223.328,2.5.631,3.792.908a.305.305,0,0,0,.083.012.389.389,0,0,0,.079-.769Zm53.933-.1c-1.291.185-2.585.363-3.843.525a.389.389,0,0,0,.051.773.246.246,0,0,0,.051,0c1.259-.162,2.557-.339,3.851-.529a.387.387,0,1,0-.11-.765Zm-46.318,1.393c-1.294-.166-2.581-.355-3.823-.564a.386.386,0,1,0-.126.762c1.25.213,2.545.4,3.851.572.016,0,.035,0,.051,0a.388.388,0,0,0,.047-.773Zm38.628-.4c-1.282.146-2.576.284-3.847.41a.388.388,0,0,0,.04.773.11.11,0,0,0,.035,0c1.274-.122,2.573-.26,3.863-.406a.389.389,0,0,0-.091-.773Zm-7.706.75c-1.294.107-2.6.2-3.867.276a.387.387,0,0,0,.024.773H1974c1.274-.079,2.58-.17,3.883-.276a.382.382,0,0,0,.355-.414A.387.387,0,0,0,1977.821,829.693Zm-23.224.363c-1.3-.079-2.6-.178-3.855-.292a.384.384,0,0,0-.422.351.389.389,0,0,0,.352.422c1.266.114,2.568.213,3.878.3h.024a.389.389,0,0,0,.024-.777Zm15.483.111c-1.3.051-2.608.091-3.879.114a.387.387,0,0,0,.008.773h.008c1.274-.024,2.588-.063,3.894-.115a.387.387,0,1,0-.031-.773Zm-7.749.138c-1.306-.008-2.608-.032-3.871-.071a.389.389,0,0,0-.024.777c1.266.039,2.576.063,3.89.071a.389.389,0,0,0,0-.777Z" transform="translate(-1844.64 -660.721)"/></g><g transform="translate(74.798 192.092)"><path class="b" d="M1905.434,1053.6a.388.388,0,0,0-.54-.095c-.012.008-1.184.84-3.145,2.348a.389.389,0,0,0-.071.544.394.394,0,0,0,.308.15.405.405,0,0,0,.237-.079c1.945-1.5,3.105-2.32,3.117-2.328A.388.388,0,0,0,1905.434,1053.6Zm-6.206,4.719a.389.389,0,0,0-.545-.063c-.994.8-2.012,1.63-3.018,2.462a.387.387,0,0,0,.249.687.38.38,0,0,0,.245-.087c1.006-.833,2.016-1.661,3.01-2.454A.388.388,0,0,0,1899.227,1058.315Zm-5.99,4.956a.388.388,0,0,0-.548-.039c-.983.84-1.965,1.7-2.932,2.561a.389.389,0,0,0,.26.679.382.382,0,0,0,.257-.1c.959-.856,1.941-1.713,2.92-2.553A.392.392,0,0,0,1893.238,1063.271Zm-5.816,5.157a.387.387,0,0,0-.548-.02c-.955.88-1.91,1.776-2.841,2.663a.39.39,0,0,0-.012.548.4.4,0,0,0,.28.118.386.386,0,0,0,.268-.106c.927-.884,1.878-1.78,2.829-2.655A.387.387,0,0,0,1887.422,1068.428Zm-5.626,5.358a.387.387,0,0,0-.549,0c-.927.915-1.846,1.847-2.738,2.766a.387.387,0,0,0,.008.548.386.386,0,0,0,.548-.008c.888-.915,1.807-1.843,2.726-2.758A.387.387,0,0,0,1881.8,1073.786Zm-5.417,5.568a.387.387,0,0,0-.548.02c-.892.959-1.776,1.929-2.62,2.88a.388.388,0,0,0,.032.548.4.4,0,0,0,.256.1.408.408,0,0,0,.292-.13c.84-.951,1.72-1.914,2.608-2.868A.391.391,0,0,0,1876.378,1079.353Zm-5.177,5.792a.384.384,0,0,0-.544.047c-.848,1-1.685,2.008-2.482,3a.388.388,0,0,0,.059.544.384.384,0,0,0,.545-.059c.8-.986,1.625-1.989,2.47-2.983A.388.388,0,0,0,1871.2,1085.146Zm-4.881,6.033a.39.39,0,0,0-.544.075c-.793,1.042-1.57,2.1-2.308,3.133a.382.382,0,0,0,.091.541.367.367,0,0,0,.225.075.4.4,0,0,0,.316-.162c.734-1.03,1.507-2.079,2.3-3.117A.389.389,0,0,0,1866.321,1091.178Zm-4.53,6.313a.391.391,0,0,0-.541.106c-.726,1.1-1.432,2.2-2.1,3.283a.386.386,0,0,0,.13.533.373.373,0,0,0,.2.059.393.393,0,0,0,.331-.185c.659-1.073,1.361-2.17,2.083-3.259A.387.387,0,0,0,1861.791,1097.491Zm-4.084,6.6a.386.386,0,0,0-.529.15c-.643,1.152-1.259,2.308-1.827,3.441a.388.388,0,1,0,.694.347c.56-1.121,1.172-2.269,1.811-3.409A.391.391,0,0,0,1857.707,1104.092Zm-3.508,6.921a.388.388,0,0,0-.513.2c-.532,1.207-1.026,2.423-1.476,3.61a.39.39,0,0,0,.229.5.4.4,0,0,0,.134.024.382.382,0,0,0,.363-.253c.442-1.176.935-2.375,1.46-3.571A.384.384,0,0,0,1854.2,1111.013Zm-2.762,7.244a.388.388,0,0,0-.485.256c-.383,1.263-.722,2.533-1.01,3.772a.389.389,0,0,0,.292.466.336.336,0,0,0,.087.008.384.384,0,0,0,.379-.3c.28-1.219.616-2.474,1-3.717A.393.393,0,0,0,1851.438,1118.257Zm-1.779,7.54a.391.391,0,0,0-.442.331c-.189,1.31-.319,2.624-.386,3.894a.391.391,0,0,0,.371.406h.02a.389.389,0,0,0,.387-.367c.063-1.247.189-2.533.379-3.823A.388.388,0,0,0,1849.658,1125.8Zm-.047,8.1a.387.387,0,0,0-.773.044,32.929,32.929,0,0,0,.442,3.894.389.389,0,0,0,.383.32.365.365,0,0,0,.067,0,.391.391,0,0,0,.316-.45A32.128,32.128,0,0,1,1849.611,1133.894Zm2.711,11.083a28.531,28.531,0,0,1-1.377-3.563.388.388,0,1,0-.742.229,29.269,29.269,0,0,0,1.416,3.661.391.391,0,0,0,.351.221.36.36,0,0,0,.166-.036A.385.385,0,0,0,1852.321,1144.977Zm4.135,6.408a28.348,28.348,0,0,1-2.285-3.066.388.388,0,1,0-.651.422,29.393,29.393,0,0,0,2.344,3.145.388.388,0,0,0,.592-.5Zm5.65,5.137a33,33,0,0,1-2.983-2.395.387.387,0,1,0-.521.572,32.691,32.691,0,0,0,3.054,2.454.371.371,0,0,0,.225.071.382.382,0,0,0,.316-.162A.386.386,0,0,0,1862.107,1156.522Zm43.339,2.288a.386.386,0,0,0-.533-.13c-.8.493-1.653.959-2.529,1.385a.389.389,0,0,0,.17.738.412.412,0,0,0,.17-.039c.9-.438,1.772-.915,2.6-1.421A.386.386,0,0,0,1905.446,1158.811Zm-36.651,1.448a38.226,38.226,0,0,1-3.445-1.693.389.389,0,1,0-.379.678,38.71,38.71,0,0,0,3.516,1.724.358.358,0,0,0,.154.031.387.387,0,0,0,.154-.742Zm30.547,1.515a.389.389,0,0,0-.5-.241,36.411,36.411,0,0,1-3.681,1.069.389.389,0,0,0-.288.47.384.384,0,0,0,.375.3.352.352,0,0,0,.091-.008,37.726,37.726,0,0,0,3.76-1.093A.386.386,0,0,0,1899.342,1161.774Zm-23.244.837c-1.255-.28-2.5-.62-3.709-1.006a.387.387,0,1,0-.237.738c1.227.395,2.5.742,3.776,1.026a.319.319,0,0,0,.087.008.384.384,0,0,0,.375-.3A.389.389,0,0,0,1876.1,1162.61Zm7.615,1.018c-1.274-.059-2.565-.174-3.831-.343a.384.384,0,0,0-.434.335.389.389,0,0,0,.332.434c1.29.17,2.6.288,3.9.347h.02a.387.387,0,0,0,.016-.773Zm7.674-.332c-1.255.17-2.541.284-3.827.335a.389.389,0,0,0,.016.777h.016c1.31-.055,2.62-.17,3.9-.344a.388.388,0,0,0-.1-.769Z" transform="translate(-1848.829 -1053.431)"/></g><g transform="translate(0 102.075)"><path class="b" d="M1741.778,825.5c-1.294-.122-2.6-.2-3.9-.217a.377.377,0,0,0-.395.379.391.391,0,0,0,.383.395c1.275.024,2.568.095,3.843.213a.109.109,0,0,0,.036,0,.387.387,0,0,0,.036-.773Zm-7.808-.134c-1.291.075-2.6.205-3.887.379a.389.389,0,0,0,.051.773.224.224,0,0,0,.051,0c1.274-.174,2.561-.3,3.831-.375a.387.387,0,0,0-.047-.773Zm15.506,1.456c-1.266-.32-2.553-.588-3.823-.809a.389.389,0,1,0-.134.765c1.255.217,2.521.481,3.768.793a.39.39,0,0,0,.095.012.383.383,0,0,0,.375-.292A.387.387,0,0,0,1749.476,826.827Zm-22.782-.107a.389.389,0,0,0-.462-.3c-1.255.268-2.529.584-3.788.947a.386.386,0,0,0,.107.758.486.486,0,0,0,.106-.012c1.239-.359,2.5-.671,3.737-.935A.387.387,0,0,0,1726.694,826.72Zm30.2,2.549c-1.2-.493-2.434-.951-3.661-1.357a.389.389,0,1,0-.245.738c1.211.4,2.427.848,3.61,1.338a.4.4,0,0,0,.15.028.387.387,0,0,0,.146-.746Zm-37.661-.466a.391.391,0,0,0-.5-.233c-1.2.434-2.423.923-3.626,1.444a.389.389,0,0,0,.154.746.367.367,0,0,0,.158-.035c1.184-.513,2.391-.994,3.579-1.424A.39.39,0,0,0,1719.229,828.8Zm44.657,3.938c-1.113-.655-2.269-1.278-3.437-1.858a.387.387,0,1,0-.343.694c1.148.572,2.288,1.188,3.389,1.835a.387.387,0,0,0,.2.051.383.383,0,0,0,.331-.189A.388.388,0,0,0,1763.886,832.741Zm-51.786-.892a.387.387,0,0,0-.521-.17c-.545.276-1.1.568-1.645.864-.592.324-1.188.667-1.772,1.026a.385.385,0,0,0-.13.533.393.393,0,0,0,.331.185.373.373,0,0,0,.2-.059c.572-.351,1.156-.687,1.74-1,.541-.292,1.085-.58,1.625-.856A.387.387,0,0,0,1712.1,831.849Zm58.2,5.4a33.4,33.4,0,0,0-3.117-2.4.39.39,0,0,0-.446.639,33.221,33.221,0,0,1,3.042,2.34.391.391,0,0,0,.261.1.375.375,0,0,0,.288-.126A.384.384,0,0,0,1770.3,837.251Zm-64.827-1.4a.39.39,0,0,0-.545-.075c-1.022.769-2.036,1.61-3.01,2.494a.384.384,0,0,0-.028.548.389.389,0,0,0,.288.126.375.375,0,0,0,.257-.1c.963-.872,1.957-1.693,2.959-2.45A.39.39,0,0,0,1705.474,835.846Zm-5.8,5.141a.383.383,0,0,0-.548.016c-.872.927-1.736,1.918-2.569,2.943a.385.385,0,0,0,.059.544.388.388,0,0,0,.545-.055c.817-1.01,1.669-1.989,2.529-2.9A.391.391,0,0,0,1699.678,840.987Zm-4.932,5.978a.391.391,0,0,0-.54.095c-.734,1.038-1.456,2.135-2.151,3.255a.387.387,0,0,0,.327.592.394.394,0,0,0,.332-.185c.687-1.1,1.4-2.186,2.127-3.216A.388.388,0,0,0,1694.746,846.965Zm-4.127,6.566a.389.389,0,0,0-.529.154c-.612,1.117-1.211,2.284-1.783,3.464a.39.39,0,0,0,.182.521.41.41,0,0,0,.166.039.391.391,0,0,0,.351-.221c.564-1.168,1.16-2.324,1.768-3.433A.389.389,0,0,0,1690.619,853.531Zm-3.417,6.964a.39.39,0,0,0-.509.2c-.5,1.18-.994,2.395-1.456,3.614a.382.382,0,0,0,.225.5.332.332,0,0,0,.138.028.38.38,0,0,0,.359-.253c.462-1.207.947-2.415,1.444-3.579A.387.387,0,0,0,1687.2,860.495Zm-2.782,7.236a.386.386,0,0,0-.489.248c-.406,1.211-.8,2.462-1.164,3.717a.39.39,0,0,0,.264.481.359.359,0,0,0,.111.016.391.391,0,0,0,.371-.28c.363-1.243.75-2.486,1.152-3.689A.39.39,0,0,0,1684.42,867.731Zm-2.206,7.445a.383.383,0,0,0-.469.28c-.316,1.247-.616,2.525-.888,3.8a.388.388,0,0,0,.3.462.6.6,0,0,0,.083.008.384.384,0,0,0,.379-.3c.272-1.263.568-2.533.884-3.772A.389.389,0,0,0,1682.215,875.177Zm-1.661,7.584a.388.388,0,0,0-.45.316c-.229,1.271-.434,2.565-.619,3.843a.385.385,0,0,0,.327.438.286.286,0,0,0,.055,0,.387.387,0,0,0,.387-.331c.182-1.27.386-2.557.615-3.819A.391.391,0,0,0,1680.554,882.76Zm-1.129,7.678a.386.386,0,0,0-.426.343c-.138,1.3-.257,2.6-.347,3.882a.388.388,0,0,0,.359.414h.028a.385.385,0,0,0,.387-.359c.091-1.271.209-2.569.347-3.851A.4.4,0,0,0,1679.425,890.438Zm-3.721,10.03a18.485,18.485,0,0,0-3.954.134.389.389,0,0,0,.055.773.274.274,0,0,0,.055,0,17.425,17.425,0,0,1,3.784-.13.388.388,0,0,0,.059-.773Zm7.52,2.273a19.208,19.208,0,0,0-3.638-1.543.39.39,0,0,0-.41.118c0-.9.02-1.823.051-2.738a.389.389,0,0,0-.777-.024c-.031,1.014-.047,2.032-.047,3.022,0,.292,0,.584,0,.872a.387.387,0,0,0,.387.387h0a.388.388,0,0,0,.383-.395c0-.205,0-.414,0-.623a.4.4,0,0,0,.185.122,18.609,18.609,0,0,1,3.488,1.48.352.352,0,0,0,.185.047.386.386,0,0,0,.339-.2A.391.391,0,0,0,1683.225,902.741Zm-14.772-.829a.384.384,0,0,0-.517-.177,12.2,12.2,0,0,0-3.228,2.336.389.389,0,0,0,.272.663.4.4,0,0,0,.276-.114,11.262,11.262,0,0,1,3.022-2.186A.391.391,0,0,0,1668.453,901.912Zm20.88,5.761a25.586,25.586,0,0,0-2.845-2.722.39.39,0,0,0-.548.059.385.385,0,0,0,.059.545,24.613,24.613,0,0,1,2.754,2.636.388.388,0,0,0,.549.032A.392.392,0,0,0,1689.333,907.673Zm-10.026-1.373a.387.387,0,0,0-.773.043c.075,1.33.186,2.636.324,3.886a.388.388,0,0,0,.383.347.144.144,0,0,0,.043,0,.386.386,0,0,0,.343-.426C1679.488,908.908,1679.382,907.614,1679.307,906.3Zm-16.465.793a.387.387,0,0,0-.529.142,20.343,20.343,0,0,0-1.618,3.6.392.392,0,0,0,.245.493.442.442,0,0,0,.126.02.393.393,0,0,0,.367-.264,19.6,19.6,0,0,1,1.551-3.464A.387.387,0,0,0,1662.842,907.093Zm30.871,7.086a29.166,29.166,0,0,0-1.969-3.4.393.393,0,0,0-.541-.107.387.387,0,0,0-.106.537,28.322,28.322,0,0,1,1.918,3.314.393.393,0,0,0,.347.217.446.446,0,0,0,.173-.039A.392.392,0,0,0,1693.713,914.179Zm-12.7,3.535c-.316-1.172-.6-2.434-.833-3.756a.387.387,0,0,0-.762.138c.241,1.341.525,2.628.848,3.819a.384.384,0,0,0,.375.288.288.288,0,0,0,.1-.016A.381.381,0,0,0,1681.008,917.714Zm-20.837-3.381a.391.391,0,0,0-.45.316,32.094,32.094,0,0,0-.453,3.9.388.388,0,0,0,.367.406h.023a.388.388,0,0,0,.387-.363,30.579,30.579,0,0,1,.442-3.8A.393.393,0,0,0,1660.171,914.333Zm35.021,3.492a.387.387,0,1,0-.738.237,20.339,20.339,0,0,1,.84,3.709.384.384,0,0,0,.383.339h.047a.393.393,0,0,0,.339-.434A20.819,20.819,0,0,0,1695.192,917.825Zm-11.237,6.9a19.789,19.789,0,0,1-1.736-3.374.388.388,0,0,0-.718.292,20.218,20.218,0,0,0,1.807,3.508.388.388,0,0,0,.324.174.374.374,0,0,0,.213-.063A.385.385,0,0,0,1683.955,924.722Zm-23.922-2.3a.38.38,0,0,0-.406-.367.388.388,0,0,0-.367.406c.063,1.282.193,2.6.387,3.9a.39.39,0,0,0,.383.331c.02,0,.035,0,.055,0a.388.388,0,0,0,.327-.442C1660.222,924.971,1660.1,923.684,1660.032,922.426Zm35.629,2.778a.39.39,0,0,0-.466.3,4.331,4.331,0,0,1-1.846,2.935.387.387,0,1,0,.406.659,5.063,5.063,0,0,0,2.2-3.429A.385.385,0,0,0,1695.662,925.2Zm-5.8,3.65a11.321,11.321,0,0,1-1.724-.485,6.865,6.865,0,0,1-1.673-.908.386.386,0,0,0-.54.083.39.39,0,0,0,.083.545,7.666,7.666,0,0,0,1.866,1.006,11.789,11.789,0,0,0,1.847.525.433.433,0,0,0,.071,0,.388.388,0,0,0,.071-.769Zm-27.639,4.857c-.414-1.207-.777-2.45-1.077-3.689a.388.388,0,0,0-.754.182c.3,1.267.675,2.529,1.1,3.76a.39.39,0,0,0,.367.26.443.443,0,0,0,.122-.02A.391.391,0,0,0,1662.226,933.71Zm3.149,7c-.627-1.1-1.211-2.249-1.74-3.421a.387.387,0,1,0-.706.316c.537,1.2,1.132,2.371,1.771,3.488a.391.391,0,0,0,.339.2.369.369,0,0,0,.189-.051A.385.385,0,0,0,1665.375,940.706Zm57.342,1.7a.39.39,0,0,0-.5.229,16.83,16.83,0,0,1-1.708,3.374.387.387,0,0,0,.115.537.371.371,0,0,0,.209.063.385.385,0,0,0,.328-.174,17.759,17.759,0,0,0,1.783-3.527A.391.391,0,0,0,1722.717,942.4Zm-52.88,4.53a36.339,36.339,0,0,1-2.395-2.995.388.388,0,1,0-.631.45,37.252,37.252,0,0,0,2.446,3.062.4.4,0,0,0,.292.126.387.387,0,0,0,.288-.643Zm48.839,2.024a.387.387,0,0,0-.548.008,24.222,24.222,0,0,1-2.873,2.513.39.39,0,0,0-.079.544.394.394,0,0,0,.312.154.377.377,0,0,0,.233-.079,25.036,25.036,0,0,0,2.963-2.592A.387.387,0,0,0,1718.677,948.956Zm-43.122,3.054a31.9,31.9,0,0,1-3.007-2.371.389.389,0,0,0-.517.58,32.752,32.752,0,0,0,3.078,2.427.4.4,0,0,0,.221.071.381.381,0,0,0,.32-.17A.386.386,0,0,0,1675.555,952.01Zm37.018,1.7a.39.39,0,0,0-.529-.15,33.629,33.629,0,0,1-3.444,1.7.388.388,0,0,0,.3.714,36.054,36.054,0,0,0,3.523-1.736A.388.388,0,0,0,1712.573,953.715Zm-30.259,1.85a30.823,30.823,0,0,1-3.492-1.57.387.387,0,0,0-.359.686,31.985,31.985,0,0,0,3.575,1.61.407.407,0,0,0,.138.024.387.387,0,0,0,.138-.75Zm23.145,1.251a.385.385,0,0,0-.462-.292c-1.274.284-2.545.521-3.784.706a.389.389,0,0,0,.055.773c.02,0,.039,0,.059,0,1.255-.189,2.549-.43,3.839-.718A.389.389,0,0,0,1705.459,956.816Zm-15.731.6a33.732,33.732,0,0,1-3.764-.71.388.388,0,0,0-.185.754,35,35,0,0,0,3.847.726.238.238,0,0,0,.051,0,.388.388,0,0,0,.051-.773Zm7.662.229c-1.3.083-2.6.11-3.839.075a.387.387,0,1,0-.024.773c.379.012.761.016,1.148.016.9,0,1.835-.028,2.766-.091a.388.388,0,0,0-.051-.773Z" transform="translate(-1659.259 -825.286)"/></g><g transform="translate(289.082)"><path class="b" d="M2427.159,566.638c-1.3-.067-2.628-.071-3.915-.012a.389.389,0,0,0-.371.406.383.383,0,0,0,.406.367c1.263-.055,2.561-.051,3.839.012h.02a.387.387,0,0,0,.02-.773Zm7.741,1.1c-1.267-.3-2.561-.544-3.847-.726a.388.388,0,1,0-.106.769c1.263.178,2.533.418,3.776.71a.333.333,0,0,0,.087.012.388.388,0,0,0,.091-.766Zm-15.554-.742a35.907,35.907,0,0,0-3.839.762.387.387,0,0,0,.095.761.387.387,0,0,0,.095-.012,37.736,37.736,0,0,1,3.76-.746.387.387,0,1,0-.11-.766Zm-7.079,2.162a.39.39,0,0,0-.5-.229,33.264,33.264,0,0,0-3.579,1.606.388.388,0,0,0,.182.73.421.421,0,0,0,.181-.043,32.07,32.07,0,0,1,3.492-1.566A.386.386,0,0,0,2412.268,569.155Zm-6.889,3.512a.388.388,0,0,0-.541-.1,29.427,29.427,0,0,0-3.058,2.47.387.387,0,0,0-.02.548.392.392,0,0,0,.284.122.4.4,0,0,0,.264-.1,27.906,27.906,0,0,1,2.975-2.4A.385.385,0,0,0,2405.378,572.667Zm-5.741,5.177a.389.389,0,0,0-.548.055,29,29,0,0,0-2.269,3.2.389.389,0,0,0,.327.592.389.389,0,0,0,.332-.185,28.674,28.674,0,0,1,2.209-3.117A.384.384,0,0,0,2399.638,577.844Zm-4.131,6.534a.389.389,0,0,0-.513.193,33.058,33.058,0,0,0-1.377,3.673.388.388,0,0,0,.256.485.382.382,0,0,0,.114.016.388.388,0,0,0,.371-.272,31.557,31.557,0,0,1,1.345-3.583A.391.391,0,0,0,2395.506,584.378Zm-2.387,7.359a.389.389,0,0,0-.454.3c-.241,1.251-.43,2.553-.56,3.875a.389.389,0,0,0,.351.422h.036a.389.389,0,0,0,.387-.347c.126-1.3.312-2.577.548-3.8A.384.384,0,0,0,2393.119,591.736Zm-.422,8.081a.4.4,0,0,0-.395-.383.387.387,0,0,0-.383.391,31.387,31.387,0,0,0,.288,3.91.386.386,0,0,0,.383.335.259.259,0,0,0,.055,0,.386.386,0,0,0,.332-.434A29.94,29.94,0,0,1,2392.7,599.817Zm53.2,5.914a8.186,8.186,0,0,0-3.843-1.2.389.389,0,0,0-.047.777,7.365,7.365,0,0,1,3.484,1.081.384.384,0,0,0,.2.059.388.388,0,0,0,.206-.718Zm-7.315-.414a.387.387,0,0,0-.485-.257,18.231,18.231,0,0,0-3.619,1.594.388.388,0,0,0,.189.726.4.4,0,0,0,.189-.051,17.609,17.609,0,0,1,3.468-1.527A.391.391,0,0,0,2438.577,605.317ZM2394.966,611a30.734,30.734,0,0,1-1.227-3.626.388.388,0,0,0-.75.2,32.044,32.044,0,0,0,1.259,3.717.39.39,0,0,0,.5.213A.391.391,0,0,0,2394.966,611Zm36.782-2.1a.39.39,0,0,0-.545-.075c-.974.746-1.98,1.594-2.991,2.525a.39.39,0,0,0,.265.675.4.4,0,0,0,.264-.1c.99-.915,1.977-1.752,2.931-2.478A.386.386,0,0,0,2431.748,608.9Zm18.611,3.295a13.331,13.331,0,0,0-1.625-3.634.388.388,0,0,0-.647.426,12.481,12.481,0,0,1,1.527,3.421.391.391,0,0,0,.371.284.5.5,0,0,0,.107-.016A.388.388,0,0,0,2450.358,612.2Zm-24.368,1.89a.391.391,0,0,0-.548.016c-.592.627-1.191,1.29-1.791,1.973-.272.312-.541.631-.8.951a.393.393,0,0,0,.06.548.4.4,0,0,0,.244.083.384.384,0,0,0,.3-.142c.252-.312.517-.623.781-.927.592-.679,1.188-1.334,1.771-1.953A.39.39,0,0,0,2425.99,614.088Zm-27.331,3.61a35.683,35.683,0,0,1-2.04-3.243.385.385,0,0,0-.524-.154.391.391,0,0,0-.154.529,35.015,35.015,0,0,0,2.087,3.318.382.382,0,0,0,.315.162.386.386,0,0,0,.316-.612ZM2451,616.1a.389.389,0,0,0-.777.043c.02.355.032.714.032,1.069a19.8,19.8,0,0,1-.189,2.727.393.393,0,0,0,.335.438h.051a.384.384,0,0,0,.383-.335,20.692,20.692,0,0,0,.193-2.825C2451.034,616.85,2451.022,616.471,2451,616.1Zm-47.3,7.37c-.935-.884-1.835-1.815-2.664-2.762a.387.387,0,1,0-.584.509c.844.967,1.76,1.918,2.719,2.817a.384.384,0,0,0,.265.107.4.4,0,0,0,.284-.122A.387.387,0,0,0,2403.7,623.475Zm17.416-3.37a.387.387,0,0,0-.533.13,31.344,31.344,0,0,0-1.839,3.464.388.388,0,0,0,.2.513.372.372,0,0,0,.158.036.4.4,0,0,0,.355-.229,29.954,29.954,0,0,1,1.791-3.377A.391.391,0,0,0,2421.118,620.105Zm28.574,3.295a.384.384,0,0,0-.489.241,18.517,18.517,0,0,1-1.57,3.452.39.39,0,0,0,.134.533.4.4,0,0,0,.2.051.385.385,0,0,0,.335-.189,19.27,19.27,0,0,0,1.638-3.6A.386.386,0,0,0,2449.692,623.4Zm-39.945,4.814c-1.074-.7-2.127-1.452-3.129-2.233a.386.386,0,1,0-.477.608c1.018.8,2.087,1.566,3.184,2.277a.371.371,0,0,0,.209.063.389.389,0,0,0,.213-.714Zm8.092-1.1a.386.386,0,0,0-.485.253,36.46,36.46,0,0,0-.963,3.8.393.393,0,0,0,.308.458.45.45,0,0,0,.075,0,.384.384,0,0,0,.379-.312,34.9,34.9,0,0,1,.943-3.717A.388.388,0,0,0,2417.839,627.113Zm-1.322,4.731c-1.168-.5-2.336-1.065-3.46-1.669a.387.387,0,1,0-.367.683c1.144.616,2.332,1.188,3.523,1.7a.413.413,0,0,0,.154.031.388.388,0,0,0,.15-.746ZM2445.9,630.1a.387.387,0,0,0-.549.008,14.3,14.3,0,0,1-2.951,2.336.389.389,0,0,0,.2.722.4.4,0,0,0,.2-.055,15.091,15.091,0,0,0,3.109-2.462A.387.387,0,0,0,2445.9,630.1Zm-22.08,4.139c-1.227-.28-2.474-.623-3.7-1.03a.389.389,0,1,0-.245.738c1.254.41,2.525.765,3.772,1.046a.353.353,0,0,0,.087.012.388.388,0,0,0,.086-.765Zm15.613-.008a.388.388,0,0,0-.489-.245,22.147,22.147,0,0,1-3.709.86.389.389,0,0,0,.055.773c.02,0,.039,0,.059,0a23.341,23.341,0,0,0,3.835-.892A.39.39,0,0,0,2439.429,634.227Zm-8.005.888h-.071a32.278,32.278,0,0,1-3.756-.225.387.387,0,0,0-.09.769,32.919,32.919,0,0,0,3.847.233h.071a.389.389,0,0,0,0-.777Zm-15.171-.422a.391.391,0,0,0-.422.347c-.123,1.267-.189,2.58-.205,3.91a.391.391,0,0,0,.387.391h0a.389.389,0,0,0,.387-.383c.012-1.31.079-2.6.2-3.843A.389.389,0,0,0,2416.252,634.692Zm.256,8.112a.385.385,0,0,0-.41-.363.394.394,0,0,0-.363.414c.083,1.263.209,2.569.379,3.883a.391.391,0,0,0,.386.339.2.2,0,0,0,.048,0,.387.387,0,0,0,.335-.434C2416.718,645.342,2416.592,644.052,2416.509,642.8Zm1.788,11.423c-.3-1.274-.572-2.545-.8-3.776a.387.387,0,1,0-.761.142c.232,1.243.5,2.529.813,3.815a.388.388,0,0,0,.379.3.39.39,0,0,0,.375-.477Zm2.115,7.434c-.407-1.239-.785-2.486-1.133-3.7a.388.388,0,0,0-.746.213c.347,1.223.734,2.474,1.144,3.729a.385.385,0,0,0,.367.264.332.332,0,0,0,.123-.02A.387.387,0,0,0,2420.412,661.661Zm2.659,7.272c-.485-1.207-.951-2.423-1.389-3.61a.39.39,0,0,0-.5-.233.386.386,0,0,0-.229.5c.438,1.2.907,2.423,1.393,3.638a.394.394,0,0,0,.363.241.364.364,0,0,0,.142-.028A.387.387,0,0,0,2423.071,668.933Zm3.082,7.1c-.549-1.18-1.086-2.367-1.591-3.531a.388.388,0,1,0-.71.312c.505,1.164,1.045,2.359,1.6,3.547a.388.388,0,1,0,.7-.327Zm3.436,6.948c-.6-1.152-1.2-2.316-1.76-3.452a.387.387,0,1,0-.694.343c.564,1.144,1.16,2.308,1.764,3.468a.39.39,0,0,0,.347.209.408.408,0,0,0,.178-.043A.39.39,0,0,0,2429.589,682.979Zm3.733,6.8c-.651-1.129-1.291-2.265-1.9-3.381a.387.387,0,1,0-.678.375c.615,1.121,1.255,2.261,1.906,3.389a.384.384,0,0,0,.335.2.375.375,0,0,0,.193-.051A.389.389,0,0,0,2433.322,689.778Zm3.989,6.648c-.687-1.1-1.369-2.21-2.024-3.306a.388.388,0,0,0-.667.4c.663,1.1,1.345,2.217,2.036,3.318a.379.379,0,0,0,.328.182.356.356,0,0,0,.205-.059A.385.385,0,0,0,2437.311,696.426Zm4.234,6.5c-.714-1.053-1.436-2.142-2.146-3.231a.386.386,0,1,0-.647.422c.71,1.1,1.436,2.186,2.154,3.243a.39.39,0,0,0,.319.174.4.4,0,0,0,.217-.067A.389.389,0,0,0,2441.544,702.928Zm4.5,6.333c-.008-.012-.876-1.148-2.292-3.141a.386.386,0,1,0-.631.446c1.424,2.008,2.3,3.156,2.308,3.164a.387.387,0,0,0,.308.154.4.4,0,0,0,.236-.079A.389.389,0,0,0,2446.046,709.261Z" transform="translate(-2391.92 -566.585)"/></g><g transform="translate(417.164 18.313)"><path class="b" d="M2771.958,613.851a13.858,13.858,0,0,0-3.875-.852.388.388,0,1,0-.055.773,13.1,13.1,0,0,1,3.661.8.328.328,0,0,0,.134.028.389.389,0,0,0,.134-.754Zm-7.375-.245a.386.386,0,0,0-.478-.268,6.331,6.331,0,0,0-3.429,2.158.389.389,0,0,0,.067.544.383.383,0,0,0,.241.079.39.39,0,0,0,.3-.146,5.583,5.583,0,0,1,3.022-1.89A.384.384,0,0,0,2764.583,613.606Zm13.916,4.6a21.438,21.438,0,0,0-3.03-2.521.389.389,0,0,0-.438.643,20.571,20.571,0,0,1,2.924,2.427.369.369,0,0,0,.272.114.4.4,0,0,0,.276-.114A.387.387,0,0,0,2778.5,618.207Zm-17.582,4.8a10.25,10.25,0,0,1-.714-3.575l0-.067a.393.393,0,0,0-.383-.395.386.386,0,0,0-.395.383v.079a11.072,11.072,0,0,0,.761,3.847.382.382,0,0,0,.363.253.4.4,0,0,0,.134-.024A.39.39,0,0,0,2760.918,623Zm22.3,1.464a32.261,32.261,0,0,0-2.146-3.287.389.389,0,1,0-.623.466,31.9,31.9,0,0,1,2.1,3.2.386.386,0,1,0,.671-.383Zm-18.2,4.885a23.238,23.238,0,0,1-2.364-2.987.389.389,0,0,0-.651.426,23.671,23.671,0,0,0,2.45,3.089.387.387,0,1,0,.564-.529Zm21.358,2.273c-.411-1.247-.88-2.478-1.4-3.658a.387.387,0,0,0-.513-.2.382.382,0,0,0-.2.509c.509,1.156.967,2.363,1.369,3.591a.39.39,0,0,0,.371.264.312.312,0,0,0,.118-.02A.386.386,0,0,0,2786.379,631.626Zm-15.431,2.541a31.18,31.18,0,0,1-3.125-2.214.386.386,0,1,0-.486.6,31.528,31.528,0,0,0,3.2,2.273.388.388,0,0,0,.411-.659Zm6.917,3.271a34.6,34.6,0,0,1-3.551-1.444.388.388,0,1,0-.331.7,35.24,35.24,0,0,0,3.63,1.476.375.375,0,0,0,.126.024.39.39,0,0,0,.126-.758Zm28.29.249a.39.39,0,0,0-.482-.264c-.43.122-.856.241-1.282.351a.389.389,0,0,0,.1.766.287.287,0,0,0,.1-.016q.645-.172,1.3-.355A.391.391,0,0,0,2806.155,637.686ZM2787.42,635.4a.388.388,0,0,0-.758.17c.284,1.251.509,2.525.671,3.788a.387.387,0,0,0,.383.335.21.21,0,0,0,.052,0,.385.385,0,0,0,.335-.434C2787.937,637.974,2787.708,636.676,2787.42,635.4Zm-2.1,3.8c-1.274-.174-2.545-.406-3.776-.694a.387.387,0,1,0-.174.754c1.251.3,2.545.533,3.847.71.02,0,.035,0,.051,0a.388.388,0,0,0,.051-.773Zm15.309-.564c-1.271.249-2.549.45-3.8.6a.388.388,0,0,0,.047.773c.016,0,.031,0,.047,0,1.271-.154,2.569-.355,3.859-.608a.387.387,0,0,0,.308-.454A.393.393,0,0,0,2800.634,638.633Zm-7.635.908c-.632.028-1.267.039-1.89.039-.667,0-1.31-.016-1.957-.044a.387.387,0,0,0-.031.773c.655.032,1.318.043,1.977.043h.011c.632,0,1.279-.012,1.918-.036a.389.389,0,1,0-.027-.777Zm-4.589,3.622a.394.394,0,0,0-.4-.375.383.383,0,0,0-.375.4c.008.343.016.687.016,1.026,0,.947-.039,1.89-.111,2.805a.387.387,0,0,0,.355.418h.032a.393.393,0,0,0,.387-.355c.075-.939.11-1.9.11-2.869C2788.423,643.865,2788.418,643.514,2788.411,643.163Zm-.943,7.347a.385.385,0,0,0-.458.3,28.354,28.354,0,0,1-1,3.689.389.389,0,0,0,.24.493.469.469,0,0,0,.126.02.385.385,0,0,0,.367-.26,29.731,29.731,0,0,0,1.03-3.792A.387.387,0,0,0,2787.468,650.51Zm-2.446,7.335a.387.387,0,0,0-.525.162,23.373,23.373,0,0,1-2.036,3.216.386.386,0,0,0,.075.544.361.361,0,0,0,.232.079.376.376,0,0,0,.308-.154,23.98,23.98,0,0,0,2.107-3.326A.382.382,0,0,0,2785.021,657.845Zm-4.565,6.226a.382.382,0,0,0-.544-.02,22.925,22.925,0,0,1-2.995,2.352.384.384,0,0,0-.111.537.379.379,0,0,0,.324.174.392.392,0,0,0,.213-.063,23.584,23.584,0,0,0,3.1-2.43A.387.387,0,0,0,2780.456,664.071Zm-59.749,4.218c-2.292-.742-3.626-1.278-3.642-1.282a.387.387,0,0,0-.288.718c.012.008,1.373.552,3.693,1.3a.417.417,0,0,0,.118.02.388.388,0,0,0,.119-.758Zm53.38.142a.388.388,0,0,0-.517-.193c-1.148.525-2.344,1.018-3.559,1.456a.388.388,0,0,0,.134.754.38.38,0,0,0,.13-.024c1.235-.446,2.45-.947,3.618-1.48A.388.388,0,0,0,2774.088,668.431Zm-45.931,1.941c-1.255-.3-2.513-.627-3.744-.971a.387.387,0,1,0-.209.746c1.239.347,2.509.675,3.772.979a.354.354,0,0,0,.091.008.386.386,0,0,0,.091-.762Zm38.671.765a.39.39,0,0,0-.478-.272c-1.215.339-2.474.643-3.744.9a.386.386,0,0,0,.079.766.241.241,0,0,0,.075-.008c1.29-.26,2.565-.568,3.8-.911A.391.391,0,0,0,2766.828,671.137Zm-31.092.75c-1.259-.2-2.537-.434-3.8-.687a.388.388,0,0,0-.458.3.393.393,0,0,0,.3.458c1.279.253,2.569.485,3.835.69a.317.317,0,0,0,.063,0,.387.387,0,0,0,.059-.769Zm7.674.908c-1.262-.095-2.557-.221-3.847-.375a.387.387,0,1,0-.091.769c1.3.158,2.6.284,3.879.379h.028a.387.387,0,0,0,.031-.773Zm15.4-.383c-1.247.174-2.537.312-3.836.41a.387.387,0,0,0,.032.773h.028c1.314-.1,2.616-.241,3.879-.414a.388.388,0,0,0-.1-.769Zm-7.687.6c-1.286.028-2.568.02-3.859-.016a.389.389,0,0,0-.024.777c.754.02,1.507.031,2.249.031.548,0,1.1-.008,1.649-.02a.388.388,0,0,0,.383-.395A.393.393,0,0,0,2751.124,673.012Z" transform="translate(-2716.535 -612.997)"/></g><g transform="translate(366.385 148.748)"><path class="b" d="M2632.709,943.579c-1.306.024-2.616.083-3.895.17a.389.389,0,0,0,.028.777c.008,0,.02,0,.028,0,1.262-.087,2.561-.142,3.855-.17a.385.385,0,0,0,.379-.395A.375.375,0,0,0,2632.709,943.579Zm7.8.312c-1.278-.15-2.588-.249-3.9-.292a.387.387,0,1,0-.027.773c1.29.043,2.58.142,3.835.288a.173.173,0,0,0,.043,0,.388.388,0,0,0,.047-.773Zm-15.569.229c-1.294.158-2.589.355-3.851.58a.388.388,0,0,0,.067.769.361.361,0,0,0,.067,0c1.251-.225,2.533-.418,3.811-.576a.384.384,0,0,0,.34-.43A.39.39,0,0,0,2624.936,944.12Zm23.216,1.373c-1.227-.379-2.505-.706-3.788-.975a.387.387,0,0,0-.158.758c1.259.264,2.51.584,3.717.959a.4.4,0,0,0,.115.016.387.387,0,0,0,.114-.757Zm-30.417.3a.386.386,0,0,0-.47-.284c-1.266.3-2.533.655-3.76,1.034a.388.388,0,0,0,.115.758.372.372,0,0,0,.115-.02c1.211-.371,2.462-.714,3.717-1.018A.387.387,0,0,0,2617.735,945.789Zm37.622,2.754a37.215,37.215,0,0,0-3.523-1.708.388.388,0,1,0-.3.714,35.7,35.7,0,0,1,3.453,1.673.392.392,0,0,0,.185.047.378.378,0,0,0,.339-.2A.384.384,0,0,0,2655.357,948.543Zm-45.04-.513a.386.386,0,0,0-.5-.221c-1.219.462-2.427.975-3.6,1.511a.394.394,0,0,0-.189.517.39.39,0,0,0,.355.225.413.413,0,0,0,.162-.036c1.152-.533,2.347-1.034,3.547-1.5A.388.388,0,0,0,2610.317,948.03Zm51.431,5.031a33.168,33.168,0,0,0-3.07-2.442.388.388,0,1,0-.446.635,32.819,32.819,0,0,1,3,2.383.375.375,0,0,0,.257.1.387.387,0,0,0,.26-.675Zm-58.486-1.827a.39.39,0,0,0-.529-.15c-1.144.627-2.273,1.3-3.354,2a.39.39,0,0,0,.213.714.382.382,0,0,0,.213-.063c1.062-.69,2.174-1.357,3.3-1.977A.393.393,0,0,0,2603.263,951.234Zm-6.53,4.182a.39.39,0,0,0-.544-.075c-1.045.8-2.059,1.645-3.007,2.5a.387.387,0,0,0,.256.675.376.376,0,0,0,.26-.1c.935-.844,1.934-1.673,2.959-2.458A.386.386,0,0,0,2596.732,955.416Zm70.15,3.563a29.3,29.3,0,0,0-2.379-3.125.383.383,0,0,0-.544-.039.388.388,0,0,0-.04.548,29.031,29.031,0,0,1,2.316,3.042.383.383,0,0,0,.324.174.393.393,0,0,0,.213-.063A.388.388,0,0,0,2666.882,958.979Zm115.3,3.2a25.449,25.449,0,0,0-3.93.213.386.386,0,0,0,.051.769.245.245,0,0,0,.052,0,25.357,25.357,0,0,1,3.808-.205.387.387,0,1,0,.02-.773Zm-191.242-1.61a.387.387,0,0,0-.548.024,25.588,25.588,0,0,0-2.49,3.07.386.386,0,0,0,.115.537.4.4,0,0,0,.209.059.389.389,0,0,0,.327-.174,25.321,25.321,0,0,1,2.411-2.967A.387.387,0,0,0,2590.94,960.573Zm198.94,3.156a21.347,21.347,0,0,0-3.78-1.121.393.393,0,0,0-.458.308.384.384,0,0,0,.3.454,20.577,20.577,0,0,1,3.646,1.081.369.369,0,0,0,.146.028.389.389,0,0,0,.142-.75Zm-15-.28a.39.39,0,0,0-.481-.268,29.9,29.9,0,0,0-3.7,1.3.391.391,0,0,0-.209.509.386.386,0,0,0,.509.205,29.317,29.317,0,0,1,3.61-1.263A.4.4,0,0,0,2774.882,963.449Zm-104.7,2.644a24.546,24.546,0,0,0-1.381-3.685.387.387,0,1,0-.7.328,23.5,23.5,0,0,1,1.338,3.571.391.391,0,0,0,.375.28.333.333,0,0,0,.107-.016A.386.386,0,0,0,2670.185,966.093Zm97.532.276a.392.392,0,0,0-.533-.146,36.778,36.778,0,0,0-3.287,2.131.388.388,0,1,0,.458.627,36,36,0,0,1,3.216-2.083A.388.388,0,0,0,2767.717,966.369Zm-6.317,4.478a.387.387,0,0,0-.548-.032c-.955.856-1.894,1.776-2.79,2.742a.389.389,0,0,0,.284.651.388.388,0,0,0,.284-.126c.88-.943,1.8-1.85,2.738-2.687A.388.388,0,0,0,2761.4,970.847Zm-90.469-.884a.387.387,0,0,0-.77.075c.063.659.1,1.318.1,1.969,0,.612-.031,1.227-.091,1.827a.392.392,0,0,0,.351.426h.035a.39.39,0,0,0,.387-.351c.059-.627.091-1.267.091-1.9C2671.033,971.333,2671,970.642,2670.93,969.964Zm85.139,6.5a.389.389,0,0,0-.545.067c-.789,1.006-1.558,2.071-2.288,3.168a.384.384,0,0,0,.111.537.373.373,0,0,0,.213.063.388.388,0,0,0,.323-.17c.718-1.081,1.476-2.131,2.253-3.121A.39.39,0,0,0,2756.07,976.462Zm-86.169.833a.388.388,0,0,0-.489.253,17.681,17.681,0,0,1-1.523,3.468.385.385,0,0,0,.146.529.371.371,0,0,0,.189.051.386.386,0,0,0,.339-.2,18.561,18.561,0,0,0,1.59-3.618A.387.387,0,0,0,2669.9,977.295Zm81.821,5.583a.386.386,0,0,0-.529.142c-.631,1.109-1.239,2.273-1.815,3.456a.385.385,0,0,0,.181.517.355.355,0,0,0,.166.039.387.387,0,0,0,.351-.217c.568-1.168,1.168-2.316,1.792-3.409A.387.387,0,0,0,2751.721,982.878Zm-85.5,1.18a.392.392,0,0,0-.549.035,21.267,21.267,0,0,1-2.766,2.608.389.389,0,0,0-.063.544.381.381,0,0,0,.3.15.388.388,0,0,0,.241-.083,22.32,22.32,0,0,0,2.868-2.707A.388.388,0,0,0,2666.223,984.058Zm-5.954,4.912a.388.388,0,0,0-.529-.146,29.685,29.685,0,0,1-3.448,1.661.389.389,0,0,0-.209.509.384.384,0,0,0,.359.241.394.394,0,0,0,.146-.031,31.231,31.231,0,0,0,3.535-1.7A.392.392,0,0,0,2660.269,988.97Zm88.019.856a.386.386,0,0,0-.505.209c-.489,1.18-.955,2.407-1.389,3.642a.387.387,0,0,0,.237.493.375.375,0,0,0,.13.024.4.4,0,0,0,.367-.261c.426-1.223.888-2.434,1.369-3.6A.385.385,0,0,0,2748.289,989.826Zm-95.114,2.249a.388.388,0,0,0-.509-.205,29.731,29.731,0,0,0-3.508,1.764.389.389,0,0,0-.138.529.4.4,0,0,0,.335.193.4.4,0,0,0,.2-.055,29.087,29.087,0,0,1,3.417-1.716A.388.388,0,0,0,2653.175,992.075Zm-6.715,3.835a.388.388,0,0,0-.544-.067,30.156,30.156,0,0,0-2.924,2.624.387.387,0,0,0,.008.548.383.383,0,0,0,.273.11.4.4,0,0,0,.276-.114,28.526,28.526,0,0,1,2.845-2.557A.385.385,0,0,0,2646.459,995.91Zm99.221,1.211a.389.389,0,0,0-.481.264c-.359,1.223-.7,2.486-1.014,3.76a.387.387,0,0,0,.284.47.381.381,0,0,0,.09.012.388.388,0,0,0,.379-.3c.308-1.263.647-2.517,1.006-3.729A.392.392,0,0,0,2745.681,997.122Zm-104.7,4.253a.388.388,0,0,0-.544.075,31.579,31.579,0,0,0-2.151,3.287.389.389,0,0,0,.146.529.406.406,0,0,0,.189.047.383.383,0,0,0,.34-.193,30.611,30.611,0,0,1,2.095-3.2A.384.384,0,0,0,2640.983,1001.375Zm102.8,3.267a.385.385,0,0,0-.462.292c-.292,1.274-.6,2.537-.915,3.756a.387.387,0,0,0,.375.485.383.383,0,0,0,.375-.292c.32-1.223.632-2.494.92-3.78A.385.385,0,0,0,2743.787,1004.642Zm-106.718,3.409a.384.384,0,0,0-.505.209,32.621,32.621,0,0,0-1.286,3.705.386.386,0,0,0,.268.477.331.331,0,0,0,.106.016.382.382,0,0,0,.371-.284,32.96,32.96,0,0,1,1.255-3.618A.382.382,0,0,0,2637.069,1008.051Zm104.785,4.1a.39.39,0,0,0-.485.26c-.375,1.255-.773,2.494-1.179,3.677a.386.386,0,0,0,.24.493.448.448,0,0,0,.126.02.394.394,0,0,0,.367-.26c.41-1.2.813-2.442,1.192-3.709A.389.389,0,0,0,2741.853,1012.151Zm-106.966,3.322a.392.392,0,0,0-.446.323,33.221,33.221,0,0,0-.379,3.9.388.388,0,0,0,.371.4h.016a.384.384,0,0,0,.387-.371,33.174,33.174,0,0,1,.371-3.812A.389.389,0,0,0,2634.887,1015.473Zm104.465,4.017a.387.387,0,0,0-.5.217c-.481,1.211-.99,2.4-1.515,3.547a.39.39,0,0,0,.355.548.384.384,0,0,0,.351-.225c.529-1.156,1.045-2.363,1.531-3.587A.386.386,0,0,0,2739.352,1019.489Zm-103.9,7.86a32.885,32.885,0,0,1-.533-3.792.388.388,0,0,0-.773.063,32.793,32.793,0,0,0,.548,3.883.384.384,0,0,0,.379.312.454.454,0,0,0,.075-.008A.386.386,0,0,0,2635.447,1027.349Zm100.7-.8a.386.386,0,0,0-.525.158c-.607,1.148-1.25,2.273-1.91,3.346a.39.39,0,0,0,.126.533.383.383,0,0,0,.205.055.379.379,0,0,0,.328-.182c.67-1.089,1.322-2.225,1.937-3.385A.389.389,0,0,0,2736.152,1026.548Zm-98.29,8.049a31.21,31.21,0,0,1-1.428-3.551.389.389,0,0,0-.738.245,31.723,31.723,0,0,0,1.468,3.638.379.379,0,0,0,.347.221.422.422,0,0,0,.17-.036A.389.389,0,0,0,2637.862,1034.6Zm94.266-1.432a.387.387,0,0,0-.541.091c-.75,1.046-1.543,2.068-2.356,3.038a.387.387,0,0,0,.047.544.381.381,0,0,0,.249.091.4.4,0,0,0,.3-.138c.824-.982,1.629-2.02,2.391-3.085A.383.383,0,0,0,2732.127,1033.165Zm-90.15,7.868a31.272,31.272,0,0,1-2.257-3.089.389.389,0,1,0-.655.418,31.24,31.24,0,0,0,2.316,3.164.374.374,0,0,0,.3.142.394.394,0,0,0,.249-.091A.384.384,0,0,0,2641.978,1041.033Zm85.218-1.9a.387.387,0,0,0-.549,0c-.9.911-1.843,1.791-2.805,2.62a.388.388,0,0,0-.043.548.38.38,0,0,0,.3.134.389.389,0,0,0,.252-.091c.979-.844,1.941-1.74,2.853-2.667A.387.387,0,0,0,2727.2,1039.131Zm-5.832,5.09a.4.4,0,0,0-.545-.087c-1.022.742-2.1,1.456-3.2,2.119a.39.39,0,0,0-.13.533.383.383,0,0,0,.331.189.372.372,0,0,0,.2-.059c1.121-.675,2.213-1.4,3.255-2.15A.392.392,0,0,0,2721.364,1044.221Zm-73.835,2.064a32.2,32.2,0,0,1-2.932-2.462.388.388,0,0,0-.532.564,33.665,33.665,0,0,0,3,2.521.4.4,0,0,0,.232.079.386.386,0,0,0,.312-.158A.39.39,0,0,0,2647.529,1046.284Zm67.242,2a.384.384,0,0,0-.521-.174c-1.125.564-2.3,1.1-3.5,1.59a.387.387,0,0,0,.146.746.407.407,0,0,0,.15-.032c1.211-.5,2.407-1.038,3.551-1.61A.39.39,0,0,0,2714.771,1048.281Zm-60.645,1.894a36.986,36.986,0,0,1-3.405-1.772.388.388,0,0,0-.391.671,37.943,37.943,0,0,0,3.472,1.807.389.389,0,0,0,.324-.706Zm53.507,1.1a.389.389,0,0,0-.489-.245c-1.191.395-2.435.765-3.693,1.1a.387.387,0,0,0,.1.762.4.4,0,0,0,.1-.012c1.274-.335,2.533-.71,3.74-1.109A.392.392,0,0,0,2707.633,1051.276Zm-46.271,1.452c-1.255-.324-2.494-.7-3.677-1.117a.389.389,0,0,0-.257.734c1.2.422,2.462.8,3.74,1.132a.267.267,0,0,0,.094.016.389.389,0,0,0,.1-.766Zm38.793.576a.385.385,0,0,0-.458-.3c-1.227.249-2.506.477-3.8.671a.389.389,0,0,0,.059.773.309.309,0,0,0,.059-.008c1.3-.2,2.592-.422,3.835-.679A.383.383,0,0,0,2700.156,1053.3Zm-31.226.793c-1.29-.142-2.573-.328-3.812-.548a.389.389,0,0,0-.138.765c1.254.225,2.557.41,3.863.556h.044a.388.388,0,0,0,.043-.773Zm23.145.067c-1.246.13-2.541.237-3.847.32a.389.389,0,0,0,.024.777c.012,0,.02,0,.028,0,1.314-.083,2.616-.189,3.879-.323a.387.387,0,0,0-.083-.77Zm-15.435.446c-1.255-.047-2.553-.114-3.863-.2a.389.389,0,0,0-.047.777c1.314.083,2.62.146,3.883.193h.016a.387.387,0,0,0,.012-.773Zm7.733.047c-1.01.024-2.04.039-3.082.039-.26,0-.525,0-.785,0a.389.389,0,0,0,0,.777h.825c1.03,0,2.064-.012,3.066-.039a.383.383,0,0,0,.375-.4A.389.389,0,0,0,2684.373,1054.657Z" transform="translate(-2587.839 -943.579)"/></g><g transform="translate(516.773 227.6)"><path class="b" d="M2977.367,1146.733c-1.357-1.961-2.3-3.153-2.312-3.164a.389.389,0,0,0-.608.485c.012.012.943,1.18,2.285,3.121a.381.381,0,0,0,.319.17.4.4,0,0,0,.221-.071A.391.391,0,0,0,2977.367,1146.733Zm4.15,6.609c-.627-1.109-1.3-2.237-2-3.35a.388.388,0,1,0-.655.414c.69,1.1,1.357,2.221,1.981,3.318a.388.388,0,1,0,.674-.383Zm3.476,6.992c-.493-1.156-1.046-2.348-1.642-3.543a.387.387,0,0,0-.694.343c.592,1.184,1.136,2.363,1.622,3.5a.389.389,0,0,0,.355.237.426.426,0,0,0,.154-.032A.388.388,0,0,0,2984.993,1160.333Zm2.486,7.414c-.284-1.211-.651-2.478-1.089-3.76a.385.385,0,0,0-.489-.245.39.39,0,0,0-.245.493c.43,1.263.789,2.5,1.069,3.693a.389.389,0,0,0,.379.3.612.612,0,0,0,.087-.008A.389.389,0,0,0,2987.479,1167.747Zm-2.734,2.182a14.523,14.523,0,0,0-3.807,1.124.387.387,0,0,0,.158.742.377.377,0,0,0,.158-.031,13.649,13.649,0,0,1,3.6-1.065.389.389,0,1,0-.111-.769Zm7.769,1.231a14.156,14.156,0,0,0-3.788-1.2.385.385,0,0,0-.446.319.39.39,0,0,0,.32.446,13.389,13.389,0,0,1,3.583,1.132.414.414,0,0,0,.165.036.387.387,0,0,0,.166-.738Zm-4.356.454a.387.387,0,0,0-.43-.343.392.392,0,0,0-.343.43,24.038,24.038,0,0,1,.15,2.62c0,.4-.012.8-.036,1.188a.391.391,0,0,0,.367.41h.02a.386.386,0,0,0,.386-.367c.024-.4.036-.817.036-1.231A25.621,25.621,0,0,0,2988.158,1171.614Zm-10.081,1.539a.389.389,0,0,0-.544-.079,22.093,22.093,0,0,0-2.924,2.648.387.387,0,0,0,.02.548.391.391,0,0,0,.548-.02A21.275,21.275,0,0,1,2978,1173.7.387.387,0,0,0,2978.077,1173.153Zm20.833,2.569a21.584,21.584,0,0,0-3.006-2.549.388.388,0,0,0-.45.631,20.788,20.788,0,0,1,2.9,2.458.386.386,0,0,0,.549.008A.387.387,0,0,0,2998.91,1175.722Zm-26.2,2.987a.385.385,0,0,0-.536.106,22.633,22.633,0,0,0-1.9,3.46.386.386,0,0,0,.2.509.359.359,0,0,0,.154.032.386.386,0,0,0,.355-.233,22.133,22.133,0,0,1,1.835-3.338A.387.387,0,0,0,2972.71,1178.708Zm30.243,3.756a16.16,16.16,0,0,0-1.617-3.618.39.39,0,0,0-.533-.13.383.383,0,0,0-.13.533,15.571,15.571,0,0,1,1.539,3.444.388.388,0,0,0,.371.272.4.4,0,0,0,.114-.016A.387.387,0,0,0,3002.954,1182.465Zm-15.577-3.484a.39.39,0,0,0-.482.268,14.972,14.972,0,0,1-1.452,3.476.382.382,0,0,0,.138.529.385.385,0,0,0,.533-.138,15.783,15.783,0,0,0,1.531-3.658A.387.387,0,0,0,2987.377,1178.981Zm-3.682,6.727a.387.387,0,0,0-.548,0,17.8,17.8,0,0,1-2.951,2.375.388.388,0,0,0,.213.714.369.369,0,0,0,.209-.063,18.385,18.385,0,0,0,3.078-2.482A.39.39,0,0,0,2983.7,1185.708Zm-13.435,4a4.242,4.242,0,0,1-.5-2.182,8.635,8.635,0,0,1,.114-1.341.387.387,0,0,0-.323-.442.382.382,0,0,0-.442.324,9.157,9.157,0,0,0-.123,1.46,5.052,5.052,0,0,0,.6,2.577.385.385,0,0,0,.533.138A.391.391,0,0,0,2970.26,1189.713Zm33.4-3.35a.381.381,0,0,0-.41-.363.391.391,0,0,0-.363.414c.028.414.043.84.043,1.263a21.63,21.63,0,0,1-.158,2.537.383.383,0,0,0,.335.43.2.2,0,0,0,.047,0,.391.391,0,0,0,.387-.339,21.55,21.55,0,0,0,.166-2.632C3003.708,1187.235,3003.692,1186.793,3003.66,1186.363Zm-26.306,3.74a.388.388,0,0,0-.513-.2,11.535,11.535,0,0,1-3.578,1.046.387.387,0,0,0,.031.773h.032a12.354,12.354,0,0,0,3.835-1.109A.392.392,0,0,0,2977.355,1190.1Zm25.134,3.583a.388.388,0,0,0-.477.268,31.289,31.289,0,0,1-1.263,3.618.385.385,0,0,0,.209.505.329.329,0,0,0,.15.032.4.4,0,0,0,.359-.237,32.131,32.131,0,0,0,1.29-3.709A.383.383,0,0,0,3002.488,1193.686Zm-2.884,7.189a.386.386,0,0,0-.525.154c-.706,1.278-1.235,2.04-1.239,2.048a.387.387,0,0,0,.095.541.393.393,0,0,0,.541-.1,24.618,24.618,0,0,0,1.282-2.115A.39.39,0,0,0,2999.6,1200.875Z" transform="translate(-2968.99 -1143.424)"/></g><g transform="translate(552.972 44.826)"><path class="b" d="M3080.211,680.211c-1.282-.039-2.6-.016-3.91.063a.387.387,0,0,0,.02.773h.024c1.286-.079,2.58-.1,3.843-.059a.389.389,0,0,0,.024-.777Zm7.753.951c-1.267-.276-2.565-.5-3.855-.655a.388.388,0,0,0-.095.769c1.266.154,2.541.371,3.784.643a.3.3,0,0,0,.083.012.389.389,0,0,0,.083-.769Zm7.445,2.383c-1.2-.513-2.435-.971-3.665-1.365a.387.387,0,1,0-.237.738c1.211.387,2.419.837,3.6,1.342a.388.388,0,1,0,.3-.714Zm6.881,3.705c-1.089-.718-2.218-1.4-3.358-2.008a.387.387,0,0,0-.367.683c1.116.6,2.225,1.267,3.3,1.973a.375.375,0,0,0,.213.063.383.383,0,0,0,.323-.174A.388.388,0,0,0,3102.291,687.25Zm6.124,4.853c-.947-.892-1.941-1.752-2.955-2.557a.389.389,0,1,0-.485.608c1,.793,1.977,1.637,2.908,2.513a.385.385,0,0,0,.268.107.375.375,0,0,0,.28-.122A.387.387,0,0,0,3108.415,692.1Zm5.216,5.824c-.781-1.034-1.618-2.052-2.486-3.022a.389.389,0,0,0-.58.517c.856.955,1.677,1.953,2.447,2.971a.375.375,0,0,0,.308.154.386.386,0,0,0,.312-.62Zm4.139,6.629c-.58-1.148-1.227-2.292-1.921-3.405a.39.39,0,0,0-.536-.122.384.384,0,0,0-.123.533c.683,1.093,1.318,2.217,1.89,3.346a.387.387,0,1,0,.69-.351Zm-13.616,6.5a5.2,5.2,0,0,0-3.666-1.76.379.379,0,0,0-.41.363.392.392,0,0,0,.367.41,4.452,4.452,0,0,1,3.133,1.507.385.385,0,0,0,.288.126.377.377,0,0,0,.26-.1A.384.384,0,0,0,3104.154,711.054Zm16.434.8a35.883,35.883,0,0,0-1.219-3.725.387.387,0,0,0-.722.28,35.348,35.348,0,0,1,1.192,3.646.384.384,0,0,0,.375.288.422.422,0,0,0,.1-.012A.389.389,0,0,0,3120.587,711.859Zm-23.512-1.492a.383.383,0,0,0-.517-.181,14.514,14.514,0,0,0-3.287,2.233.388.388,0,0,0-.035.548.392.392,0,0,0,.292.13.374.374,0,0,0,.256-.1,13.656,13.656,0,0,1,3.109-2.115A.384.384,0,0,0,3097.075,710.368Zm8.921,4.257a.39.39,0,0,0-.75.213,17.723,17.723,0,0,1,.592,3.74.388.388,0,0,0,.387.363h.024a.386.386,0,0,0,.363-.41A18.816,18.816,0,0,0,3106,714.625Zm-14.851.631a.389.389,0,0,0-.541.079,21.19,21.19,0,0,0-2.056,3.37.394.394,0,0,0,.182.521.369.369,0,0,0,.169.039.389.389,0,0,0,.347-.221,20.379,20.379,0,0,1,1.977-3.243A.386.386,0,0,0,3091.145,715.257Zm30.212.454a.384.384,0,0,0-.434-.331.388.388,0,0,0-.335.434,24.834,24.834,0,0,1,.221,3.239c0,.189,0,.379-.008.568a.388.388,0,0,0,.378.4h.008a.388.388,0,0,0,.387-.379c.008-.193.008-.391.008-.588A25.662,25.662,0,0,0,3121.357,715.71Zm-15.12,6.333a.379.379,0,0,0-.41.367c-.067,1.192-.2,2.482-.379,3.827a.39.39,0,0,0,.331.438c.016,0,.036,0,.052,0a.391.391,0,0,0,.387-.335c.186-1.369.316-2.675.387-3.89A.391.391,0,0,0,3106.237,722.043Zm-18.58.091a.389.389,0,0,0-.47.28,16.737,16.737,0,0,0-.528,3.926.39.39,0,0,0,.382.395h0a.393.393,0,0,0,.391-.383,16.246,16.246,0,0,1,.5-3.744A.387.387,0,0,0,3087.657,722.134Zm33.151.963a.389.389,0,0,0-.466.292c-.087.383-.186.766-.3,1.132-.261.852-.544,1.7-.844,2.521a.386.386,0,0,0,.229.5.424.424,0,0,0,.135.024.387.387,0,0,0,.363-.253c.308-.833.6-1.7.86-2.565.119-.383.221-.785.312-1.184A.389.389,0,0,0,3120.808,723.1ZM3089.3,733.568a13.939,13.939,0,0,1-1.428-3.48.387.387,0,0,0-.47-.28.392.392,0,0,0-.28.474,14.79,14.79,0,0,0,1.508,3.677.388.388,0,0,0,.335.193.388.388,0,0,0,.335-.584Zm15.96-3.835a.388.388,0,0,0-.458.3c-.249,1.231-.545,2.494-.88,3.752a.387.387,0,0,0,.276.474.429.429,0,0,0,.1.016.391.391,0,0,0,.375-.292c.339-1.271.639-2.549.891-3.8A.393.393,0,0,0,3105.262,729.733Zm12.965.667a.389.389,0,0,0-.517.182,35.46,35.46,0,0,1-1.831,3.37.39.39,0,0,0,.126.537.394.394,0,0,0,.533-.126,36.545,36.545,0,0,0,1.874-3.445A.39.39,0,0,0,3118.228,730.4Zm-24.1,9.055a25.133,25.133,0,0,1-2.612-2.782.393.393,0,0,0-.548-.055.388.388,0,0,0-.055.544,25.938,25.938,0,0,0,2.7,2.865.376.376,0,0,0,.26.1.387.387,0,0,0,.26-.675Zm20.087-2.434a.384.384,0,0,0-.544.055,22.462,22.462,0,0,1-2.64,2.742.389.389,0,0,0,.253.683.4.4,0,0,0,.257-.095,23.236,23.236,0,0,0,2.73-2.841A.388.388,0,0,0,3114.215,737.021Zm-10.894.221a.386.386,0,0,0-.489.248c-.387,1.2-.817,2.419-1.279,3.642a.386.386,0,0,0,.225.5.4.4,0,0,0,.134.024.384.384,0,0,0,.363-.249c.469-1.235.9-2.474,1.294-3.681A.382.382,0,0,0,3103.321,737.242Zm-2.656,5.808a12.148,12.148,0,0,1-3.488-1.353.388.388,0,1,0-.383.675,13.006,13.006,0,0,0,3.713,1.44.525.525,0,0,0,.079.008.389.389,0,0,0,.079-.769Zm7.777-.923a.39.39,0,0,0-.525-.166,11.641,11.641,0,0,1-3.54,1.188.387.387,0,0,0,.06.769.364.364,0,0,0,.063,0,12.421,12.421,0,0,0,3.776-1.263A.391.391,0,0,0,3108.443,742.126Zm-7.828,2.383a.389.389,0,0,0-.509.205c-.5,1.164-1.042,2.352-1.6,3.527a.389.389,0,0,0,.182.517.439.439,0,0,0,.17.035.378.378,0,0,0,.347-.221c.568-1.184,1.109-2.379,1.614-3.555A.385.385,0,0,0,3100.615,744.509Zm-3.318,7.031a.386.386,0,0,0-.525.162c-.588,1.124-1.211,2.269-1.851,3.4a.388.388,0,0,0,.15.529.37.37,0,0,0,.189.051.391.391,0,0,0,.339-.2c.639-1.136,1.267-2.289,1.858-3.421A.385.385,0,0,0,3097.3,751.541Zm-3.8,6.763a.388.388,0,0,0-.533.134c-.655,1.081-1.345,2.186-2.052,3.283a.387.387,0,0,0,.651.418c.71-1.1,1.4-2.214,2.063-3.3A.384.384,0,0,0,3093.5,758.3Zm-4.187,6.542a.39.39,0,0,0-.54.1c-.718,1.057-1.464,2.123-2.221,3.176a.386.386,0,0,0,.316.612.381.381,0,0,0,.315-.162c.758-1.053,1.511-2.127,2.233-3.188A.386.386,0,0,0,3089.314,764.845Zm-4.513,6.317a.391.391,0,0,0-.545.079c-.769,1.022-1.562,2.056-2.363,3.07a.389.389,0,0,0,.3.627.4.4,0,0,0,.308-.146c.8-1.022,1.6-2.06,2.375-3.085A.39.39,0,0,0,3084.8,771.162Zm-4.79,6.116a.388.388,0,0,0-.544.055c-.812.99-1.649,1.989-2.49,2.971a.392.392,0,0,0,.043.548.38.38,0,0,0,.544-.043c.844-.986,1.685-1.993,2.5-2.983A.393.393,0,0,0,3080.01,777.278Zm-5.034,5.919a.384.384,0,0,0-.545.035c-.853.959-1.728,1.925-2.6,2.876a.387.387,0,0,0,.019.548.4.4,0,0,0,.264.1.388.388,0,0,0,.284-.126c.88-.955,1.76-1.925,2.612-2.888A.388.388,0,0,0,3074.976,783.2Zm-5.252,5.729a.391.391,0,0,0-.549.012c-.9.947-1.815,1.882-2.707,2.782a.385.385,0,0,0,.272.659.388.388,0,0,0,.276-.115c.9-.9,1.811-1.843,2.719-2.79A.387.387,0,0,0,3069.724,788.926Zm-5.473,5.524a.387.387,0,0,0-.549-.008c-1.763,1.7-2.829,2.647-2.841,2.655a.389.389,0,0,0,.261.679.382.382,0,0,0,.256-.1c.011-.008,1.085-.967,2.861-2.679A.384.384,0,0,0,3064.251,794.45Z" transform="translate(-3060.733 -680.193)"/></g></g></g><g transform="translate(1863.829 723.915)"><g transform="translate(53.528 0)"><g transform="translate(14.85 66.743)"><path class="e" d="M2351.029,1222.173s9.911-18.769,21.975-21.742,29.861,2.655,22.634,5.78c-3.7,1.6-7.656,1.5-10.919,2.391a20.893,20.893,0,0,0-6.433,2.923s14.979-2.48,15.485,1.882c.419,3.611-15.71,8.5-15.71,8.5s18.461-3.125,15.33,1.576-15.205,7.333-15.205,7.333,24.809-.371,21.044,5.005-20.5.173-22.045,5.65-1.253,24.624-17,22.2Z" transform="translate(-2351.029 -1199.59)"/></g><g transform="translate(0.231 306.172)"><path class="f" d="M2404.981,1882.794h-85.956c-2.4-21.954-3.974-41-4.988-57.086l-.031-.521a24.393,24.393,0,0,1,.213-4.676c.043-.3.095-.584.154-.868a14.144,14.144,0,0,1,6.088-9.4c12.093-8.167,38.671-1.728,58.443,4.932,5.828,1.961,11.064,3.942,15.163,5.575,5.433,2.162,8.87,3.713,9.048,3.792h0l0,0,1.085,40.869Z" transform="translate(-2313.978 -1806.41)"/></g><g transform="translate(79.01 263.051)"><path class="f" d="M2606.221,1816.626h-86.094c-2.447-22.652-4-42.152-4.968-58.439-.075-1.219-.142-2.423-.209-3.606q-.154-2.764-.288-5.4c-.391-7.733-.643-14.615-.8-20.64-.54-20.837.063-31.419.063-31.419l72.04,15.932,17.333,3.831.166,6.171.726,27.426.237,8.842.186,7.074v.02l.931,35Z" transform="translate(-2513.64 -1697.12)"/></g><g transform="translate(106.44 355.903)"><path class="b" d="M2608.594,1933.369c-.19.126-17.31,11.569-24.219,25.734h-1.216c6.913-14.682,24.633-26.523,24.83-26.653Z" transform="translate(-2583.16 -1932.45)"/></g><g transform="translate(65.993 38.152)"><path class="g" d="M2509.756,1177.995l-5.652-16.939-1.644-4.932-9.673-29-1.273,28.843-.762,17.312-.241,5.48c-.164,3.72-2.605,4.5-5.577,7.735-1.2,1.31-8.908,9.251-.164,12.838,10.893,4.47,31.256-2.3,39-11.163C2523.707,1188.161,2511.583,1183.469,2509.756,1177.995Z" transform="translate(-2480.648 -1127.128)"/></g><g transform="translate(45.952 12.684)"><ellipse class="g" cx="31.135" cy="27.692" rx="31.135" ry="27.692" transform="matrix(0.212, -0.977, 0.977, 0.212, 0, 60.86)"/></g><g transform="translate(40.232 0.393)"><path class="b" d="M2439.107,1069.19c-15.865.553-23.561-7.948-23.743-15.818-.234-10.093,6.609-19.034,14.579-15.282s4.548-5.448,12.211-6.425c14.319-1.825,17.006,7.632,28.726,8.093,15.458.607,33.083,24.525,20.128,41.982C2491.008,1081.74,2451.637,1068.753,2439.107,1069.19Z" transform="translate(-2415.358 -1031.431)"/></g><g transform="translate(49.854 20.845)"><path class="b" d="M2439.746,1090.393s16.951,15.156,14.715,23.684-1.67,11.869,8.231,16.417,1.158,11.937,14.352,12.47,29.358-13.946,29.354-37.748a34.366,34.366,0,0,0-8.21-21.952Z" transform="translate(-2439.746 -1083.264)"/></g><g transform="translate(54.805 48.751)"><path class="g" d="M2453.5,1156.52a6.012,6.012,0,0,1,7.888-1.7c2.436,1.595,2.853,4.938.931,7.469a6.012,6.012,0,0,1-7.888,1.7C2452,1162.395,2451.579,1159.051,2453.5,1156.52Z" transform="translate(-2452.293 -1153.99)"/></g><g transform="translate(117.556 51.162)"><path class="b" d="M2616.016,1166.2a.392.392,0,0,1-.383-.3c-.766-3.2-4.065-5.042-4.1-5.06a.394.394,0,0,1,.377-.691c.148.081,3.638,2.023,4.486,5.568a.394.394,0,0,1-.291.474A.412.412,0,0,1,2616.016,1166.2Z" transform="translate(-2611.331 -1160.102)"/></g><g transform="translate(117.556 45.635)"><path class="b" d="M2611.725,1150.562a.394.394,0,0,1-.022-.787c.043,0,4.337-.292,4.949-3.365a.394.394,0,0,1,.773.154c-.732,3.673-5.475,3.986-5.677,4Z" transform="translate(-2611.332 -1146.092)"/></g><g transform="translate(45.998)"><path class="b" d="M2441.194,1036.9a3.2,3.2,0,0,1-.851-.121,11.366,11.366,0,0,1-3.249-1.606c-1.768-1.139-3.3-2.122-6.616-1.127a.394.394,0,1,1-.227-.754c3.668-1.1,5.5.079,7.269,1.219a10.776,10.776,0,0,0,3.032,1.51,1.961,1.961,0,0,0,1.719-.248c1.733-1.184,2.141-4.942,2.145-4.98a.394.394,0,0,1,.784.081c-.018.17-.452,4.161-2.483,5.55A2.651,2.651,0,0,1,2441.194,1036.9Z" transform="translate(-2429.971 -1030.434)"/></g><g transform="translate(84.242 2.837)"><path class="b" d="M2537.2,1042.265c-5.6,0-9.965-3.776-10.167-3.953a.394.394,0,1,1,.52-.591c.052.045,5.257,4.541,11.331,3.632a.394.394,0,0,1,.117.779A12.161,12.161,0,0,1,2537.2,1042.265Z" transform="translate(-2526.899 -1037.623)"/></g><g transform="translate(59.032 55.824)"><path class="b" d="M2464.228,1175.951a4.046,4.046,0,0,1-1.09-.132.19.19,0,0,1,.115-.362c.146.046,3.59,1.066,6.023-3.44a.187.187,0,0,1,.256-.077.19.19,0,0,1,.077.257C2467.872,1175.417,2465.566,1175.951,2464.228,1175.951Z" transform="translate(-2463.006 -1171.918)"/></g><g transform="translate(0 294.104)"><path class="b" d="M2313.683,1807.189s115.083-6.286,169.7,6.877l.813-15.569-76.577-22.673-61.826,1.519-18.993,4.052-13.4,20.7Z" transform="translate(-2313.393 -1775.824)"/></g><g transform="translate(0 92.281)"><path class="h" d="M2473.165,1307.868s-10.129-43.555-72.091-43.552c-107.978.005-77.69,88.074-87.681,228.091,0,0,69.615-15.088,170.351,4.991,0,0,9.806-75.829-2.864-139.932C2477.534,1340.54,2478.139,1322.585,2473.165,1307.868Z" transform="translate(-2313.393 -1264.316)"/></g></g><g transform="translate(0 92.279)"><path class="h" d="M2306.506,1264.309s-34.641.505-60.4,24.815-58.928,57.8-65.965,77.064c-8.666,23.723,7.288,47.527,27.546,48.034s38.419-14.181,38.419-14.181Z" transform="translate(-2177.73 -1264.309)"/></g><g transform="translate(1.041 84.192)"><path class="h" d="M2250.827,1243.813s-67.371,74.939-70.41,117.482c-2.5,34.949,90.152-45.582,97.241-61.789s-3.667-37.44-3.667-37.44Z" transform="translate(-2180.367 -1243.813)"/></g><g transform="translate(168.478 103.124)"><path class="h" d="M2718.428,1409.084c-10.129-74.957-95.5-117.289-95.5-117.289l-18.2,94.018,35.555,11.283a28.388,28.388,0,0,1,14.685,43.391c-14.157,19.992-22.429,46.8-7.808,41.861C2672.142,1473.912,2723.493,1442.005,2718.428,1409.084Z" transform="translate(-2604.726 -1291.795)"/></g><g transform="translate(21.517 100.288)"><path class="b" d="M2232.94,1373l-.677-.344c.364-.717,36.791-71.85,72.225-88.046l.316.691C2269.61,1301.385,2233.3,1372.284,2232.94,1373Z" transform="translate(-2232.263 -1284.609)"/></g><g transform="translate(219.51 179.324)"><path class="b" d="M2741.637,1596.8l-.759-.042c3.005-54.925-6.716-111.15-6.815-111.712l.748-.131C2734.91,1485.482,2744.646,1541.793,2741.637,1596.8Z" transform="translate(-2734.064 -1484.92)"/></g><g transform="translate(55.984 191.302)"><path class="b" d="M2320,1559.886l-.386-.655c20.353-12.005,46.841-43.637,47.107-43.955l.583.487C2367.043,1516.082,2340.471,1547.814,2320,1559.886Z" transform="translate(-2319.619 -1515.277)"/></g></g><g transform="translate(2074.916 671.632)"><path class="i" d="M2712.716,900.354a2.427,2.427,0,1,1,2.428,2.428A2.427,2.427,0,0,1,2712.716,900.354Z" transform="translate(-2712.716 -897.926)"/></g><g transform="translate(1994.126 590.842)"><path class="i" d="M2507.96,695.6a2.428,2.428,0,1,1,2.427,2.428A2.427,2.427,0,0,1,2507.96,695.6Z" transform="translate(-2507.96 -693.17)"/></g><g transform="translate(1885.036 658.365)"><path class="i" d="M2231.479,866.73a2.428,2.428,0,1,1,2.428,2.428A2.427,2.427,0,0,1,2231.479,866.73Z" transform="translate(-2231.479 -864.303)"/></g><g transform="translate(1936.792 728.897)"><path class="i" d="M2362.65,1045.489a2.427,2.427,0,1,1,2.427,2.428A2.427,2.427,0,0,1,2362.65,1045.489Z" transform="translate(-2362.65 -1043.062)"/></g><g transform="translate(2003.886 686.906)"><path class="i" d="M2532.7,939.064a2.428,2.428,0,1,1,2.427,2.428A2.427,2.427,0,0,1,2532.7,939.064Z" transform="translate(-2532.697 -936.637)"/></g><g transform="translate(2020.352 712.007)"><path class="i" d="M2574.427,1002.68a2.428,2.428,0,1,1,2.428,2.428A2.427,2.427,0,0,1,2574.427,1002.68Z" transform="translate(-2574.427 -1000.253)"/></g><g transform="translate(1800.164 702.417)"><path class="i" d="M2016.375,978.377a2.427,2.427,0,1,1,2.427,2.428A2.427,2.427,0,0,1,2016.375,978.377Z" transform="translate(-2016.375 -975.949)"/></g><g transform="translate(2223.232 704.694)"><path class="i" d="M3088.962,992.818a.347.347,0,0,1-.25-.587c2.322-2.423,6.808-2.889,8.24-2.977-1.2-3.9-5.662-6.867-5.708-6.9a.347.347,0,0,1,.381-.58c.206.135,5.053,3.362,6.114,7.722a.347.347,0,0,1-.33.429c-.056,0-5.668.146-8.2,2.783A.344.344,0,0,1,3088.962,992.818Z" transform="translate(-3088.615 -981.72)"/></g><g transform="translate(2220.992 580.477)"><path class="i" d="M3089.855,678.167a.343.343,0,0,1-.165-.042c-.216-.118-5.314-2.932-6.732-7.189a.347.347,0,0,1,.293-.455c.056-.006,5.637-.615,7.937-3.452a.347.347,0,1,1,.539.436c-2.113,2.607-6.545,3.443-7.964,3.649,1.516,3.78,6.211,6.374,6.26,6.4a.347.347,0,0,1-.167.651Z" transform="translate(-3082.939 -666.9)"/></g><g transform="translate(2070.373 606.77)"><path class="i" d="M2707.634,744.672a.343.343,0,0,1-.185-.054c-.208-.132-5.106-3.282-6.235-7.625a.347.347,0,0,1,.323-.434c.056,0,5.666-.236,8.151-2.912a.347.347,0,1,1,.508.472c-2.283,2.459-6.761,3-8.191,3.107,1.259,3.873,5.769,6.777,5.816,6.807a.347.347,0,0,1-.186.64Z" transform="translate(-2701.202 -733.536)"/></g><g transform="translate(1766.724 574.616)"><path class="i" d="M1939.2,661.885a.346.346,0,0,1-.338-.274c-.705-3.281,1.424-7.257,2.153-8.492-3.9-1.19-8.86.839-8.912.861a.347.347,0,0,1-.267-.64c.227-.094,5.617-2.3,9.822-.734a.347.347,0,0,1,.17.514c-.031.047-3.057,4.776-2.29,8.347a.347.347,0,0,1-.266.412A.359.359,0,0,1,1939.2,661.885Z" transform="translate(-1931.624 -652.045)"/></g><g transform="translate(1716.368 752.062)"><path class="i" d="M1814.751,1111.17a.347.347,0,0,1-.344-.307c-.007-.056-.659-5.38-3.6-8.2-.721,1.239-3.152,5.039-6.36,6.025a.347.347,0,1,1-.2-.663c3.5-1.075,6.141-6.023,6.167-6.072a.347.347,0,0,1,.531-.1c3.42,2.906,4.126,8.686,4.154,8.931a.346.346,0,0,1-.3.384Z" transform="translate(-1803.998 -1101.77)"/></g><g transform="translate(1787.376 832.242)"><path class="i" d="M1991.04,1315.034a.347.347,0,0,1-.3-.526c.028-.048,2.766-4.661,2.161-8.688-1.329.54-5.575,2.062-8.716.881a.347.347,0,1,1,.243-.649c3.424,1.285,8.542-1.014,8.593-1.037a.344.344,0,0,1,.3.006.347.347,0,0,1,.183.238c.93,4.39-2.043,9.4-2.17,9.607A.348.348,0,0,1,1991.04,1315.034Z" transform="translate(-1983.964 -1304.983)"/></g></g></svg>