<svg xmlns="http://www.w3.org/2000/svg" xmlns:xlink="http://www.w3.org/1999/xlink" width="52.057" height="38.956" viewBox="0 0 52.057 38.956"><defs><style>.a,.d{fill:none;}.a{stroke:#124dff;}.b{fill:#124dff;}.c{stroke:none;}.e{filter:url(#a);}</style><filter id="a" x="0" y="0" width="52.057" height="38.956" filterUnits="userSpaceOnUse"><feOffset dx="1" dy="1" input="SourceAlpha"/><feGaussianBlur stdDeviation="1" result="b"/><feFlood flood-opacity="0.161"/><feComposite operator="in" in2="b"/><feComposite in="SourceGraphic"/></filter></defs><g transform="translate(-3994.293 -1049.344)"><g class="e" transform="matrix(1, 0, 0, 1, 3994.29, 1049.34)"><g class="a" transform="translate(2 2)"><rect class="c" width="46.057" height="32.956" rx="6"/><rect class="d" x="0.5" y="0.5" width="45.057" height="31.956" rx="5.5"/></g></g><g transform="translate(4002.077 1050.579)"><path class="b" d="M16.7,5v.293H5V5Z" transform="translate(0 0)"/><path class="b" d="M16.7,12.545v.44H5v-.44Z" transform="translate(0 -5.492)"/><path class="b" d="M16.7,20.09v.587H5V20.09Z" transform="translate(0 -10.984)"/><path class="b" d="M16.7,27.635v.733H5v-.733Z" transform="translate(0 -16.476)"/><path class="b" d="M16.7,35.18v.88H5v-.88Z" transform="translate(0 -21.968)"/><path class="b" d="M16.7,42.725v1.026H5V42.725Z" transform="translate(0 -27.46)"/><path class="b" d="M16.7,50.269v1.173H5V50.269Z" transform="translate(0 -32.952)"/><path class="b" d="M16.7,57.814v1.32H5v-1.32Z" transform="translate(0 -38.444)"/><path class="b" d="M16.7,65.359v1.466H5V65.359Z" transform="translate(0 -43.936)"/><path class="b" d="M16.7,72.9v1.613H5V72.9Z" transform="translate(0 -49.428)"/><path class="b" d="M16.7,80.449v1.76H5v-1.76Z" transform="translate(0 -54.92)"/><path class="b" d="M16.7,87.994V89.9H5V87.994Z" transform="translate(0 -60.412)"/><path class="b" d="M63.7,94.215v-.293H52v.293Z" transform="translate(-33.212 -64.728)"/><path class="b" d="M63.7,86.278v-.44H52v.44Z" transform="translate(-33.212 -58.843)"/><path class="b" d="M63.7,78.341v-.587H52v.587Z" transform="translate(-33.212 -52.959)"/><path class="b" d="M63.7,70.4v-.733H52V70.4Z" transform="translate(-33.212 -47.075)"/><path class="b" d="M63.7,62.467v-.88H52v.88Z" transform="translate(-33.212 -41.19)"/><path class="b" d="M63.7,54.529V53.5H52v1.026Z" transform="translate(-33.212 -35.306)"/><path class="b" d="M63.7,46.592V45.419H52v1.173Z" transform="translate(-33.212 -29.422)"/><path class="b" d="M63.7,38.655v-1.32H52v1.32Z" transform="translate(-33.212 -23.537)"/><path class="b" d="M63.7,30.718V29.252H52v1.466Z" transform="translate(-33.212 -17.653)"/><path class="b" d="M63.7,22.781V21.168H52v1.613Z" transform="translate(-33.212 -11.769)"/><path class="b" d="M63.7,14.843v-1.76H52v1.76Z" transform="translate(-33.212 -5.884)"/><path class="b" d="M63.7,6.906V5H52V6.906Z" transform="translate(-33.212 0)"/></g></g></svg>