<svg xmlns="http://www.w3.org/2000/svg" width="14" height="20" viewBox="0 0 14 20">
  <path id="Path_200285" data-name="Path 200285" d="M15.318,2.273A.326.326,0,0,0,15,2.606v1s0,.008,0,.013,0,.008,0,.012V21.939a.319.319,0,1,0,.636,0V14.064a16.445,16.445,0,0,0,3.935.544,6.705,6.705,0,0,0,3.214-.684c2.435-1.354,5.745,0,5.778.016a.3.3,0,0,0,.3-.035.337.337,0,0,0,.14-.275v-10a.333.333,0,0,0-.2-.309c-.146-.062-3.614-1.484-6.313.015-2.138,1.189-5.892.3-6.851.039v-.77a.326.326,0,0,0-.318-.333Z" transform="translate(-15 -2.273)" fill="#fff"/>
</svg>
