<svg xmlns="http://www.w3.org/2000/svg" width="102" height="102" viewBox="0 0 102 102"><defs><style>.a{fill:#1d45ef;}.b{fill:#fff;}</style></defs><g transform="translate(-207 -657)"><circle class="a" cx="51" cy="51" r="51" transform="translate(207 657)"/><g transform="translate(233.059 689.414)"><path class="b" d="M62,33.963l-6.025-6.025a1.908,1.908,0,0,0-2.7,2.695L56.052,33.4H42.967V22.88a6.056,6.056,0,0,0-6.05-6.05H12.05A6.056,6.056,0,0,0,6,22.88V51.891a1.907,1.907,0,0,0,3.813,0V22.88a2.243,2.243,0,0,1,2.237-2.237H36.917a2.243,2.243,0,0,1,2.237,2.237V33.4H34.706V31.167a6.056,6.056,0,0,0-6.05-6.05H20.394a6.056,6.056,0,0,0-6.133,6.05v16.58a6.056,6.056,0,0,0,6.075,6.05h16.58a6.056,6.056,0,0,0,6.05-6.05V37.217H56.052l-2.777,2.777a1.908,1.908,0,1,0,2.7,2.695L62,36.639a1.907,1.907,0,0,0,0-2.7ZM39.154,47.747a2.243,2.243,0,0,1-2.237,2.237H20.337a2.243,2.243,0,0,1-2.262-2.237V31.167a2.243,2.243,0,0,1,2.237-2.237H28.63a2.243,2.243,0,0,1,2.237,2.237V33.4h-3.7a4.588,4.588,0,0,0-4.582,4.582v2.942a4.588,4.588,0,0,0,4.582,4.607H30.1a4.6,4.6,0,0,0,4.582-4.582V37.217h4.449Zm-8.262-10.53v3.711a.769.769,0,0,1-.794.794H27.162a.769.769,0,0,1-.769-.769V37.986a.769.769,0,0,1,.769-.769Z" transform="translate(-6 -16.83)"/></g></g></svg>