<svg xmlns="http://www.w3.org/2000/svg" width="24" height="24" viewBox="0 0 24 24">
  <g id="Group_104239" data-name="Group 104239" transform="translate(-11899 4778)">
    <g id="Rectangle_19184" data-name="Rectangle 19184" transform="translate(11899 -4778)" fill="#fff" stroke="#707070" stroke-width="1" opacity="0">
      <rect width="24" height="24" stroke="none"/>
      <rect x="0.5" y="0.5" width="23" height="23" fill="none"/>
    </g>
    <g id="Group_104238" data-name="Group 104238" transform="translate(11701.183 -4974.049)">
      <path id="Path_200291" data-name="Path 200291" d="M199.817,228.3a.02.02,0,0,1,.033-.009.755.755,0,0,1,0,.685l-.018,0-.015-.011Z" transform="translate(0 -23.794)" fill="#6dccf9"/>
      <path id="Path_200292" data-name="Path 200292" d="M199.99,205.29V204.6a3.609,3.609,0,0,1,.793-1.9,7.662,7.662,0,0,1,2.669-2.126,13.736,13.736,0,0,1,4.793-1.423,14.439,14.439,0,0,1,7.694,1.178,8.6,8.6,0,0,1,2.841,1.964,3.94,3.94,0,0,1,1.163,2.4,2.269,2.269,0,0,1-.639,2.011,1.668,1.668,0,0,1-1.152.4c-.8,0-1.6.009-2.4-.006a1.652,1.652,0,0,1-1.686-1.832,2.919,2.919,0,0,1,.134-.571c.027-.1,0-.124-.078-.158a9.841,9.841,0,0,0-4.787-.956,10.188,10.188,0,0,0-3.523.935c-.1.044-.1.085-.076.176a2.111,2.111,0,0,1,.111,1,1.608,1.608,0,0,1-1.5,1.368,21.088,21.088,0,0,1-2.869-.017,1.534,1.534,0,0,1-1.36-1.128A1.852,1.852,0,0,1,199.99,205.29Z" transform="translate(-0.14)" fill="#6dccf9"/>
      <path id="Path_200293" data-name="Path 200293" d="M226.554,244.267a8.055,8.055,0,0,0-1.857-4.134c-.675-.8-1.426-1.524-2.133-2.291a.678.678,0,0,0-.538-.227c-.325.006-.651,0-.975,0-.121,0-.172-.021-.163-.157.013-.2,0-.405,0-.608a.6.6,0,1,0-1.191-.03c-.009.216-.007.432,0,.648,0,.1-.012.149-.133.148-.553-.007-1.106-.005-1.658,0-.094,0-.123-.024-.12-.12.005-.242.01-.485-.005-.726a.583.583,0,0,0-.617-.57.594.594,0,0,0-.567.606c-.005.216-.008.432,0,.647.005.122-.021.169-.156.165-.318-.011-.637,0-.956-.006a.75.75,0,0,0-.6.263q-.795.851-1.6,1.693a8.99,8.99,0,0,0-1.491,2.025,8.112,8.112,0,0,0-.934,3.346c-.052.941-.02,1.883-.025,2.825,0,.547.212.761.752.761h14.379a.615.615,0,0,0,.683-.675c0-.183,0-.366,0-.549A23.727,23.727,0,0,0,226.554,244.267Zm-7.821,2.064a3.139,3.139,0,1,1,3.131-3.136A3.139,3.139,0,0,1,218.733,246.331Z" transform="translate(-8.923 -30.478)" fill="#6dccf9"/>
      <path id="Path_200294" data-name="Path 200294" d="M244.481,266.706a1.936,1.936,0,1,1,1.935-1.932A1.951,1.951,0,0,1,244.481,266.706Z" transform="translate(-34.661 -51.969)" fill="#6dccf9"/>
    </g>
  </g>
</svg>
