<?xml version="1.0" encoding="UTF-8"?>
<svg id="Layer_1" data-name="Layer 1" xmlns="http://www.w3.org/2000/svg" viewBox="0 0 33 37">
  <defs>
    <style>
      .cls-1 {
        fill: #fff;
      }
    </style>
  </defs>
  <rect class="cls-1" x="1.03" y="10.14" width="20.51" height="25.23" rx="1.21" ry="1.21"/>
  <path class="cls-1" d="m26.32,5.47H6.24c-.39,0-.72.32-.72.72v2.1c0,.39.32.72.72.72h17.27v21.8c0,.46.37.83.83.83h1.87c.46,0,.83-.37.83-.83V6.18c0-.39-.32-.72-.72-.72Z"/>
  <path class="cls-1" d="m31.57,1.66h-.01c-.05-.01-.1-.03-.15-.03H11.85c-.31,0-.56.25-.56.56v1.87c0,.31.25.56.56.56h16.68v21.91c0,.22.18.39.39.39h2.64c.22,0,.39-.18.39-.39V2.05c0-.22-.18-.39-.39-.39Z"/>
</svg>