<svg xmlns="http://www.w3.org/2000/svg" width="27.772" height="27.772" viewBox="0 0 27.772 27.772"><defs><style>.a{fill:#0d2944;}</style></defs><path class="a" d="M15.872,2a13.886,13.886,0,1,0,13.9,13.886A13.879,13.879,0,0,0,15.872,2ZM25.5,10.332H21.4a21.731,21.731,0,0,0-1.916-4.943A11.15,11.15,0,0,1,25.5,10.332Zm-9.609-5.5a19.561,19.561,0,0,1,2.652,5.5h-5.3A19.561,19.561,0,0,1,15.886,4.833ZM5.138,18.663a10.862,10.862,0,0,1,0-5.554H9.832a22.934,22.934,0,0,0-.194,2.777,22.934,22.934,0,0,0,.194,2.777Zm1.139,2.777h4.1a21.731,21.731,0,0,0,1.916,4.943,11.091,11.091,0,0,1-6.013-4.943Zm4.1-11.109h-4.1A11.091,11.091,0,0,1,12.29,5.388a21.731,21.731,0,0,0-1.916,4.943ZM15.886,26.94a19.561,19.561,0,0,1-2.652-5.5h5.3A19.561,19.561,0,0,1,15.886,26.94Zm3.249-8.276h-6.5a20.431,20.431,0,0,1-.222-2.777,20.253,20.253,0,0,1,.222-2.777h6.5a20.253,20.253,0,0,1,.222,2.777A20.43,20.43,0,0,1,19.136,18.663Zm.347,7.721A21.731,21.731,0,0,0,21.4,21.441h4.1A11.15,11.15,0,0,1,19.483,26.384Zm2.458-7.721a22.933,22.933,0,0,0,.194-2.777,22.933,22.933,0,0,0-.194-2.777h4.694a10.862,10.862,0,0,1,0,5.554Z" transform="translate(-2 -2)"/></svg>