<svg xmlns="http://www.w3.org/2000/svg" width="11.792" height="11.855" viewBox="0 0 11.792 11.855"><defs><style>.a{fill:#000;stroke:#000;stroke-width:0.2px;fill-rule:evenodd;}</style></defs><g transform="translate(-4220.672 1268.933)"><path class="a" d="M37.629,4.3c0,.012-.007.024-.011.036a.249.249,0,0,1-.035.083c-.006.011-.011.022-.017.032a.419.419,0,0,1-.117.117c-.011.007-.022.012-.033.018a.389.389,0,0,1-.039.021.393.393,0,0,1-.043.013c-.012,0-.023.008-.035.011a.436.436,0,0,1-.083.008H34.686a.422.422,0,1,1,0-.843H36.2L33.124.72a.421.421,0,1,1,.6-.6L36.794,3.2V1.686a.422.422,0,0,1,.843,0V4.215a.438.438,0,0,1-.008.083" transform="translate(4232.363 -1301.802) rotate(90)"/><path class="a" d="M3.917,37.514.843,34.439v1.512a.422.422,0,0,1-.843,0V33.422a.421.421,0,0,1,.008-.083A.353.353,0,0,1,.019,33.3a.432.432,0,0,1,.013-.043.407.407,0,0,1,.021-.04c.006-.011.011-.022.017-.032a.419.419,0,0,1,.117-.117c.01-.007.022-.012.033-.018a.448.448,0,0,1,.04-.021A.436.436,0,0,1,.3,33.019a.35.35,0,0,1,.036-.011A.421.421,0,0,1,.422,33H2.951a.422.422,0,1,1,0,.843H1.439l3.074,3.074a.421.421,0,0,1-.6.6" transform="translate(4258.409 -1261.846) rotate(90)"/><path class="a" d="M.421,1.264a.422.422,0,0,1,.421.422V3.2L3.917.123a.422.422,0,1,1,.6.6L1.439,3.793H2.95a.422.422,0,0,1,0,.843H.421a.437.437,0,0,1-.083-.008c-.012,0-.024-.007-.035-.011A.394.394,0,0,1,.26,4.6a.437.437,0,0,1-.039-.021C.21,4.577.2,4.572.188,4.565a.419.419,0,0,1-.117-.117c-.007-.01-.012-.021-.017-.032a.436.436,0,0,1-.021-.04.432.432,0,0,1-.013-.043A.353.353,0,0,1,.008,4.3.421.421,0,0,1,0,4.215V1.686a.422.422,0,0,1,.421-.422" transform="translate(4220.772 -1264.165) rotate(-90)"/><path class="a" d="M37.215,36.371a.422.422,0,0,1-.422-.422V34.438l-3.074,3.074a.422.422,0,0,1-.6-.6L36.2,33.842H34.686a.422.422,0,1,1,0-.843h2.529a.421.421,0,0,1,.083.008.348.348,0,0,1,.036.011.438.438,0,0,1,.043.013.45.45,0,0,1,.04.021c.011.006.022.011.033.018a.419.419,0,0,1,.117.117c.007.01.012.021.017.032a.407.407,0,0,1,.021.04.434.434,0,0,1,.013.043c0,.012.008.024.011.036a.438.438,0,0,1,.008.083V35.95a.422.422,0,0,1-.422.422" transform="translate(4194.728 -1224.21) rotate(-90)"/></g></svg>