<svg xmlns="http://www.w3.org/2000/svg" width="24.404" height="27.885" viewBox="0 0 24.404 27.885"><defs><style>.a{fill:#bebebe;}</style></defs><g transform="translate(-5 -1)"><path class="a" d="M26.493,3.322H24.751V1.579a.579.579,0,0,0-1.159,0V3.322H21.269V1.579A.586.586,0,0,0,20.685,1a.579.579,0,0,0-.579.579V3.322H17.784V1.579A.586.586,0,0,0,17.2,1a.579.579,0,0,0-.579.579V3.322H14.3V1.579A.586.586,0,0,0,13.714,1a.579.579,0,0,0-.579.579V3.322H10.812V1.579A.586.586,0,0,0,10.228,1a.579.579,0,0,0-.579.579V3.322H7.906A2.908,2.908,0,0,0,5,6.228V25.979a2.908,2.908,0,0,0,2.906,2.906H26.5A2.908,2.908,0,0,0,29.4,25.979V6.228A2.915,2.915,0,0,0,26.493,3.322ZM6.163,6.228A1.742,1.742,0,0,1,7.906,4.486H9.649v.579a.579.579,0,0,0,1.159,0V4.486H13.13v.579a.579.579,0,0,0,1.159,0V4.486h2.322v.579a.579.579,0,1,0,1.159,0V4.486h2.322v.579a.579.579,0,0,0,1.159,0V4.486h2.322v.579a.579.579,0,0,0,1.159,0V4.486h1.743a1.742,1.742,0,0,1,1.743,1.743V9.135H6.163ZM28.236,25.979a1.742,1.742,0,0,1-1.743,1.743H7.906a1.742,1.742,0,0,1-1.743-1.743V10.294H28.241V25.979Z"/><path class="a" d="M13.579,49.655h3.486a.579.579,0,0,0,.579-.579V45.589a.579.579,0,0,0-.579-.579H13.579a.576.576,0,0,0-.579.575v3.486A.583.583,0,0,0,13.579,49.655Zm.584-3.486h2.322v2.322H14.163Z" transform="translate(-4.514 -24.834)"/><path class="a" d="M13.579,33.655h3.486a.579.579,0,0,0,.579-.579V29.589a.579.579,0,0,0-.579-.579H13.579a.576.576,0,0,0-.579.575v3.486A.583.583,0,0,0,13.579,33.655Zm.584-3.486h2.322v2.322H14.163Z" transform="translate(-4.514 -15.806)"/><path class="a" d="M28.249,49.655h3.486a.579.579,0,0,0,.579-.579V45.589a.579.579,0,0,0-.579-.579H28.249a.579.579,0,0,0-.579.579v3.486A.579.579,0,0,0,28.249,49.655Zm.579-3.486h2.322v2.322H28.829Z" transform="translate(-12.793 -24.835)"/><path class="a" d="M28.249,33.655h3.486a.579.579,0,0,0,.579-.579V29.589a.579.579,0,0,0-.579-.579H28.249a.579.579,0,0,0-.579.579v3.486A.579.579,0,0,0,28.249,33.655Zm.579-3.486h2.322v2.322H28.829Z" transform="translate(-12.793 -15.806)"/><path class="a" d="M42.919,49.649h3.486a.579.579,0,0,0,.579-.579V45.584A.583.583,0,0,0,46.405,45H42.919a.579.579,0,0,0-.579.579v3.486A.577.577,0,0,0,42.919,49.649Zm.579-3.486h2.322v2.322H43.5Z" transform="translate(-21.071 -24.829)"/><path class="a" d="M42.919,33.649h3.486a.579.579,0,0,0,.579-.579V29.584A.583.583,0,0,0,46.405,29H42.919a.579.579,0,0,0-.579.579v3.486A.577.577,0,0,0,42.919,33.649Zm.579-3.486h2.322v2.322H43.5Z" transform="translate(-21.071 -15.8)"/></g></svg>