<svg xmlns="http://www.w3.org/2000/svg" width="78.698" height="78.698" viewBox="0 0 78.698 78.698"><defs><style>.a{fill:#2588f2;}</style></defs><g transform="translate(-22 -22)"><g transform="translate(22 22)"><path class="a" d="M61.349,22A39.349,39.349,0,1,0,100.7,61.349,39.349,39.349,0,0,0,61.349,22Zm27.1,24.145L62.534,72.06a2.552,2.552,0,0,1-3.687-.121L47.9,59.446l3.8-3.331,9.172,10.463L84.875,42.572Zm-27.1,42.639a27.436,27.436,0,1,1,17.39-48.643l-3.208,3.905a22.309,22.309,0,1,0,7.592,12.111l4.916-1.172a27.447,27.447,0,0,1-26.691,33.8Z" transform="translate(-22 -22)"/></g></g></svg>