<svg xmlns="http://www.w3.org/2000/svg" xmlns:xlink="http://www.w3.org/1999/xlink" width="52.057" height="38.956" viewBox="0 0 52.057 38.956"><defs><style>.a,.b,.d{fill:none;}.a,.b{stroke:#124dff;}.b{stroke-width:0.5px;}.c{stroke:none;}.e{filter:url(#a);}</style><filter id="a" x="0" y="0" width="52.057" height="38.956" filterUnits="userSpaceOnUse"><feOffset dx="1" dy="1" input="SourceAlpha"/><feGaussianBlur stdDeviation="1" result="b"/><feFlood flood-opacity="0.161"/><feComposite operator="in" in2="b"/><feComposite in="SourceGraphic"/></filter></defs><g transform="translate(-3994.293 -1049.344)"><g class="e" transform="matrix(1, 0, 0, 1, 3994.29, 1049.34)"><g class="a" transform="translate(2 2)"><rect class="c" width="46.057" height="32.956" rx="6"/><rect class="d" x="0.5" y="0.5" width="45.057" height="31.956" rx="5.5"/></g></g><rect class="b" width="8.609" height="2.87" transform="translate(4014.926 1057.344)"/><path class="b" d="M9.475,30.751a.1.1,0,0,1-.1.1H3.417V12.417H9.475Z" transform="translate(4021.691 1049.371)"/><path class="b" d="M44.75,3.513a.1.1,0,0,1,.1-.1h5.962v2.87H44.75Z" transform="translate(3962.543 1053.927)"/><path class="b" d="M50.808,30.846H44.846a.1.1,0,0,1-.1-.1V12.417h6.058Z" transform="translate(3962.543 1049.371)"/><path class="b" d="M29.359,30.846H20.75V12.417h8.609Z" transform="translate(3994.176 1049.371)"/><path class="b" d="M3.417,3.417H9.379a.1.1,0,0,1,.1.1V6.287H3.417Z" transform="translate(4021.691 1053.927)"/></g></svg>