<svg xmlns="http://www.w3.org/2000/svg" width="226" height="226" viewBox="0 0 226 226"><defs><style>.a{fill:#b258ff;}.b{fill:#fff;}</style></defs><g transform="translate(-1144 -1262)"><circle class="a" cx="113" cy="113" r="113" transform="translate(1144 1262)"/><g transform="translate(1188.329 1312.324)"><g transform="translate(0 0)"><path class="b" d="M95.641,359.281A7.641,7.641,0,1,0,88,351.641,7.641,7.641,0,0,0,95.641,359.281Zm0-11.461a3.82,3.82,0,1,1-3.82,3.82A3.82,3.82,0,0,1,95.641,347.82Z" transform="translate(-71.632 -265.683)"/><path class="b" d="M275.82,88h-1.91a1.91,1.91,0,0,0,0,3.82h1.91a1.91,1.91,0,1,0,0-3.82Z" transform="translate(-211.698 -70.808)"/><path class="b" d="M128.92,68.908a34.51,34.51,0,0,0-11.864-12.5l0,0a1.9,1.9,0,0,0-.635-.257l-8.015-1.6v-5.9l3.577-19.077A11.463,11.463,0,0,0,103.9,16.45a1.908,1.908,0,0,0-1.228-.45H79.75a5.729,5.729,0,0,0-2.829,10.711l-8.391,15.1a1.91,1.91,0,0,0,1.67,2.838h5.73v2.9L67.1,54.622a1.91,1.91,0,0,0-.4,2.551l3.82,5.73L73.7,60.784,70.85,56.511l5.08-4.064v3.666a1.91,1.91,0,0,0,1.91,1.91h7.641v2.8L80.863,63.9A28.288,28.288,0,0,0,61.657,80.946H25.1a5.656,5.656,0,0,0-5.547,6.766L25.7,118.422a5.636,5.636,0,0,0,1.705,3.031A5.728,5.728,0,0,0,32,130.61h99.329a1.91,1.91,0,0,0,1.91-1.91v-43.1A34.508,34.508,0,0,0,128.92,68.908Zm-3.341,1.852a30.679,30.679,0,0,1,3.836,14.836v.872l-6.93,31.187a1.9,1.9,0,0,1-1.865,1.5H98.852v-7.641h17.192v-3.82h-3.528l3.509-24.562-3.782-.54-3.586,25.1h-10.2L96.958,79.3l1.617-4.852,17.576-14.061a30.687,30.687,0,0,1,9.427,10.376Zm-45.519,48.39a6.012,6.012,0,0,1,1.957-2.805,22.152,22.152,0,0,1,13.015-4.819v7.624Zm-7.5-1.476L66.416,86.962a1.836,1.836,0,1,1,3.6-.72l6.142,30.711a1.836,1.836,0,1,1-3.6.72ZM92.8,69.283l2.084,4.169-1.225,3.674H89.3V73.942ZM89.111,80.946h4.109l1.409,26.771a25.972,25.972,0,0,0-8.532,1.868Zm8.483-10.608L95.56,66.27l11.37-8.121,4.72.944Zm9-47.756a7.618,7.618,0,0,1,1.63,6.288l-3.1,16.553-2.783-1.67a8.574,8.574,0,0,0,.414-11.079l1.5-11.987a7.636,7.636,0,0,1,2.344,1.894ZM95.987,33.192a4.775,4.775,0,1,1-4.775,4.775,4.775,4.775,0,0,1,4.775-4.775Zm4.522-13.371L99.235,30.01a8.572,8.572,0,0,0-6.5,0L91.465,19.82Zm-20.758,0h7.865l.478,3.82H79.75a1.91,1.91,0,0,1,0-3.82Zm0,34.383V42.742a1.91,1.91,0,0,0-1.91-1.91H73.446l7.428-13.371h7.7l.652,5.213A8.59,8.59,0,0,0,98.8,46.087l5.78,3.468v5.576l-11.5,8.213L89.3,60.822V56.9l5.171-5.171-2.7-2.7L86.6,54.2Zm7.641,9.937,2.991,1.994-2.991,3.988L84.4,66.134Zm-6.475,3.715,4.565,6.087v4.993l-3.445,32.724a25.667,25.667,0,0,0-2.406,1.7c-.086.069-.168.141-.251.213L73.763,85.493a5.67,5.67,0,0,0-5.474-4.544v0H65.813a24.47,24.47,0,0,1,15.1-13.091ZM23.3,86.962a1.811,1.811,0,0,1,.38-1.524,1.83,1.83,0,0,1,1.42-.672H62.866a5.641,5.641,0,0,0-.2,2.945l6.142,30.711a5.609,5.609,0,0,0,.2.727H32a5.752,5.752,0,0,0-.749.051v-.051a1.841,1.841,0,0,1-1.8-1.476Zm6.782,37.917a1.912,1.912,0,0,1,1.91-1.91H70.528a5.716,5.716,0,0,0,0,3.82H32A1.912,1.912,0,0,1,30.086,124.88Zm45.844,1.91a1.91,1.91,0,1,1,0-3.82h40.114a1.91,1.91,0,1,1,0,3.82Zm45.515,0a5.725,5.725,0,0,0-.021-3.881,5.688,5.688,0,0,0,4.789-4.427l3.2-14.4V126.79Z" transform="translate(-19.448 -16)"/></g></g></g></svg>