<svg xmlns="http://www.w3.org/2000/svg" width="226" height="226" viewBox="0 0 226 226"><defs><style>.a{fill:#ff8f7b;}.b{fill:#fff;}</style></defs><g transform="translate(-1536 -1262)"><circle class="a" cx="113" cy="113" r="113" transform="translate(1536 1262)"/><g transform="translate(1599.107 1325.565)"><g transform="translate(0 0)"><rect class="b" width="3.189" height="13.527" transform="translate(16.409 72.868) rotate(-45)"/><rect class="b" width="3.189" height="9.019" transform="translate(72.208 20.259) rotate(-45)"/><circle class="b" cx="1.372" cy="1.372" r="1.372" transform="translate(81.424 27.446)"/><circle class="b" cx="1.372" cy="1.372" r="1.372" transform="translate(68.615 14.638)"/><rect class="b" width="3.189" height="3.189" transform="translate(30.21 58.52) rotate(-45)"/><rect class="b" width="3.189" height="3.189" transform="translate(34.719 63.029) rotate(-45)"/><rect class="b" width="3.189" height="3.029" transform="matrix(0.707, -0.707, 0.707, 0.707, 39.23, 67.534)"/><path class="b" d="M42.074,24.537A17.537,17.537,0,1,0,24.537,42.074,17.558,17.558,0,0,0,42.074,24.537Zm-31.885,0A14.348,14.348,0,1,1,24.537,38.885,14.366,14.366,0,0,1,10.189,24.537Z" transform="translate(2.566 2.566)"/><path class="b" d="M33.32,22.16A11.16,11.16,0,1,0,22.16,33.32,11.172,11.172,0,0,0,33.32,22.16Zm-19.131,0a7.971,7.971,0,1,1,7.971,7.971A7.98,7.98,0,0,1,14.189,22.16Z" transform="translate(4.943 4.943)"/><path class="b" d="M80.826,60.534l16.3-16.3a9.291,9.291,0,0,0,0-13.14L72.934,6.91a9.291,9.291,0,0,0-13.14,0L49.4,17.3c-.053-.1-.094-.212-.147-.314L51.528,13.2,43,4.676,39.217,6.948A23.759,23.759,0,0,0,35.2,5.287L34.13,1H22.074L21,5.287a23.759,23.759,0,0,0-4.018,1.661L13.2,4.676,4.676,13.2l2.272,3.786A23.759,23.759,0,0,0,5.287,21L1,22.074V34.13L5.287,35.2a23.759,23.759,0,0,0,1.661,4.018L4.676,43.005,13.2,51.53l3.786-2.272c.1.054.212.1.314.147L6.91,59.8a9.289,9.289,0,0,0,0,13.138L31.1,97.122a9.291,9.291,0,0,0,13.14,0L66.364,75l5.644,5.642a14.344,14.344,0,1,0,23.635-5.29ZM70.68,9.164,94.868,33.352a6.1,6.1,0,0,1,0,8.631l-1.4,1.4-8.906-8.906H81.373L66.364,19.471V16.283l-5.717-5.717,1.4-1.4A6.251,6.251,0,0,1,70.68,9.164ZM58.393,12.82,63.176,17.6v3.189L80.053,37.668h3.189l7.971,7.971L78.572,58.28l-2.528-2.528,8.518-8.518L56.8,19.471l-2.4,2.4L50.916,21c-.054-.177-.129-.344-.188-.52ZM25.574,55.2H34.13L35.2,50.918a23.759,23.759,0,0,0,4.018-1.661l3.786,2.272L51.53,43l-2.272-3.786A23.759,23.759,0,0,0,50.919,35.2L55.2,34.13V25.574L56.8,23.98,80.053,47.233,73.789,53.5l-3.656-3.656a14.349,14.349,0,1,0-15.92,23.23l-6.98,6.981L23.98,56.8Zm-8.636-9.637-3.244,1.947-5-5,1.947-3.244-.47-.813A20.606,20.606,0,0,1,8.1,33.465l-.242-.906-3.673-.92V24.565l3.673-.918.242-.906a20.516,20.516,0,0,1,2.063-4.988l.47-.813L8.691,13.693l5-5,3.244,1.947.813-.47A20.606,20.606,0,0,1,22.739,8.1l.906-.242.92-3.673H31.64l.918,3.673.906.242a20.516,20.516,0,0,1,4.988,2.063l.813.47L42.51,8.691l5,5-1.947,3.244.47.813A20.606,20.606,0,0,1,48.1,22.739l.242.906,3.675.92V31.64l-3.673.918-.242.906a20.516,20.516,0,0,1-2.063,4.988l-.47.813,1.947,3.244-5,5-3.244-1.947-.813.47A20.606,20.606,0,0,1,33.465,48.1l-.906.242-.92,3.675H24.565l-.918-3.673-.906-.242a20.516,20.516,0,0,1-4.988-2.063ZM21,50.918l.87,3.48-2.4,2.4L47.233,84.561,57.7,74.1a14.39,14.39,0,0,0,5.119-.062L47.233,89.618,14.414,56.8l6.069-6.069C20.659,50.789,20.826,50.862,21,50.918Zm20.98,43.95a6.254,6.254,0,0,1-8.631,0L9.164,70.68a6.1,6.1,0,0,1,0-8.631l3-3L44.979,91.873Zm51.4-1.481A11.153,11.153,0,0,1,75.334,80.912l.453-1L65.577,69.7l-1,.451A11.152,11.152,0,0,1,52.1,52.1a11.156,11.156,0,0,1,15.782,0L93.387,77.6A11.174,11.174,0,0,1,93.387,93.387Z" transform="translate(-1 -1)"/><circle class="b" cx="1.83" cy="1.83" r="1.83" transform="translate(85.998 79.594)"/><circle class="b" cx="1.83" cy="1.83" r="1.83" transform="translate(79.594 85.998)"/><circle class="b" cx="1.83" cy="1.83" r="1.83" transform="translate(85.998 85.998)"/><circle class="b" cx="1.83" cy="1.83" r="1.83" transform="translate(79.594 79.594)"/><path class="b" d="M43.859,34.293,40.2,37.949l-3.656-3.656-2.254,2.254L37.949,40.2l-3.656,3.656,2.254,2.254L40.2,42.457l3.656,3.656,2.254-2.254L42.457,40.2l3.656-3.656Z" transform="translate(18.785 18.785)"/><rect class="b" width="3.189" height="4.509" transform="translate(73.802 72.869) rotate(-45)"/><rect class="b" width="3.189" height="4.509" transform="translate(67.425 66.492) rotate(-45)"/></g></g></g></svg>