<svg xmlns="http://www.w3.org/2000/svg" width="226" height="226" viewBox="0 0 226 226"><defs><style>.a{fill:#587df5;}.b{fill:#fff;}</style></defs><g transform="translate(-211 -1262)"><circle class="a" cx="113" cy="113" r="113" transform="translate(211 1262)"/><g transform="translate(276.136 1317.148)"><path class="b" d="M23.528,49.184l1.8,4.346-2.773,5.838a30.14,30.14,0,0,0,7.093,7.093l5.838-2.773,4.346,1.8L42,72.02H52.023l2.161-6.528a24.392,24.392,0,0,0,4.346-1.8l5.838,2.773a30.136,30.136,0,0,0,7.092-7.092L68.688,53.53a24.351,24.351,0,0,0,1.8-4.346l6.528-2.161V37l-6.528-2.161a24.356,24.356,0,0,0-1.8-4.346l2.773-5.838a30.144,30.144,0,0,0-7.092-7.092L58.53,20.331a24.394,24.394,0,0,0-4.346-1.8L52.023,12H42l-2.161,6.527-4.345,1.8-5.839-2.773a30.142,30.142,0,0,0-7.092,7.093l2.773,5.839-1.8,4.346L17,37V47.023ZM47.01,26A16.005,16.005,0,1,1,31,42.01,16.005,16.005,0,0,1,47.01,26Z" transform="translate(1.01 5.994)"/><rect class="b" width="4" height="12" transform="translate(45.864 37.852)"/><rect class="b" width="4" height="5" transform="translate(45.864 53.852)"/><path class="b" d="M44.014,97.513v9.515H68.022V97.513a48.016,48.016,0,1,0-24.008,0ZM56.018,11A40.013,40.013,0,1,1,16,51.01,40.013,40.013,0,0,1,56.018,11Z" transform="translate(-7.998 -3.006)"/><rect class="b" width="17" height="11" transform="translate(39.864 105.852)"/></g></g></svg>