<?xml version="1.0" encoding="utf-8"?>
<svg viewBox="-0.038 -0.007 24 24" width="24px" height="24px" xmlns="http://www.w3.org/2000/svg">
  <defs>
    <style>
      .cls-1 {
        fill: #66c1ee;
      }
    </style>
  </defs>
  <rect class="cls-1" x="-0.038" y="6.045" width="15.868" height="17.935" rx="1.21" ry="1.21" style="opacity: 1;"/>
  <path class="cls-1" d="M 19.528 2.724 L 3.993 2.724 C 3.689 2.724 3.436 2.951 3.436 3.235 L 3.436 4.728 C 3.436 5.003 3.683 5.239 3.993 5.239 L 17.355 5.239 L 17.355 20.737 C 17.355 21.064 17.64 21.325 17.995 21.325 L 19.446 21.325 C 19.798 21.325 20.081 21.064 20.081 20.737 L 20.081 3.227 C 20.081 2.951 19.838 2.717 19.528 2.717 L 19.528 2.724 Z" style="opacity: 1;"/>
  <path class="cls-1" d="M 23.589 0.013 L 23.581 0.013 C 23.544 0.005 23.504 -0.007 23.465 -0.007 L 8.332 -0.007 C 8.094 -0.007 7.9 0.171 7.9 0.39 L 7.9 1.722 C 7.9 1.942 8.094 2.117 8.332 2.117 L 21.236 2.117 L 21.236 17.692 C 21.236 17.851 21.377 17.972 21.541 17.972 L 23.581 17.972 C 23.752 17.972 23.885 17.842 23.885 17.692 L 23.885 0.291 C 23.885 0.134 23.745 0.013 23.581 0.013 L 23.589 0.013 Z" style="opacity: 1;"/>
</svg>