<svg xmlns="http://www.w3.org/2000/svg" width="102" height="102" viewBox="0 0 102 102"><defs><style>.a{fill:#1d45ef;}.b{fill:#fff;}</style></defs><g transform="translate(-771 -657)"><g transform="translate(771 657)"><circle class="a" cx="51" cy="51" r="51"/><g transform="translate(21.068 21.036)"><g transform="translate(0 0)"><path class="b" d="M61.467,2.5a3.28,3.28,0,0,0-3.3,3.3,1.4,1.4,0,0,0,.064.508l-3.557,2.1a1.176,1.176,0,0,0-.572,1.08v8a1.207,1.207,0,0,0,2.413,0v-7.3L59.371,8.47a3.3,3.3,0,0,0,5.335-2.6A3.2,3.2,0,0,0,61.467,2.5Z" transform="translate(-21.393 -2.5)"/><path class="b" d="M32.4,9.2a3.281,3.281,0,0,0,2.032-.7l2.858,1.715v7.3a1.207,1.207,0,0,0,2.413,0v-8a1.414,1.414,0,0,0-.572-1.08L35.641,6.411c0-.191.064-.318.064-.508a3.3,3.3,0,0,0-6.6,0A3.32,3.32,0,0,0,32.4,9.2Z" transform="translate(-12.27 -2.536)"/><path class="b" d="M38.6,72a1.206,1.206,0,0,0-1.207,1.207v7.3l-2.858,1.715a3.3,3.3,0,1,0,1.27,2.6,1.4,1.4,0,0,0-.064-.508l3.493-2.032a1.176,1.176,0,0,0,.572-1.08v-8A1.206,1.206,0,0,0,38.6,72Z" transform="translate(-12.307 -27.861)"/><path class="b" d="M61.5,81.526a3.281,3.281,0,0,0-2.032.7L56.613,80.51v-7.3a1.207,1.207,0,1,0-2.413,0v8a1.414,1.414,0,0,0,.572,1.08l3.493,2.032c0,.191-.064.318-.064.508a3.3,3.3,0,1,0,3.3-3.3Z" transform="translate(-21.429 -27.861)"/><path class="b" d="M84.892,58.1a1.4,1.4,0,0,0-.508.064l-2.1-3.493a1.176,1.176,0,0,0-1.08-.572h-8a1.207,1.207,0,0,0,0,2.413h7.3l1.715,2.858A3.3,3.3,0,1,0,88.131,61.4,3.226,3.226,0,0,0,84.892,58.1Z" transform="translate(-27.925 -21.329)"/><path class="b" d="M73.207,39.806h8a1.414,1.414,0,0,0,1.08-.572l2.032-3.493c.191,0,.318.064.508.064a3.3,3.3,0,1,0,0-6.6,3.227,3.227,0,0,0-3.3,3.239,3.281,3.281,0,0,0,.7,2.032L80.51,37.329h-7.3A1.206,1.206,0,0,0,72,38.536,1.221,1.221,0,0,0,73.207,39.806Z" transform="translate(-27.925 -12.243)"/><path class="b" d="M17.525,37.393h-7.3L8.506,34.535A3.3,3.3,0,1,0,5.9,35.8a1.4,1.4,0,0,0,.508-.064l2.032,3.493a1.176,1.176,0,0,0,1.08.572h8a1.207,1.207,0,1,0,0-2.413Z" transform="translate(-2.6 -12.243)"/><path class="b" d="M17.525,54.1h-8a1.414,1.414,0,0,0-1.08.572L6.411,58.165c-.191,0-.318-.064-.508-.064a3.3,3.3,0,1,0,2.6,1.27l1.715-2.858h7.3a1.207,1.207,0,0,0,0-2.413Z" transform="translate(-2.6 -21.329)"/><path class="b" d="M47.322,51.259,49.1,52.593a1.181,1.181,0,0,0,1.588-.127l1.778-1.778a1.249,1.249,0,0,0,.127-1.588l-1.334-1.778c.254-.635.318-.826.635-1.524l2.223-.318a1.18,1.18,0,0,0,1.016-1.207v-2.54a1.282,1.282,0,0,0-1.016-1.207l-2.223-.318c-.254-.635-.381-.826-.635-1.524l1.334-1.778a1.181,1.181,0,0,0-.127-1.588l-1.778-1.651A1.249,1.249,0,0,0,49.1,33.54l-1.778,1.334c-.635-.254-.826-.381-1.524-.635l-.318-2.223A1.163,1.163,0,0,0,44.337,31H41.8a1.282,1.282,0,0,0-1.207,1.016l-.318,2.223c-.635.254-.826.318-1.524.635L36.97,33.54a1.181,1.181,0,0,0-1.588.127l-1.715,1.778a1.249,1.249,0,0,0-.127,1.588l1.334,1.778c-.254.7-.381.826-.635,1.524l-2.223.318A1.163,1.163,0,0,0,31,41.8v2.54a1.282,1.282,0,0,0,1.016,1.207l2.223.318c.254.635.381.826.635,1.524L33.54,49.164a1.181,1.181,0,0,0,.127,1.588l1.778,1.778a1.249,1.249,0,0,0,1.588.127l1.778-1.334c.635.254.826.381,1.524.635l.318,2.223A1.18,1.18,0,0,0,41.86,55.2H44.4a1.282,1.282,0,0,0,1.207-1.016l.318-2.223C46.5,51.64,46.687,51.577,47.322,51.259ZM43.067,48.02a4.954,4.954,0,1,1,4.954-4.954A4.96,4.96,0,0,1,43.067,48.02Z" transform="translate(-12.963 -12.9)"/></g></g></g></g></svg>