<svg xmlns="http://www.w3.org/2000/svg" width="13.06" height="17.809" viewBox="0 0 13.06 17.809"><defs><style>.a{fill:#cbcbcb;}</style></defs><path class="a" d="M15.3,2.273a.3.3,0,0,0-.3.3v.89s0,.007,0,.012,0,.007,0,.01v16.3a.3.3,0,0,0,.594,0V12.773a16.022,16.022,0,0,0,3.671.485,6.507,6.507,0,0,0,3-.609c2.271-1.205,5.359,0,5.39.014a.3.3,0,0,0,.407-.276v-8.9a.3.3,0,0,0-.187-.275c-.136-.055-3.372-1.321-5.889.013-1.995,1.059-5.5.265-6.391.035V2.57a.3.3,0,0,0-.3-.3Z" transform="translate(-15 -2.273)"/></svg>