<svg xmlns="http://www.w3.org/2000/svg" width="17" height="17" viewBox="0 0 17 17"><defs><style>.a{fill:#2588f2;}</style></defs><g transform="translate(-6 -6)"><path class="a" d="M14.5,6A8.5,8.5,0,1,0,23,14.5,8.5,8.5,0,0,0,14.5,6Zm5.642,5.935-8.309,6.129a.2.2,0,0,1-.118.037.2.2,0,0,1-.151-.066L8.827,14.957a.2.2,0,0,1,.02-.284L9.5,14.1a.2.2,0,0,1,.071-.021L9.644,14l2.218,2.5,7.54-5.56a.188.188,0,0,1,.112-.035.212.212,0,0,1,.171.08l.5.675a.207.207,0,0,1,.036.157A.193.193,0,0,1,20.142,11.935Z"/></g></svg>