<svg xmlns="http://www.w3.org/2000/svg" width="25.488" height="24.488" viewBox="0 0 25.488 24.488"><defs><style>.a{fill:#124dff;}</style></defs><g transform="translate(-5 -5)"><path class="a" d="M16.7,5v.293H5V5Z" transform="translate(0 0)"/><path class="a" d="M16.7,12.545v.44H5v-.44Z" transform="translate(0 -5.492)"/><path class="a" d="M16.7,20.09v.587H5V20.09Z" transform="translate(0 -10.984)"/><path class="a" d="M16.7,27.635v.733H5v-.733Z" transform="translate(0 -16.476)"/><path class="a" d="M16.7,35.18v.88H5v-.88Z" transform="translate(0 -21.968)"/><path class="a" d="M16.7,42.725v1.026H5V42.725Z" transform="translate(0 -27.46)"/><path class="a" d="M16.7,50.269v1.173H5V50.269Z" transform="translate(0 -32.952)"/><path class="a" d="M16.7,57.814v1.32H5v-1.32Z" transform="translate(0 -38.444)"/><path class="a" d="M16.7,65.359v1.466H5V65.359Z" transform="translate(0 -43.936)"/><path class="a" d="M16.7,72.9v1.613H5V72.9Z" transform="translate(0 -49.428)"/><path class="a" d="M16.7,80.449v1.76H5v-1.76Z" transform="translate(0 -54.92)"/><path class="a" d="M16.7,87.994V89.9H5V87.994Z" transform="translate(0 -60.412)"/><path class="a" d="M63.7,94.215v-.293H52v.293Z" transform="translate(-33.212 -64.728)"/><path class="a" d="M63.7,86.278v-.44H52v.44Z" transform="translate(-33.212 -58.843)"/><path class="a" d="M63.7,78.341v-.587H52v.587Z" transform="translate(-33.212 -52.959)"/><path class="a" d="M63.7,70.4v-.733H52V70.4Z" transform="translate(-33.212 -47.075)"/><path class="a" d="M63.7,62.467v-.88H52v.88Z" transform="translate(-33.212 -41.19)"/><path class="a" d="M63.7,54.529V53.5H52v1.026Z" transform="translate(-33.212 -35.306)"/><path class="a" d="M63.7,46.592V45.419H52v1.173Z" transform="translate(-33.212 -29.422)"/><path class="a" d="M63.7,38.655v-1.32H52v1.32Z" transform="translate(-33.212 -23.537)"/><path class="a" d="M63.7,30.718V29.252H52v1.466Z" transform="translate(-33.212 -17.653)"/><path class="a" d="M63.7,22.781V21.168H52v1.613Z" transform="translate(-33.212 -11.769)"/><path class="a" d="M63.7,14.843v-1.76H52v1.76Z" transform="translate(-33.212 -5.884)"/><path class="a" d="M63.7,6.906V5H52V6.906Z" transform="translate(-33.212 0)"/></g></svg>