<svg xmlns="http://www.w3.org/2000/svg" width="15.592" height="19.844" viewBox="0 0 15.592 19.844"><defs><style>.a{fill:#124dff;}</style></defs><g transform="translate(-5 -2)"><path class="a" d="M5.709,14A.709.709,0,0,0,5,14.709v9.922a.709.709,0,0,0,.709.709H19.883a.709.709,0,0,0,.709-.709V14.709A.709.709,0,0,0,19.883,14H15.631a.709.709,0,1,0,0,1.418h3.544v8.5H6.417v-8.5H9.961a.709.709,0,1,0,0-1.418Z" transform="translate(0 -3.495)"/><path class="a" d="M14.243,2a.709.709,0,0,0-.491.208L10.208,5.751a.709.709,0,1,0,1,1L13.544,4.42V15.456a.709.709,0,1,0,1.417,0V4.42l2.334,2.334a.709.709,0,1,0,1-1L14.753,2.208A.709.709,0,0,0,14.243,2Z" transform="translate(-1.456 0)"/></g></svg>