<svg xmlns="http://www.w3.org/2000/svg" width="29.394" height="29.394" viewBox="0 0 29.394 29.394"><path d="M29.857,22.547a18.067,18.067,0,0,1-5.573-.884,1.543,1.543,0,0,0-1.595.379l-2.479,3.11A23.973,23.973,0,0,1,9.331,14.368l3.079-2.621a1.611,1.611,0,0,0,.379-1.61A17.609,17.609,0,0,1,11.9,4.563,1.577,1.577,0,0,0,10.342,3H4.879C4.026,3,3,3.379,3,4.563A27.081,27.081,0,0,0,29.857,31.42a1.657,1.657,0,0,0,1.563-1.863V24.11A1.577,1.577,0,0,0,29.857,22.547Z" transform="matrix(-0.035, 0.999, -0.999, -0.035, 32.497, -1.902)"/></svg>