<svg xmlns="http://www.w3.org/2000/svg" width="87.802" height="87.802" viewBox="0 0 87.802 87.802"><defs><style>.a{fill:#1d45ef;}</style></defs><g transform="translate(250 -352)"><path class="a" d="M-173.9,352h-64.388A11.741,11.741,0,0,0-250,363.707V428.1A11.741,11.741,0,0,0-238.293,439.8H-173.9A11.741,11.741,0,0,0-162.2,428.1V363.707A11.741,11.741,0,0,0-173.9,352Zm-19.121,44.291a1.886,1.886,0,0,1-2.732,0l-9.366-9.366v33.853a1.957,1.957,0,0,1-1.951,1.951,1.957,1.957,0,0,1-1.951-1.951V386.926l-9.366,9.366a1.886,1.886,0,0,1-2.732,0,1.886,1.886,0,0,1,0-2.732l12.683-12.683a1.886,1.886,0,0,1,2.732,0l12.683,12.683A1.886,1.886,0,0,1-193.026,396.291Zm.585-21.853h-29.267a1.957,1.957,0,0,1-1.951-1.951,1.957,1.957,0,0,1,1.951-1.951h29.267a1.957,1.957,0,0,1,1.951,1.951A1.957,1.957,0,0,1-192.441,374.438Z" transform="translate(0 0)"/></g></svg>